$MeshFormat
4 0 8
$EndMeshFormat
$PhysicalNames
5
1 3 "LEFT_INFLOW"
1 4 "BOTTOM_INFLOW_1"
1 5 "BOTTOM_INFLOW_2"
2 1 "surface1"
2 2 "surface2"
$EndPhysicalNames
$Entities
6 7 2 0
1 -1 0.4 0 -1 0.4 0 0 
2 0.09999999999999998 0.4 0 0.09999999999999998 0.4 0 0 
3 1 0.4 0 1 0.4 0 0 
4 1 0.6 0 1 0.6 0 0 
5 -0.09999999999999998 0.6 0 -0.09999999999999998 0.6 0 0 
6 -1 0.6 0 -1 0.6 0 0 
1 -1 0.4 0 0.1000000000000001 0.4 0 1 4 2 1 -2 
2 0.09999999999999998 0.4 0 1 0.4 0 1 5 2 2 -3 
3 1 0.4 0 1 0.6 0 0 2 3 -4 
4 -0.1000000000000001 0.6 0 1 0.6 0 0 2 4 -5 
5 -1 0.6 0 -0.09999999999999998 0.6 0 0 2 5 -6 
6 -1 0.4 0 -1 0.6 0 1 3 2 6 -1 
7 -0.09999999999999998 0.4 0 0.09999999999999998 0.6 0 0 2 2 -5 
1 -1 0.4 0 0.1000000000000001 0.6 0 1 1 4 1 7 5 6 
2 -0.1000000000000001 0.4 0 1 0.6 0 1 2 4 2 3 4 -7 
$EndEntities
$Nodes
15 115
1 0 0 1
1 -1 0.4 0
2 0 0 1
2 0.09999999999999998 0.4 0
3 0 0 1
3 1 0.4 0
4 0 0 1
4 1 0.6 0
5 0 0 1
5 -0.09999999999999998 0.6 0
6 0 0 1
6 -1 0.6 0
1 1 0 13
7 -0.9214285714286923 0.4 0
8 -0.8428571428574124 0.4 0
9 -0.7642857142861729 0.4 0
10 -0.6857142857150325 0.4 0
11 -0.6071428571438673 0.4 0
12 -0.5285714285726741 0.4 0
13 -0.4500000000014531 0.4 0
14 -0.3714285714298172 0.4 0
15 -0.2928571428581964 0.4 0
16 -0.2142857142865663 0.4 0
17 -0.1357142857149299 0.4 0
18 -0.0571428571432997 0.4 0
19 0.02142857142825894 0.4 0
2 1 0 11
20 0.1749999999998676 0.4 0
21 0.2499999999996972 0.4 0
22 0.3249999999994835 0.4 0
23 0.3999999999992697 0.4 0
24 0.474999999999056 0.4 0
25 0.5499999999988532 0.4 0
26 0.6249999999989934 0.4 0
27 0.6999999999991986 0.4 0
28 0.7749999999994042 0.4 0
29 0.8499999999995955 0.4 0
30 0.9249999999997941 0.4 0
3 1 0 2
31 1 0.4666666666665005 0
32 1 0.5333333333331743 0
4 1 0 13
33 0.9214285714286923 0.6 0
34 0.8428571428574124 0.6 0
35 0.7642857142861729 0.6 0
36 0.6857142857150325 0.6 0
37 0.6071428571438673 0.6 0
38 0.5285714285726741 0.6 0
39 0.4500000000014531 0.6 0
40 0.3714285714298172 0.6 0
41 0.2928571428581964 0.6 0
42 0.2142857142865663 0.6 0
43 0.1357142857149299 0.6 0
44 0.0571428571432997 0.6 0
45 -0.02142857142825894 0.6 0
5 1 0 11
46 -0.1749999999998676 0.6 0
47 -0.2499999999996972 0.6 0
48 -0.3249999999994835 0.6 0
49 -0.3999999999992697 0.6 0
50 -0.474999999999056 0.6 0
51 -0.5499999999988532 0.6 0
52 -0.6249999999989934 0.6 0
53 -0.6999999999991986 0.6 0
54 -0.7749999999994042 0.6 0
55 -0.8499999999995955 0.6 0
56 -0.9249999999997941 0.6 0
6 1 0 2
57 -1 0.5333333333333983 0
58 -1 0.4666666666668617 0
7 1 0 3
59 0.05000000000011591 0.4499999999998841 0
60 2.439021207223391e-13 0.4999999999997561 0
61 -0.04999999999987462 0.5499999999998746 0
1 2 0 27
62 -0.9422649730811501 0.5000000000001301 0
63 -0.8124999999994997 0.5350480947160013 0
64 -0.6624999999990958 0.5350480947160176 0
65 -0.5138945082397745 0.5348781418059776 0
66 -0.3643183863948639 0.5345707641677262 0
67 -0.2086638935196127 0.5343349162037203 0
68 -0.1264195032949414 0.5270169826589617 0
69 -0.7166666666668077 0.4664463730705838 0
70 -0.5621371799452921 0.4665563997439333 0
71 -0.4070154720195952 0.4669269903564248 0
72 -0.1756692537312932 0.4635440275125309 0
73 -0.2520366182112125 0.4669986212226354 0
74 -0.2876986610667038 0.5347083693225194 0
75 -0.05864085589314631 0.4793270529657326 0
76 -0.3294383118485736 0.4667895407862204 0
77 -0.4415856801566038 0.5333635050803555 0
78 -0.4854154741933745 0.4660544474942263 0
79 -0.5916619356677232 0.5345455060407862 0
80 -0.6419431544703614 0.4649770139171441 0
81 -0.7413467768054229 0.5358757480216743 0
82 -0.8006850213296567 0.4634052322881296 0
83 -0.877241738447101 0.4652286031420865 0
84 -0.8928732471931525 0.5421904554351212 0
85 -0.008871028321565451 0.4458654105930746 0
86 -0.9502327716317753 0.5528660347525106 0
87 -0.9497354831583631 0.4462726363457817 0
88 -0.1120440213966094 0.4533746984647012 0
2 2 0 27
89 0.9422649730811062 0.4999999999998374 0
90 0.8124999999994997 0.4649519052839987 0
91 0.6624999999990958 0.4649519052839825 0
92 0.5138945082397745 0.4651218581940224 0
93 0.3643183863948639 0.4654292358322737 0
94 0.2086638935195533 0.4656650837961991 0
95 0.1264195032949464 0.4729830173409164 0
96 0.7166666666668077 0.5335536269294162 0
97 0.5621371799452921 0.5334436002560665 0
98 0.4070154720195952 0.533073009643575 0
99 0.1756692537312609 0.5364559724874505 0
100 0.2520366182112016 0.5330013787773529 0
101 0.2876986610667008 0.4652916306774765 0
102 0.05864085589334829 0.5206729470341221 0
103 0.3294383118485728 0.5332104592137785 0
104 0.4415856801566038 0.4666364949196444 0
105 0.4854154741933745 0.5339455525057735 0
106 0.5916619356677232 0.4654544939592138 0
107 0.6419431544703613 0.5350229860828557 0
108 0.7413467768054229 0.4641242519783256 0
109 0.8006850213296562 0.5365947677118705 0
110 0.8772417384470902 0.5347713968579201 0
111 0.8928732471931405 0.4578095445648724 0
112 0.008871028321751668 0.5541345894067505 0
113 0.9502327716317583 0.4471339652474788 0
114 0.9497354831583302 0.5537273636541905 0
115 0.1120440213965944 0.5466253015352841 0
$EndNodes
$Elements
15 238
1 0 15 1
1 1 
2 0 15 1
2 2 
3 0 15 1
3 3 
4 0 15 1
4 4 
5 0 15 1
5 5 
6 0 15 1
6 6 
1 1 1 14
7 1 7 
8 7 8 
9 8 9 
10 9 10 
11 10 11 
12 11 12 
13 12 13 
14 13 14 
15 14 15 
16 15 16 
17 16 17 
18 17 18 
19 18 19 
20 19 2 
2 1 1 12
21 2 20 
22 20 21 
23 21 22 
24 22 23 
25 23 24 
26 24 25 
27 25 26 
28 26 27 
29 27 28 
30 28 29 
31 29 30 
32 30 3 
3 1 1 3
33 3 31 
34 31 32 
35 32 4 
4 1 1 14
36 4 33 
37 33 34 
38 34 35 
39 35 36 
40 36 37 
41 37 38 
42 38 39 
43 39 40 
44 40 41 
45 41 42 
46 42 43 
47 43 44 
48 44 45 
49 45 5 
5 1 1 12
50 5 46 
51 46 47 
52 47 48 
53 48 49 
54 49 50 
55 50 51 
56 51 52 
57 52 53 
58 53 54 
59 54 55 
60 55 56 
61 56 6 
6 1 1 3
62 6 57 
63 57 58 
64 58 1 
7 1 1 4
65 2 59 
66 59 60 
67 60 61 
68 61 5 
1 2 2 85
69 46 67 68 
70 81 63 82 
71 69 81 82 
72 2 59 19 
73 68 67 72 
74 79 64 80 
75 70 79 80 
76 83 63 84 
77 82 63 83 
78 5 46 68 
79 16 72 73 
80 64 69 80 
81 69 64 81 
82 71 77 78 
83 72 67 73 
84 77 65 78 
85 65 70 78 
86 75 18 85 
87 66 71 76 
88 16 17 72 
89 70 65 79 
90 18 19 85 
91 71 14 76 
92 71 66 77 
93 74 66 76 
94 13 14 71 
95 15 16 73 
96 11 12 70 
97 9 10 69 
98 73 74 76 
99 73 67 74 
100 13 71 78 
101 70 12 78 
102 52 53 64 
103 54 55 63 
104 50 51 65 
105 46 47 67 
106 48 49 66 
107 47 48 74 
108 14 15 76 
109 11 70 80 
110 69 10 80 
111 7 8 83 
112 9 69 82 
113 67 47 74 
114 48 66 74 
115 15 73 76 
116 61 5 68 
117 50 65 77 
118 66 49 77 
119 60 61 75 
120 49 50 77 
121 55 56 84 
122 52 64 79 
123 65 51 79 
124 64 53 81 
125 54 63 81 
126 12 13 78 
127 51 52 79 
128 18 75 88 
129 61 68 75 
130 53 54 81 
131 10 11 80 
132 68 72 88 
133 8 9 82 
134 57 58 62 
135 62 83 84 
136 63 55 84 
137 60 75 85 
138 8 82 83 
139 1 7 87 
140 75 68 88 
141 59 60 85 
142 56 6 86 
143 7 83 87 
144 17 18 88 
145 6 57 86 
146 58 1 87 
147 83 62 87 
148 84 56 86 
149 19 59 85 
150 62 84 86 
151 72 17 88 
152 57 62 86 
153 62 58 87 
2 2 2 85
154 20 94 95 
155 108 90 109 
156 96 108 109 
157 61 45 5 
158 95 94 99 
159 106 91 107 
160 97 106 107 
161 110 90 111 
162 109 90 110 
163 2 20 95 
164 42 99 100 
165 91 96 107 
166 96 91 108 
167 98 104 105 
168 99 94 100 
169 104 92 105 
170 92 97 105 
171 102 44 112 
172 93 98 103 
173 42 43 99 
174 97 92 106 
175 44 45 112 
176 98 40 103 
177 98 93 104 
178 101 93 103 
179 39 40 98 
180 41 42 100 
181 37 38 97 
182 35 36 96 
183 100 101 103 
184 100 94 101 
185 39 98 105 
186 97 38 105 
187 26 27 91 
188 28 29 90 
189 24 25 92 
190 20 21 94 
191 22 23 93 
192 21 22 101 
193 40 41 103 
194 37 97 107 
195 96 36 107 
196 33 34 110 
197 35 96 109 
198 94 21 101 
199 22 93 101 
200 41 100 103 
201 59 2 95 
202 24 92 104 
203 93 23 104 
204 60 59 102 
205 23 24 104 
206 29 30 111 
207 26 91 106 
208 92 25 106 
209 91 27 108 
210 28 90 108 
211 38 39 105 
212 25 26 106 
213 44 102 115 
214 59 95 102 
215 27 28 108 
216 36 37 107 
217 95 99 115 
218 34 35 109 
219 31 32 89 
220 89 110 111 
221 90 29 111 
222 60 102 112 
223 34 109 110 
224 4 33 114 
225 102 95 115 
226 61 60 112 
227 30 3 113 
228 33 110 114 
229 43 44 115 
230 3 31 113 
231 32 4 114 
232 110 89 114 
233 111 30 113 
234 45 61 112 
235 89 111 113 
236 99 43 115 
237 31 89 113 
238 89 32 114 
$EndElements
