$MeshFormat
4 0 8
$EndMeshFormat
$PhysicalNames
5
1 3 "LEFT_INFLOW"
1 4 "BOTTOM_INFLOW_1"
1 5 "BOTTOM_INFLOW_2"
2 1 "surface1"
2 2 "surface2"
$EndPhysicalNames
$Entities
6 7 2 0
1 -1 0 0 -1 0 0 0 
2 0.5 0 0 0.5 0 0 0 
3 1 0 0 1 0 0 0 
4 1 0.2 0 1 0.2 0 0 
5 0.3 0.2 0 0.3 0.2 0 0 
6 -1 0.2 0 -1 0.2 0 0 
1 -1 0 0 0.5 0 0 1 4 2 1 -2 
2 0.5 0 0 1 0 0 1 5 2 2 -3 
3 1 0 0 1 0.2 0 0 2 3 -4 
4 0.3 0.2 0 1 0.2 0 0 2 4 -5 
5 -1 0.2 0 0.2999999999999999 0.2 0 0 2 5 -6 
6 -1 0 0 -1 0.2 0 1 3 2 6 -1 
7 0.3 0 0 0.5 0.2 0 0 2 2 -5 
1 -1 0 0 0.5 0.2 0 1 1 4 1 7 5 6 
2 0.3 0 0 1 0.2 0 1 2 4 2 3 4 -7 
$EndEntities
$Nodes
15 115
1 0 0 1
1 -1 0 0
2 0 0 1
2 0.5 0 0
3 0 0 1
3 1 0 0
4 0 0 1
4 1 0.2 0
5 0 0 1
5 0.3 0.2 0
6 0 0 1
6 -1 0.2 0
1 1 0 18
7 -0.9210526315792393 0 0
8 -0.8421052631584786 0 0
9 -0.7631578947377179 0 0
10 -0.6842105263169573 0 0
11 -0.6052631578961967 0 0
12 -0.5263157894754361 0 0
13 -0.4473684210546754 0 0
14 -0.3684210526339149 0 0
15 -0.2894736842131542 0 0
16 -0.2105263157921015 0 0
17 -0.1315789473707568 0 0
18 -0.05263157894941228 0 0
19 0.02631578947193236 0 0
20 0.105263157893277 0 0
21 0.1842105263146214 0 0
22 0.2631578947359661 0 0
23 0.3421052631573107 0 0
24 0.4210526315786554 0 0
2 1 0 6
25 0.5714285714285713 0 0
26 0.6428571428571426 0 0
27 0.714285714285714 0 0
28 0.7857142857142855 0 0
29 0.857142857142857 0 0
30 0.9285714285714286 0 0
3 1 0 2
31 1 0.06666666666650209 0
32 1 0.1333333333331544 0
4 1 0 8
33 0.9222222222224341 0.2 0
34 0.8444444444448562 0.2 0
35 0.7666666666672662 0.2 0
36 0.6888888888896931 0.2 0
37 0.6111111111118672 0.2 0
38 0.5333333333338391 0.2 0
39 0.4555555555559121 0.2 0
40 0.3777777777779562 0.2 0
5 1 0 16
41 0.2235294117648445 0.2 0
42 0.147058823529651 0.2 0
43 0.07058823529453448 0.2 0
44 -0.005882352940555668 0.2 0
45 -0.08235294117563491 0.2 0
46 -0.1588235294107357 0.2 0
47 -0.2352941176458476 0.2 0
48 -0.3117647058808835 0.2 0
49 -0.388235294116186 0.2 0
50 -0.464705882351727 0.2 0
51 -0.541176470587194 0.2 0
52 -0.6176470588226823 0.2 0
53 -0.6941176470581147 0.2 0
54 -0.7705882352936184 0.2 0
55 -0.8470588235290815 0.2 0
56 -0.9235294117645394 0.2 0
6 1 0 2
57 -1 0.1333333333335177 0
58 -1 0.06666666666685275 0
7 1 0 3
59 0.4500000000001289 0.04999999999987111 0
60 0.400000000000267 0.09999999999973298 0
61 0.3500000000001315 0.1499999999998685 0
1 2 0 37
62 -0.942264973081118 0.1000000000001852 0
63 -0.8138482585765299 0.1335932270204578 0
64 -0.6653250773992527 0.1347307773555178 0
65 -0.5107327141381146 0.1346439670718403 0
66 -0.3561403508770369 0.1345255894122911 0
67 -0.2015479876161985 0.134375644376857 0
68 -0.04639477744006425 0.1344566871269249 0
69 0.1080763620775023 0.1342229805369273 0
70 0.2236842105252937 0.06837042661481374 0
71 -0.715402476780745 0.06615302503669743 0
72 -0.558883728931053 0.06620622062526374 0
73 -0.4023649810813622 0.06628422785973312 0
74 0.2706177389321842 0.1270830496370585 0
75 -0.2458462332316305 0.066387046740099 0
76 -0.08867316398046035 0.06685372717191451 0
77 0.06755770896952672 0.06750210712278375 0
78 0.1867235213272437 0.1329322841340944 0
79 0.3374032753724446 0.07939348349312476 0
80 0.1469957459396034 0.0677230715577814 0
81 0.03069206045217152 0.1337665756572165 0
82 -0.01052232691271771 0.06709651617980661 0
83 -0.1248075052007538 0.1332128821013371 0
84 -0.1671633588653169 0.06680488339836793 0
85 -0.2799234606125219 0.1330013732936416 0
86 -0.3236949604416034 0.06669970621762747 0
87 -0.4348368879715803 0.1329143158548902 0
88 -0.8926031795065793 0.1416877388524333 0
89 -0.878883797528221 0.06332256412047142 0
90 -0.4800837537753703 0.06667478856862122 0
91 -0.5897503153308123 0.132851442273943 0
92 -0.6364725471091695 0.06665691088190365 0
93 -0.7436522123427263 0.1326139536769616 0
94 -0.8000831802529291 0.06244066694626486 0
95 0.3838002318988499 0.04441937390187114 0
96 0.2838299342909999 0.05516660445446135 0
97 -0.9500338125599865 0.1532106419734853 0
98 -0.9496803833560834 0.04617720068884662 0
2 2 0 17
99 0.9422649730811149 0.09999999999982827 0
100 0.8214285714285711 0.06185895741317425 0
101 0.6785714285714284 0.06185895741317411 0
102 0.5756566227938594 0.1337385770972958 0
103 0.7264453584832944 0.1324385680533759 0
104 0.4603140782131592 0.11844027946455 0
105 0.5259974506302929 0.07285096958525746 0
106 0.6479693778321665 0.1316491766628366 0
107 0.60708009901891 0.066682946793094 0
108 0.7499999999999997 0.0618589574131736 0
109 0.8000500664065644 0.1329401582908843 0
110 0.8812708485312963 0.1296785095727245 0
111 0.8968932496734523 0.05657457892226454 0
112 0.4087294823094852 0.1536880558928303 0
113 0.9506808192854461 0.04791000654786028 0
114 0.9491516087669691 0.1526023685811415 0
115 0.5137315469109944 0.1454531527685998 0
$EndNodes
$Elements
15 238
1 0 15 1
1 1 
2 0 15 1
2 2 
3 0 15 1
3 3 
4 0 15 1
4 4 
5 0 15 1
5 5 
6 0 15 1
6 6 
1 1 1 19
7 1 7 
8 7 8 
9 8 9 
10 9 10 
11 10 11 
12 11 12 
13 12 13 
14 13 14 
15 14 15 
16 15 16 
17 16 17 
18 17 18 
19 18 19 
20 19 20 
21 20 21 
22 21 22 
23 22 23 
24 23 24 
25 24 2 
2 1 1 7
26 2 25 
27 25 26 
28 26 27 
29 27 28 
30 28 29 
31 29 30 
32 30 3 
3 1 1 3
33 3 31 
34 31 32 
35 32 4 
4 1 1 9
36 4 33 
37 33 34 
38 34 35 
39 35 36 
40 36 37 
41 37 38 
42 38 39 
43 39 40 
44 40 5 
5 1 1 17
45 5 41 
46 41 42 
47 42 43 
48 43 44 
49 44 45 
50 45 46 
51 46 47 
52 47 48 
53 48 49 
54 49 50 
55 50 51 
56 51 52 
57 52 53 
58 53 54 
59 54 55 
60 55 56 
61 56 6 
6 1 1 3
62 6 57 
63 57 58 
64 58 1 
7 1 1 4
65 2 59 
66 59 60 
67 60 61 
68 61 5 
1 2 2 115
69 93 63 94 
70 71 93 94 
71 74 41 78 
72 70 74 78 
73 2 59 24 
74 91 64 92 
75 72 91 92 
76 63 88 89 
77 63 89 94 
78 87 65 90 
79 73 87 90 
80 5 41 74 
81 64 71 92 
82 71 64 93 
83 75 85 86 
84 85 66 86 
85 65 72 90 
86 72 65 91 
87 76 83 84 
88 83 67 84 
89 66 73 86 
90 73 66 87 
91 68 76 82 
92 67 75 84 
93 76 18 82 
94 77 20 80 
95 69 77 80 
96 75 67 85 
97 15 16 75 
98 17 18 76 
99 21 22 70 
100 13 14 73 
101 9 10 71 
102 11 12 72 
103 24 59 95 
104 81 68 82 
105 20 21 80 
106 19 20 77 
107 59 60 95 
108 76 68 83 
109 74 70 96 
110 48 49 66 
111 54 55 63 
112 50 51 65 
113 52 53 64 
114 46 47 67 
115 42 43 69 
116 44 45 68 
117 23 79 96 
118 41 42 78 
119 77 81 82 
120 42 69 78 
121 75 16 84 
122 17 76 84 
123 23 24 95 
124 18 19 82 
125 77 69 81 
126 21 70 80 
127 15 75 86 
128 73 14 86 
129 69 43 81 
130 44 68 81 
131 13 73 90 
132 72 12 90 
133 61 5 74 
134 43 44 81 
135 71 10 92 
136 11 72 92 
137 78 69 80 
138 9 71 94 
139 55 56 88 
140 46 67 83 
141 68 45 83 
142 60 61 79 
143 70 78 80 
144 48 66 85 
145 67 47 85 
146 19 77 82 
147 66 49 87 
148 50 65 87 
149 65 51 91 
150 52 64 91 
151 45 46 83 
152 64 53 93 
153 54 63 93 
154 7 8 89 
155 16 17 84 
156 47 48 85 
157 61 74 79 
158 14 15 86 
159 49 50 87 
160 22 23 96 
161 57 58 62 
162 12 13 90 
163 51 52 91 
164 63 55 88 
165 88 62 89 
166 53 54 93 
167 10 11 92 
168 79 23 95 
169 8 9 94 
170 89 8 94 
171 1 7 98 
172 56 6 97 
173 6 57 97 
174 79 74 96 
175 58 1 98 
176 88 56 97 
177 7 89 98 
178 89 62 98 
179 60 79 95 
180 62 88 97 
181 70 22 96 
182 57 62 97 
183 62 58 98 
2 2 2 55
184 104 59 105 
185 61 40 5 
186 109 100 110 
187 59 2 105 
188 110 100 111 
189 101 103 106 
190 108 100 109 
191 103 108 109 
192 104 105 115 
193 106 102 107 
194 103 101 108 
195 101 106 107 
196 104 39 112 
197 102 105 107 
198 105 102 115 
199 39 40 112 
200 103 36 106 
201 37 102 106 
202 33 34 110 
203 37 38 102 
204 35 36 103 
205 36 37 106 
206 39 104 115 
207 34 35 109 
208 35 103 109 
209 2 25 105 
210 25 26 107 
211 26 27 101 
212 28 29 100 
213 27 28 108 
214 34 109 110 
215 60 59 104 
216 105 25 107 
217 99 110 111 
218 26 101 107 
219 101 27 108 
220 28 100 108 
221 29 30 111 
222 31 32 99 
223 33 110 114 
224 38 39 115 
225 60 104 112 
226 4 33 114 
227 100 29 111 
228 61 60 112 
229 110 99 114 
230 30 3 113 
231 3 31 113 
232 32 4 114 
233 40 61 112 
234 111 30 113 
235 102 38 115 
236 99 111 113 
237 31 99 113 
238 99 32 114 
$EndElements
