$MeshFormat
4 0 8
$EndMeshFormat
$PhysicalNames
5
1 3 "LEFT_INFLOW"
1 4 "BOTTOM_INFLOW_1"
1 5 "BOTTOM_INFLOW_2"
2 1 "surface1"
2 2 "surface2"
$EndPhysicalNames
$Entities
6 7 2 0
1 -1 0.2 0 -1 0.2 0 0 
2 0.3 0.2 0 0.3 0.2 0 0 
3 1 0.2 0 1 0.2 0 0 
4 1 0.4 0 1 0.4 0 0 
5 0.09999999999999998 0.4 0 0.09999999999999998 0.4 0 0 
6 -1 0.4 0 -1 0.4 0 0 
1 -1 0.2 0 0.3 0.2 0 1 4 2 1 -2 
2 0.3 0.2 0 1 0.2 0 1 5 2 2 -3 
3 1 0.2 0 1 0.4 0 0 2 3 -4 
4 0.09999999999999998 0.4 0 1 0.4 0 0 2 4 -5 
5 -1 0.4 0 0.1 0.4 0 0 2 5 -6 
6 -1 0.2 0 -1 0.4 0 1 3 2 6 -1 
7 0.09999999999999998 0.2 0 0.3 0.4 0 0 2 2 -5 
1 -1 0.2 0 0.3 0.4 0 1 1 4 1 7 5 6 
2 0.09999999999999998 0.2 0 1 0.4 0 1 2 4 2 3 4 -7 
$EndEntities
$Nodes
15 114
1 0 0 1
1 -1 0.2 0
2 0 0 1
2 0.3 0.2 0
3 0 0 1
3 1 0.2 0
4 0 0 1
4 1 0.4 0
5 0 0 1
5 0.09999999999999998 0.4 0
6 0 0 1
6 -1 0.4 0
1 1 0 16
7 -0.9235294117648167 0.2 0
8 -0.8470588235296348 0.2 0
9 -0.7705882352945065 0.2 0
10 -0.6941176470594865 0.2 0
11 -0.6176470588244016 0.2 0
12 -0.541176470589295 0.2 0
13 -0.4647058823541667 0.2 0
14 -0.3882352941191466 0.2 0
15 -0.31176470588386 0.2 0
16 -0.2352941176483351 0.2 0
17 -0.1588235294128406 0.2 0
18 -0.08235294117731695 0.2 0
19 -0.005882352941821267 0.2 0
20 0.07058823529366642 0.2 0
21 0.1470588235291135 0.2 0
22 0.2235294117645554 0.2 0
2 1 0 8
23 0.3777777777776321 0.2 0
24 0.4555555555552051 0.2 0
25 0.5333333333326684 0.2 0
26 0.6111111111102246 0.2 0
27 0.6888888888879783 0.2 0
28 0.7666666666659077 0.2 0
29 0.844444444443837 0.2 0
30 0.9222222222219403 0.2 0
3 1 0 2
31 1 0.2666666666664861 0
32 1 0.3333333333331455 0
4 1 0 11
33 0.9250000000001337 0.4 0
34 0.8500000000003542 0.4 0
35 0.7750000000006181 0.4 0
36 0.7000000000008531 0.4 0
37 0.6250000000010376 0.4 0
38 0.5500000000012146 0.4 0
39 0.4750000000009726 0.4 0
40 0.4000000000007742 0.4 0
41 0.3250000000005755 0.4 0
42 0.2500000000003909 0.4 0
43 0.1750000000001991 0.4 0
5 1 0 13
44 0.02142857142872633 0.4 0
45 -0.05714285714255971 0.4 0
46 -0.1357142857137424 0.4 0
47 -0.2142857142849081 0.4 0
48 -0.2928571428561038 0.4 0
49 -0.3714285714272779 0.4 0
50 -0.4499999999985063 0.4 0
51 -0.5285714285701418 0.4 0
52 -0.6071428571417623 0.4 0
53 -0.6857142857133921 0.4 0
54 -0.764285714285028 0.4 0
55 -0.8428571428566577 0.4 0
56 -0.9214285714282161 0.4 0
6 1 0 2
57 -1 0.3333333333335212 0
58 -1 0.266666666666851 0
7 1 0 3
59 0.2500000000001369 0.2499999999998631 0
60 0.200000000000271 0.299999999999729 0
61 0.1500000000001423 0.3499999999998578 0
1 2 0 31
62 -0.9422649730811172 0.3000000000001861 0
63 -0.8139368482447655 0.2663989863059078 0
64 -0.6658263305324197 0.265348204157454 0
65 -0.5114845938378738 0.2654103579951651 0
66 -0.3571428571433906 0.2654951132284225 0
67 -0.2028011204486972 0.2656024698571154 0
68 -0.04778553352902552 0.2656963510062018 0
69 0.06760562286912822 0.3382307361858353 0
70 -0.7163632119510426 0.3338860866460863 0
71 -0.5603874883280878 0.3338476395011925 0
72 0.123426530480913 0.2714087585213016 0
73 -0.4044117647053077 0.3337912676476696 0
74 -0.2484360410828037 0.3337169710854549 0
75 -0.09167415886457317 0.3332885670157186 0
76 0.03235641011085887 0.2682764296045451 0
77 -0.01290067199356467 0.3342698381435403 0
78 -0.1264062139052964 0.2669416604569355 0
79 -0.1698862557166701 0.333258278069204 0
80 -0.2812636165581295 0.2670839971402078 0
81 -0.3259233322955021 0.333347891516959 0
82 -0.8926349385961539 0.2582822395930074 0
83 -0.8789857623966554 0.3365050932251551 0
84 -0.4358776844073682 0.2671468420211342 0
85 -0.4817888266412141 0.3333660178608602 0
86 -0.5904917522566091 0.2671922383786576 0
87 -0.6376543209872189 0.3333790281138983 0
88 -0.744067283608844 0.2674019086445714 0
89 -0.8009278855990749 0.3375427097726373 0
90 0.188802953154998 0.2442817517041787 0
91 -0.9500338125599332 0.2467893580267959 0
92 -0.9497354831583459 0.3537273636545171 0
2 2 0 22
93 0.9422649730811188 0.2999999999998156 0
94 0.8125000000004863 0.3350480947163955 0
95 0.6625000000009452 0.3350480947163487 0
96 0.5125000000010936 0.3350480947161577 0
97 0.3715848198673963 0.3362612465864332 0
98 0.7185185185182565 0.2663796720401144 0
99 0.5648148148146918 0.266463821059291 0
100 0.2590848198672491 0.319505504419769 0
101 0.4126252477556432 0.2667875616209911 0
102 0.3260751469878539 0.2744902697560463 0
103 0.4399996666714623 0.3359567517721673 0
104 0.490376583174136 0.2652972034992474 0
105 0.5922398589072365 0.3345836716097568 0
106 0.6426277609806162 0.265771795491906 0
107 0.7416729654830159 0.3358035517989647 0
108 0.8024733072480511 0.2633682331266666 0
109 0.8784861476448332 0.2645445050859723 0
110 0.8930806487264411 0.3420764390924049 0
111 0.2068169639736505 0.3539011008838711 0
112 0.9502327716317207 0.3528660347522463 0
113 0.9498501072759169 0.2464711711408882 0
114 0.3088490747172126 0.347435651424034 0
$EndNodes
$Elements
15 236
1 0 15 1
1 1 
2 0 15 1
2 2 
3 0 15 1
3 3 
4 0 15 1
4 4 
5 0 15 1
5 5 
6 0 15 1
6 6 
1 1 1 17
7 1 7 
8 7 8 
9 8 9 
10 9 10 
11 10 11 
12 11 12 
13 12 13 
14 13 14 
15 14 15 
16 15 16 
17 16 17 
18 17 18 
19 18 19 
20 19 20 
21 20 21 
22 21 22 
23 22 2 
2 1 1 9
24 2 23 
25 23 24 
26 24 25 
27 25 26 
28 26 27 
29 27 28 
30 28 29 
31 29 30 
32 30 3 
3 1 1 3
33 3 31 
34 31 32 
35 32 4 
4 1 1 12
36 4 33 
37 33 34 
38 34 35 
39 35 36 
40 36 37 
41 37 38 
42 38 39 
43 39 40 
44 40 41 
45 41 42 
46 42 43 
47 43 5 
5 1 1 14
48 5 44 
49 44 45 
50 45 46 
51 46 47 
52 47 48 
53 48 49 
54 49 50 
55 50 51 
56 51 52 
57 52 53 
58 53 54 
59 54 55 
60 55 56 
61 56 6 
6 1 1 3
62 6 57 
63 57 58 
64 58 1 
7 1 1 4
65 2 59 
66 59 60 
67 60 61 
68 61 5 
1 2 2 98
69 63 88 89 
70 88 70 89 
71 64 86 87 
72 86 71 87 
73 2 59 22 
74 82 63 83 
75 20 21 72 
76 61 69 72 
77 65 84 85 
78 83 63 89 
79 84 73 85 
80 72 21 90 
81 60 72 90 
82 20 72 76 
83 61 5 69 
84 60 61 72 
85 80 74 81 
86 66 80 81 
87 70 64 87 
88 64 70 88 
89 71 65 85 
90 78 75 79 
91 67 78 79 
92 65 71 86 
93 73 66 81 
94 72 69 76 
95 66 73 84 
96 75 68 77 
97 74 67 79 
98 67 74 80 
99 45 75 77 
100 5 44 69 
101 21 22 90 
102 68 76 77 
103 76 69 77 
104 68 75 78 
105 53 54 70 
106 51 52 71 
107 49 50 73 
108 47 48 74 
109 45 46 75 
110 14 15 66 
111 16 17 67 
112 18 19 68 
113 8 9 63 
114 12 13 65 
115 10 11 64 
116 68 19 76 
117 19 20 76 
118 47 74 79 
119 75 46 79 
120 44 45 77 
121 49 73 81 
122 74 48 81 
123 51 71 85 
124 73 50 85 
125 53 70 87 
126 71 52 87 
127 70 54 89 
128 7 8 82 
129 67 17 78 
130 18 68 78 
131 16 67 80 
132 66 15 80 
133 14 66 84 
134 65 13 84 
135 12 65 86 
136 64 11 86 
137 63 9 88 
138 10 64 88 
139 55 56 83 
140 17 18 78 
141 46 47 79 
142 15 16 80 
143 69 44 77 
144 48 49 81 
145 13 14 84 
146 57 58 62 
147 8 63 82 
148 50 51 85 
149 11 12 86 
150 62 82 83 
151 9 10 88 
152 52 53 87 
153 54 55 89 
154 59 60 90 
155 56 6 92 
156 55 83 89 
157 1 7 91 
158 58 1 91 
159 6 57 92 
160 7 82 91 
161 22 59 90 
162 83 56 92 
163 62 83 92 
164 82 62 91 
165 62 58 91 
166 57 62 92 
2 2 2 70
167 94 107 108 
168 100 59 102 
169 107 98 108 
170 61 43 5 
171 95 105 106 
172 105 99 106 
173 59 2 102 
174 94 109 110 
175 94 108 109 
176 100 102 114 
177 98 95 106 
178 103 101 104 
179 96 103 104 
180 95 98 107 
181 99 96 104 
182 101 97 102 
183 96 99 105 
184 100 42 111 
185 97 101 103 
186 102 97 114 
187 2 23 102 
188 42 100 114 
189 23 101 102 
190 42 43 111 
191 27 28 98 
192 23 24 101 
193 25 26 99 
194 38 39 96 
195 40 41 97 
196 36 37 95 
197 34 35 94 
198 101 24 104 
199 25 99 104 
200 27 98 106 
201 99 26 106 
202 98 28 108 
203 29 30 109 
204 60 59 100 
205 96 39 103 
206 40 97 103 
207 33 34 110 
208 38 96 105 
209 95 37 105 
210 36 95 107 
211 94 35 107 
212 39 40 103 
213 37 38 105 
214 24 25 104 
215 35 36 107 
216 26 27 106 
217 28 29 108 
218 109 93 110 
219 31 32 93 
220 61 60 111 
221 60 100 111 
222 34 94 110 
223 41 42 114 
224 108 29 109 
225 30 3 113 
226 4 33 112 
227 109 30 113 
228 32 4 112 
229 3 31 113 
230 43 61 111 
231 93 109 113 
232 33 110 112 
233 110 93 112 
234 97 41 114 
235 93 32 112 
236 31 93 113 
$EndElements
