$MeshFormat
4 0 8
$EndMeshFormat
$PhysicalNames
5
1 3 "LEFT_INFLOW"
1 4 "BOTTOM_INFLOW_1"
1 5 "BOTTOM_INFLOW_2"
2 1 "surface1"
2 2 "surface2"
$EndPhysicalNames
$Entities
6 7 2 0
1 -1 0 0 -1 0 0 0 
2 -0.1 0 0 -0.1 0 0 0 
3 1 0 0 1 0 0 0 
4 1 0.2 0 1 0.2 0 0 
5 0.1 0.2 0 0.1 0.2 0 0 
6 -1 0.2 0 -1 0.2 0 0 
1 -1 0 0 -0.09999999999999998 0 0 1 4 2 1 -2 
2 -0.1 0 0 1 0 0 1 5 2 2 -3 
3 1 0 0 1 0.2 0 0 2 3 -4 
4 0.09999999999999998 0.2 0 1 0.2 0 0 2 4 -5 
5 -1 0.2 0 0.1 0.2 0 0 2 5 -6 
6 -1 0 0 -1 0.2 0 1 3 2 6 -1 
7 -0.1 0 0 0.1 0.2 0 0 2 2 -5 
1 -1 0 0 0.1 0.2 0 1 1 4 1 7 5 6 
2 -0.1 0 0 1 0.2 0 1 2 4 2 3 4 -7 
$EndEntities
$Nodes
15 14
1 0 0 1
1 -1 0 0
2 0 0 1
2 -0.1 0 0
3 0 0 1
3 1 0 0
4 0 0 1
4 1 0.2 0
5 0 0 1
5 0.1 0.2 0
6 0 0 1
6 -1 0.2 0
1 1 0 1
7 -0.5500000000012147 0 0
2 1 0 2
8 0.266666666665716 0 0
9 0.6333333333323014 0 0
3 1 0 0
4 1 0 1
10 0.5500000000012147 0.2 0
5 1 0 2
11 -0.266666666665716 0.2 0
12 -0.6333333333323014 0.2 0
6 1 0 0
7 1 0 0
1 2 0 1
13 -0.795833333333379 0.1 0
2 2 0 1
14 0.7958333333333789 0.1 0
$EndNodes
$Elements
15 33
1 0 15 1
1 1 
2 0 15 1
2 2 
3 0 15 1
3 3 
4 0 15 1
4 4 
5 0 15 1
5 5 
6 0 15 1
6 6 
1 1 1 2
7 1 7 
8 7 2 
2 1 1 3
9 2 8 
10 8 9 
11 9 3 
3 1 1 1
12 3 4 
4 1 1 2
13 4 10 
14 10 5 
5 1 1 3
15 5 11 
16 11 12 
17 12 6 
6 1 1 1
18 6 1 
7 1 1 1
19 2 5 
1 2 2 7
20 11 2 5 
21 7 12 13 
22 6 1 13 
23 1 7 13 
24 12 6 13 
25 2 11 7 
26 7 11 12 
2 2 2 7
27 8 5 2 
28 10 9 14 
29 3 4 14 
30 9 3 14 
31 4 10 14 
32 10 5 8 
33 10 8 9 
$EndElements
