$MeshFormat
4 0 8
$EndMeshFormat
$PhysicalNames
5
1 3 "LEFT_INFLOW"
1 5 "BOTTOM_INFLOW_1"
1 6 "BOTTOM_INFLOW_2"
2 1 "surface1"
2 2 "surface2"
$EndPhysicalNames
$Entities
6 7 2 0
1 -0.5 0 0 -0.5 0 0 0 
2 -0.11 0 0 -0.11 0 0 0 
3 0.13 0.2 0 0.13 0.2 0 0 
4 -0.5 0.2 0 -0.5 0.2 0 0 
5 0.5 0 0 0.5 0 0 0 
6 0.5 0.2 0 0.5 0.2 0 0 
1 -0.5 0 0 -0.11 0 0 1 5 2 1 -2 
2 -0.11 0 0 0.13 0.2 0 0 2 2 -3 
3 -0.5 0.2 0 0.13 0.2 0 0 2 3 -4 
4 -0.5 0 0 -0.5 0.2 0 1 3 2 4 -1 
5 -0.11 0 0 0.5 0 0 1 6 2 5 -2 
6 0.5 0 0 0.5 0.2 0 0 2 6 -5 
7 0.13 0.2 0 0.5 0.2 0 0 2 3 -6 
1 -0.5 0 0 0.13 0.2 0 1 1 4 1 2 3 4 
2 -0.11 0 0 0.5 0.2 0 1 2 4 2 7 6 5 
$EndEntities
$Nodes
15 6
1 0 0 1
1 -0.5 0 0
2 0 0 1
2 -0.11 0 0
3 0 0 1
3 0.13 0.2 0
4 0 0 1
4 -0.5 0.2 0
5 0 0 1
5 0.5 0 0
6 0 0 1
6 0.5 0.2 0
1 1 0 0
2 1 0 0
3 1 0 0
4 1 0 0
5 1 0 0
6 1 0 0
7 1 0 0
1 2 0 0
2 2 0 0
$EndNodes
$Elements
15 17
1 0 15 1
1 1 
2 0 15 1
2 2 
3 0 15 1
3 3 
4 0 15 1
4 4 
5 0 15 1
5 5 
6 0 15 1
6 6 
1 1 1 1
7 1 2 
2 1 1 1
8 2 3 
3 1 1 1
9 3 4 
4 1 1 1
10 4 1 
5 1 1 1
11 5 2 
6 1 1 1
12 6 5 
7 1 1 1
13 3 6 
1 2 2 2
14 3 4 2 
15 4 1 2 
2 2 2 2
16 5 2 3 
17 6 5 3 
$EndElements
