$MeshFormat
4 0 8
$EndMeshFormat
$PhysicalNames
4
1 3 "LEFT_INFLOW"
1 4 "BOTTOM_INFLOW_1"
1 5 "BOTTOM_INFLOW_2"
2 1 "surface1"
$EndPhysicalNames
$Entities
5 5 1 0
1 -1 0 0 -1 0 0 0 
2 -0.1 0 0 -0.1 0 0 0 
3 1 0 0 1 0 0 0 
4 1 0.2 0 1 0.2 0 0 
5 -1 0.2 0 -1 0.2 0 0 
1 -1 0 0 -0.09999999999999998 0 0 1 4 2 1 -2 
2 -0.1 0 0 1 0 0 1 5 2 2 -3 
3 1 0 0 1 0.2 0 0 2 3 -4 
4 -1 0.2 0 1 0.2 0 0 2 4 -5 
5 -1 0 0 -1 0.2 0 1 3 2 5 -1 
1 -1 0 0 1 0.2 0 1 1 5 1 2 3 4 5 
$EndEntities
$Nodes
11 13
1 0 0 1
1 -1 0 0
2 0 0 1
2 -0.1 0 0
3 0 0 1
3 1 0 0
4 0 0 1
4 1 0.2 0
5 0 0 1
5 -1 0.2 0
1 1 0 1
6 -0.5500000000012147 0 0
2 1 0 2
7 0.266666666665716 0 0
8 0.6333333333323014 0 0
3 1 0 0
4 1 0 3
9 0.5000000000013871 0.2 0
10 2.752797989558076e-12 0.2 0
11 -0.4999999999986129 0.2 0
5 1 0 0
1 2 0 2
12 -0.7624999999999571 0.1 0
13 0.783333333333422 0.1 0
$EndNodes
$Elements
11 29
1 0 15 1
1 1 
2 0 15 1
2 2 
3 0 15 1
3 3 
4 0 15 1
4 4 
5 0 15 1
5 5 
1 1 1 2
6 1 6 
7 6 2 
2 1 1 3
8 2 7 
9 7 8 
10 8 3 
3 1 1 1
11 3 4 
4 1 1 4
12 4 9 
13 9 10 
14 10 11 
15 11 5 
5 1 1 1
16 5 1 
1 2 2 13
17 8 9 7 
18 9 8 13 
19 6 11 12 
20 5 1 12 
21 3 4 13 
22 1 6 12 
23 8 3 13 
24 4 9 13 
25 11 5 12 
26 9 10 7 
27 2 11 6 
28 10 2 7 
29 10 11 2 
$EndElements
