$MeshFormat
4 0 8
$EndMeshFormat
$PhysicalNames
11
1 5 "LEFT_INFLOW"
1 6 "RIGHT_INFLOW"
1 7 "BOTTOM_INFLOW_1"
1 8 "BOTTOM_INFLOW_2"
1 9 "ONE_WAVE"
1 10 "CONTACT_WAVE"
1 11 "THREE_WAVE"
2 1 "surface1"
2 2 "surface2"
2 3 "surface3"
2 4 "surface4"
$EndPhysicalNames
$Entities
8 11 4 0
1 -0.5 0 0 -0.5 0 0 0 
2 0 0 0 0 0 0 0 
3 0.5 0 0 0.5 0 0 0 
4 0.5 0.15 0 0.5 0.15 0 0 
5 0.2918179754024691 0.15 0 0.2918179754024691 0.15 0 0 
6 0.1191589661608625 0.15 0 0.1191589661608625 0.15 0 0 
7 -0.1502256360856596 0.15 0 -0.1502256360856596 0.15 0 0 
8 -0.5 0.15 0 -0.5 0.15 0 0 
1 -0.5 0 0 0 0 0 1 7 2 1 -2 
2 -0.1502256360856596 0 0 0 0.15 0 1 9 2 2 -7 
3 -0.5 0.15 0 -0.1502256360856596 0.15 0 0 2 7 -8 
4 -0.5 0 0 -0.5 0.15 0 1 5 2 8 -1 
5 0 0 0 0.5 0 0 1 8 2 3 -2 
6 0 0 0 0.2918179754024691 0.15 0 1 11 2 2 -5 
7 0.2918179754024691 0.15 0 0.5 0.15 0 0 2 5 -4 
8 0.5 0 0 0.5 0.15 0 1 6 2 4 -3 
9 0.1191589661608625 0.15 0 0.2918179754024691 0.15 0 0 2 5 -6 
10 0 0 0 0.1191589661608625 0.15 0 1 10 2 6 -2 
11 -0.1502256360856596 0.15 0 0.1191589661608625 0.15 0 0 2 7 -6 
1 -0.5 0 0 0 0.15 0 1 1 4 1 2 3 4 
2 0 0 0 0.5 0.15 0 1 2 4 5 6 7 8 
3 0 0 0 0.2918179754024691 0.15 0 1 3 3 6 9 10 
4 -0.1502256360856595 0 0 0.1191589661608625 0.15 0 1 4 3 10 2 11 
$EndEntities
$Nodes
23 14
1 0 0 1
1 -0.5 0 0
2 0 0 1
2 0 0 0
3 0 0 1
3 0.5 0 0
4 0 0 1
4 0.5 0.15 0
5 0 0 1
5 0.2918179754024691 0.15 0
6 0 0 1
6 0.1191589661608625 0.15 0
7 0 0 1
7 -0.1502256360856596 0.15 0
8 0 0 1
8 -0.5 0.15 0
1 1 0 1
9 -0.2258060012560721 0 0
2 1 0 0
3 1 0 0
4 1 0 0
5 1 0 1
10 0.2258060012560721 0 0
6 1 0 1
11 0.159846863411742 0.08216433370388751 0
7 1 0 0
8 1 0 0
9 1 0 0
10 1 0 0
11 1 0 1
12 -0.0155333349627155 0.15 0
1 2 0 1
13 -0.3440079093354329 0.07499999999999998 0
2 2 0 1
14 0.3794059941646353 0.075 0
3 2 0 0
4 2 0 0
$EndNodes
$Elements
23 38
1 0 15 1
1 1 
2 0 15 1
2 2 
3 0 15 1
3 3 
4 0 15 1
4 4 
5 0 15 1
5 5 
6 0 15 1
6 6 
7 0 15 1
7 7 
8 0 15 1
8 8 
1 1 1 2
9 1 9 
10 9 2 
2 1 1 1
11 2 7 
3 1 1 1
12 7 8 
4 1 1 1
13 8 1 
5 1 1 2
14 3 10 
15 10 2 
6 1 1 2
16 2 11 
17 11 5 
7 1 1 1
18 5 4 
8 1 1 1
19 4 3 
9 1 1 1
20 5 6 
10 1 1 1
21 6 2 
11 1 1 2
22 7 12 
23 12 6 
1 2 2 5
24 9 7 13 
25 7 9 2 
26 8 1 13 
27 1 9 13 
28 7 8 13 
2 2 2 6
29 10 5 14 
30 11 5 10 
31 4 3 14 
32 11 10 2 
33 3 10 14 
34 5 4 14 
3 2 2 2
35 6 2 11 
36 6 11 5 
4 2 2 2
37 2 12 6 
38 2 7 12 
$EndElements
