$MeshFormat
4 0 8
$EndMeshFormat
$PhysicalNames
9
1 3 "LEFT_INFLOW"
1 4 "RIGHT_INFLOW"
1 5 "BOTTOM_INFLOW_1"
1 6 "BOTTOM_INFLOW_2"
1 7 "TOP_INFLOW_1"
1 8 "TOP_INFLOW_2"
1 9 "SHOCK"
2 1 "surface1"
2 2 "surface2"
$EndPhysicalNames
$Entities
6 7 2 0
1 0 0 0 0 0 0 0 
2 0.15 0 0 0.15 0 0 0 
3 0.15 0.05 0 0.15 0.05 0 0 
4 0 0.05 0 0 0.05 0 0 
5 0.5 0 0 0.5 0 0 0 
6 0.5 0.05 0 0.5 0.05 0 0 
1 0 0 0 0.15 0 0 1 5 2 1 -2 
2 0.15 0 0 0.15 0.05 0 1 9 2 2 -3 
3 0 0.05 0 0.15 0.05 0 1 7 2 3 -4 
4 0 0 0 0 0.05 0 1 3 2 4 -1 
5 0.15 0 0 0.5 0 0 1 6 2 2 -5 
6 0.5 0 0 0.5 0.05 0 1 4 2 5 -6 
7 0.15 0.05 0 0.5 0.05 0 1 8 2 6 -3 
1 0 0 0 0.15 0.05 0 1 1 4 1 2 3 4 
2 0.15 0 0 0.5 0.05 0 1 2 4 5 6 7 -2 
$EndEntities
$Nodes
15 10
1 0 0 1
1 0 0 0
2 0 0 1
2 0.15 0 0
3 0 0 1
3 0.15 0.05 0
4 0 0 1
4 0 0.05 0
5 0 0 1
5 0.5 0 0
6 0 0 1
6 0.5 0.05 0
1 1 0 1
7 0.07499999999980951 0 0
2 1 0 0
3 1 0 1
8 0.07500000000019248 0.05 0
4 1 0 0
5 1 0 1
9 0.3249999999995066 0 0
6 1 0 0
7 1 0 1
10 0.3250000000004559 0.05 0
1 2 0 0
2 2 0 0
$EndNodes
$Elements
15 25
1 0 15 1
1 1 
2 0 15 1
2 2 
3 0 15 1
3 3 
4 0 15 1
4 4 
5 0 15 1
5 5 
6 0 15 1
6 6 
1 1 1 2
7 1 7 
8 7 2 
2 1 1 1
9 2 3 
3 1 1 2
10 3 8 
11 8 4 
4 1 1 1
12 4 1 
5 1 1 2
13 2 9 
14 9 5 
6 1 1 1
15 5 6 
7 1 1 2
16 6 10 
17 10 3 
1 2 2 4
18 1 7 4 
19 4 7 8 
20 7 2 8 
21 8 2 3 
2 2 2 4
22 2 9 3 
23 3 9 10 
24 9 5 10 
25 10 5 6 
$EndElements
