$MeshFormat
4 0 8
$EndMeshFormat
$PhysicalNames
9
1 3 "LEFT_INFLOW"
1 4 "RIGHT_INFLOW"
1 5 "BOTTOM_INFLOW_1"
1 6 "BOTTOM_INFLOW_2"
1 7 "TOP_INFLOW_1"
1 8 "TOP_INFLOW_2"
1 9 "SHOCK"
2 1 "surface1"
2 2 "surface2"
$EndPhysicalNames
$Entities
6 7 2 0
1 0 0 0 0 0 0 0 
2 0.5 0 0 0.5 0 0 0 
3 0.5 0.1 0 0.5 0.1 0 0 
4 0 0.1 0 0 0.1 0 0 
5 1 0 0 1 0 0 0 
6 1 0.1 0 1 0.1 0 0 
1 0 0 0 0.5 0 0 1 5 2 1 -2 
2 0.5 0 0 0.5 0.1 0 1 9 2 2 -3 
3 0 0.1 0 0.5 0.1 0 1 7 2 3 -4 
4 0 0 0 0 0.1 0 1 3 2 4 -1 
5 0.5 0 0 1 0 0 1 6 2 5 -2 
6 1 0 0 1 0.1 0 1 4 2 6 -5 
7 0.5 0.1 0 1 0.1 0 1 8 2 3 -6 
1 0 0 0 0.5 0.1 0 1 1 4 1 2 3 4 
2 0.5 0 0 1 0.1 0 1 2 4 2 7 6 5 
$EndEntities
$Nodes
15 32
1 0 0 1
1 0 0 0
2 0 0 1
2 0.5 0 0
3 0 0 1
3 0.5 0.1 0
4 0 0 1
4 0 0.1 0
5 0 0 1
5 1 0 0
6 0 0 1
6 1 0.1 0
1 1 0 4
7 0.09999999999977893 0 0
8 0.1999999999994874 0 0
9 0.2999999999994734 0 0
10 0.3999999999997367 0 0
2 1 0 0
3 1 0 4
11 0.4 0.1 0
12 0.3 0.1 0
13 0.2 0.1 0
14 0.09999999999999998 0.1 0
4 1 0 0
5 1 0 4
15 0.9000000000000002 0 0
16 0.8000000000000002 0 0
17 0.7000000000000002 0 0
18 0.6000000000000001 0 0
6 1 0 0
7 1 0 4
19 0.6 0.1 0
20 0.7 0.1 0
21 0.8 0.1 0
22 0.9 0.1 0
1 2 0 5
23 0.04999999999988947 0.05 0
24 0.4499999999999341 0.05 0
25 0.1499999999997727 0.04999999999995729 0
26 0.3499999999998025 0.05 0
27 0.2499999999994804 0.04999999999974375 0
2 2 0 5
28 0.9500000000000002 0.05 0
29 0.85 0.05000000000000035 0
30 0.75 0.05000000000000025 0
31 0.65 0.05000000000000005 0
32 0.55 0.05000000000000005 0
$EndNodes
$Elements
15 69
1 0 15 1
1 1 
2 0 15 1
2 2 
3 0 15 1
3 3 
4 0 15 1
4 4 
5 0 15 1
5 5 
6 0 15 1
6 6 
1 1 1 5
7 1 7 
8 7 8 
9 8 9 
10 9 10 
11 10 2 
2 1 1 1
12 2 3 
3 1 1 5
13 3 11 
14 11 12 
15 12 13 
16 13 14 
17 14 4 
4 1 1 1
18 4 1 
5 1 1 5
19 5 15 
20 15 16 
21 16 17 
22 17 18 
23 18 2 
6 1 1 1
24 6 5 
7 1 1 5
25 3 19 
26 19 20 
27 20 21 
28 21 22 
29 22 6 
1 2 2 20
30 9 10 26 
31 10 2 24 
32 4 1 23 
33 8 9 27 
34 14 4 23 
35 13 14 25 
36 9 12 27 
37 12 9 26 
38 12 13 27 
39 11 12 26 
40 2 3 24 
41 11 10 24 
42 10 11 26 
43 3 11 24 
44 1 7 23 
45 25 8 27 
46 7 8 25 
47 23 7 25 
48 13 25 27 
49 14 23 25 
2 2 2 20
50 15 16 29 
51 6 5 28 
52 22 6 28 
53 15 22 28 
54 22 15 29 
55 20 30 31 
56 30 17 31 
57 20 21 30 
58 21 22 29 
59 18 2 32 
60 17 18 31 
61 2 3 32 
62 21 29 30 
63 3 19 32 
64 16 17 30 
65 29 16 30 
66 19 20 31 
67 31 18 32 
68 19 31 32 
69 5 15 28 
$EndElements
$Periodic
7
0 3 2
Affine 1 0 0 0 0 1 0 0.1 0 0 1 0 0 0 0 1
1
3 2
0 4 1
Affine 1 0 0 0 0 1 0 0.1 0 0 1 0 0 0 0 1
1
4 1
0 5 1
Affine 1 0 0 1 0 1 0 0 0 0 1 0 0 0 0 1
1
5 1
0 6 5
Affine 1 0 0 0 0 1 0 0.1 0 0 1 0 0 0 0 1
1
6 5
1 3 1
Affine 1 0 0 0 0 1 0 0.1 0 0 1 0 0 0 0 1
6
3 2
4 1
11 10
12 9
13 8
14 7
1 6 4
Affine 1 0 0 1 0 1 0 0 0 0 1 0 0 0 0 1
2
5 1
6 4
1 7 5
Affine 1 0 0 0 0 1 0 0.1 0 0 1 0 0 0 0 1
6
3 2
6 5
19 18
20 17
21 16
22 15
$EndPeriodic
