$MeshFormat
4 0 8
$EndMeshFormat
$PhysicalNames
9
1 3 "LEFT_INFLOW"
1 4 "RIGHT_INFLOW"
1 5 "BOTTOM_INFLOW_1"
1 6 "BOTTOM_INFLOW_2"
1 7 "TOP_INFLOW_1"
1 8 "TOP_INFLOW_2"
1 9 "SHOCK"
2 1 "surface1"
2 2 "surface2"
$EndPhysicalNames
$Entities
6 7 2 0
1 0 0 0 0 0 0 0 
2 0.5 0 0 0.5 0 0 0 
3 0.5 0.1 0 0.5 0.1 0 0 
4 0 0.1 0 0 0.1 0 0 
5 1 0 0 1 0 0 0 
6 1 0.1 0 1 0.1 0 0 
1 0 0 0 0.5 0 0 1 5 2 1 -2 
2 0.5 0 0 0.5 0.1 0 1 9 2 2 -3 
3 0 0.1 0 0.5 0.1 0 1 7 2 3 -4 
4 0 0 0 0 0.1 0 1 3 2 4 -1 
5 0.5 0 0 1 0 0 1 6 2 5 -2 
6 1 0 0 1 0.1 0 1 4 2 6 -5 
7 0.5 0.1 0 1 0.1 0 1 8 2 3 -6 
1 0 0 0 0.5 0.1 0 1 1 4 1 2 3 4 
2 0.5 0 0 1 0.1 0 1 2 4 2 7 6 5 
$EndEntities
$Nodes
15 69
1 0 0 1
1 0 0 0
2 0 0 1
2 0.5 0 0
3 0 0 1
3 0.5 0.1 0
4 0 0 1
4 0 0.1 0
5 0 0 1
5 1 0 0
6 0 0 1
6 1 0.1 0
1 1 0 9
7 0.04999999999990733 0 0
8 0.09999999999977893 0 0
9 0.1499999999996332 0 0
10 0.1999999999994874 0 0
11 0.2499999999993471 0 0
12 0.2999999999994734 0 0
13 0.349999999999605 0 0
14 0.3999999999997367 0 0
15 0.4499999999998684 0 0
2 1 0 1
16 0.5 0.04999999999986842 0
3 1 0 9
17 0.45 0.1 0
18 0.4 0.1 0
19 0.35 0.1 0
20 0.3 0.1 0
21 0.25 0.1 0
22 0.2 0.1 0
23 0.15 0.1 0
24 0.09999999999999998 0.1 0
25 0.04999999999999999 0.1 0
4 1 0 1
26 0 0.05000000000013695 0
5 1 0 9
27 0.9500000000000001 0 0
28 0.9000000000000002 0 0
29 0.8500000000000002 0 0
30 0.8000000000000002 0 0
31 0.7500000000000001 0 0
32 0.7000000000000002 0 0
33 0.6500000000000001 0 0
34 0.6000000000000001 0 0
35 0.55 0 0
6 1 0 1
36 1 0.05 0
7 1 0 9
37 0.55 0.1 0
38 0.6 0.1 0
39 0.65 0.1 0
40 0.7 0.1 0
41 0.75 0.1 0
42 0.8 0.1 0
43 0.8500000000000001 0.1 0
44 0.9 0.1 0
45 0.95 0.1 0
1 2 0 12
46 0.07499999999984315 0.04330127018910322 0
47 0.1749999999996713 0.04930414223250218 0
48 0.4249999999999999 0.05669872981077809 0
49 0.2749999999995658 0.04772363258930114 0
50 0.3249999999998385 0.05103389416495048 0
51 0.124999999999763 0.05187694232684506 0
52 0.2249999999996193 0.05110784171198228 0
53 0.3749999999999302 0.04815180226480625 0
54 0.03287258330791475 0.06331588584185899 0
55 0.4671274166920295 0.03668411415813437 0
56 0.02899060668612526 0.02889910324037705 0
57 0.4710093933138454 0.07110089675963517 0
2 2 0 12
58 0.9250000000000002 0.04330127018922177 0
59 0.6749999999999998 0.05214177075582703 0
60 0.5750000000000002 0.05669872981077814 0
61 0.8251734351058921 0.05191392280307937 0
62 0.7251214045741246 0.0494507857148297 0
63 0.625 0.04747073272589487 0
64 0.8753715286724181 0.05225617672120293 0
65 0.7750491399466695 0.0502274514196515 0
66 0.5328725833079483 0.03668411415814482 0
67 0.9671274166920487 0.06331588584183451 0
68 0.5289906066861411 0.07110089675964784 0
69 0.9710093933138191 0.0288991032403434 0
$EndNodes
$Elements
15 144
1 0 15 1
1 1 
2 0 15 1
2 2 
3 0 15 1
3 3 
4 0 15 1
4 4 
5 0 15 1
5 5 
6 0 15 1
6 6 
1 1 1 10
7 1 7 
8 7 8 
9 8 9 
10 9 10 
11 10 11 
12 11 12 
13 12 13 
14 13 14 
15 14 15 
16 15 2 
2 1 1 2
17 2 16 
18 16 3 
3 1 1 10
19 3 17 
20 17 18 
21 18 19 
22 19 20 
23 20 21 
24 21 22 
25 22 23 
26 23 24 
27 24 25 
28 25 4 
4 1 1 2
29 4 26 
30 26 1 
5 1 1 10
31 5 27 
32 27 28 
33 28 29 
34 29 30 
35 30 31 
36 31 32 
37 32 33 
38 33 34 
39 34 35 
40 35 2 
6 1 1 2
41 6 36 
42 36 5 
7 1 1 10
43 3 37 
44 37 38 
45 38 39 
46 39 40 
47 40 41 
48 41 42 
49 42 43 
50 43 44 
51 44 45 
52 45 6 
1 2 2 46
53 22 23 47 
54 24 25 46 
55 20 21 49 
56 12 13 50 
57 14 15 48 
58 8 9 51 
59 10 11 52 
60 18 19 53 
61 22 47 52 
62 24 46 51 
63 47 23 51 
64 14 48 53 
65 49 21 52 
66 50 13 53 
67 20 49 50 
68 49 12 50 
69 46 8 51 
70 9 47 51 
71 47 10 52 
72 11 49 52 
73 19 50 53 
74 48 18 53 
75 46 25 54 
76 48 15 55 
77 21 22 52 
78 23 24 51 
79 13 14 53 
80 11 12 49 
81 7 8 46 
82 19 20 50 
83 17 18 48 
84 9 10 47 
85 4 26 54 
86 2 16 55 
87 25 4 54 
88 15 2 55 
89 17 48 57 
90 7 46 56 
91 48 55 57 
92 46 54 56 
93 26 1 56 
94 16 3 57 
95 1 7 56 
96 3 17 57 
97 54 26 56 
98 55 16 57 
2 2 2 46
99 44 45 58 
100 32 33 59 
101 40 41 62 
102 38 39 63 
103 34 35 60 
104 29 30 61 
105 29 61 64 
106 62 41 65 
107 41 42 65 
108 28 29 64 
109 59 40 62 
110 32 59 62 
111 60 38 63 
112 34 60 63 
113 59 33 63 
114 39 59 63 
115 44 58 64 
116 61 30 65 
117 58 28 64 
118 42 61 65 
119 60 35 66 
120 58 45 67 
121 61 43 64 
122 43 44 64 
123 30 31 65 
124 31 62 65 
125 31 32 62 
126 37 38 60 
127 39 40 59 
128 33 34 63 
129 42 43 61 
130 27 28 58 
131 2 16 66 
132 35 2 66 
133 6 36 67 
134 45 6 67 
135 37 60 68 
136 27 58 69 
137 60 66 68 
138 58 67 69 
139 16 3 68 
140 3 37 68 
141 36 5 69 
142 5 27 69 
143 66 16 68 
144 67 36 69 
$EndElements
$Periodic
7
0 3 2
Affine 1 0 0 0 0 1 0 0.1 0 0 1 0 0 0 0 1
1
3 2
0 4 1
Affine 1 0 0 0 0 1 0 0.1 0 0 1 0 0 0 0 1
1
4 1
0 5 1
Affine 1 0 0 1 0 1 0 0 0 0 1 0 0 0 0 1
1
5 1
0 6 5
Affine 1 0 0 0 0 1 0 0.1 0 0 1 0 0 0 0 1
1
6 5
1 3 1
Affine 1 0 0 0 0 1 0 0.1 0 0 1 0 0 0 0 1
11
3 2
4 1
17 15
18 14
19 13
20 12
21 11
22 10
23 9
24 8
25 7
1 6 4
Affine 1 0 0 1 0 1 0 0 0 0 1 0 0 0 0 1
3
5 1
6 4
36 26
1 7 5
Affine 1 0 0 0 0 1 0 0.1 0 0 1 0 0 0 0 1
11
3 2
6 5
37 35
38 34
39 33
40 32
41 31
42 30
43 29
44 28
45 27
$EndPeriodic
