$MeshFormat
4 0 8
$EndMeshFormat
$PhysicalNames
9
1 3 "LEFT_INFLOW"
1 4 "RIGHT_INFLOW"
1 5 "BOTTOM_INFLOW_1"
1 6 "BOTTOM_INFLOW_2"
1 7 "TOP_INFLOW_1"
1 8 "TOP_INFLOW_2"
1 9 "SHOCK"
2 1 "surface1"
2 2 "surface2"
$EndPhysicalNames
$Entities
6 7 2 0
1 0 0 0 0 0 0 0 
2 0.5 0 0 0.5 0 0 0 
3 0.5 0.1 0 0.5 0.1 0 0 
4 0 0.1 0 0 0.1 0 0 
5 1 0 0 1 0 0 0 
6 1 0.1 0 1 0.1 0 0 
1 0 0 0 0.5 0 0 1 5 2 1 -2 
2 0.5 0 0 0.5 0.1 0 1 9 2 2 -3 
3 0 0.1 0 0.5 0.1 0 1 7 2 3 -4 
4 0 0 0 0 0.1 0 1 3 2 4 -1 
5 0.5 0 0 1 0 0 1 6 2 5 -2 
6 1 0 0 1 0.1 0 1 4 2 6 -5 
7 0.5 0.1 0 1 0.1 0 1 8 2 3 -6 
1 0 0 0 0.5 0.1 0 1 1 4 1 2 3 4 
2 0.5 0 0 1 0.1 0 1 2 4 2 7 6 5 
$EndEntities
$Nodes
15 51
1 0 0 1
1 0 0 0
2 0 0 1
2 0.5 0 0
3 0 0 1
3 0.5 0.1 0
4 0 0 1
4 0 0.1 0
5 0 0 1
5 1 0 0
6 0 0 1
6 1 0.1 0
1 1 0 6
7 0.07142857142843365 0 0
8 0.1428571428567969 0 0
9 0.2142857142851601 0 0
10 0.2857142857137215 0 0
11 0.357142857142481 0 0
12 0.4285714285712405 0 0
2 1 0 1
13 0.5 0.0499999999998685 0
3 1 0 6
14 0.4285714285712567 0.1 0
15 0.3571428571424342 0.1 0
16 0.2857142857137107 0.1 0
17 0.2142857142852251 0.1 0
18 0.1428571428568781 0.1 0
19 0.07142857142853115 0.1 0
4 1 0 1
20 0 0.05000000000013687 0
5 1 0 6
21 0.9285714285714287 0 0
22 0.8571428571428574 0 0
23 0.785714285714286 0 0
24 0.7142857142857145 0 0
25 0.642857142857143 0 0
26 0.5714285714285714 0 0
6 1 0 1
27 1 0.05 0
7 1 0 6
28 0.5714285714285552 0.1 0
29 0.6428571428571899 0.1 0
30 0.7142857142856658 0.1 0
31 0.7857142857143796 0.1 0
32 0.8571428571429744 0.1 0
33 0.9285714285713312 0.1 0
1 2 0 9
34 0.2499999999994761 0.0499999999999966 0
35 0.1785714285710516 0.05000000000002325 0
36 0.09693877551002483 0.05000000000002287 0
37 0.3214285714281114 0.05000000000000224 0
38 0.4030612244895388 0.04999999999998152 0
39 0.03935860058304342 0.06785714285719502 0
40 0.4606413994168104 0.06785714285709324 0
41 0.4613107633723027 0.02937317784251304 0
42 0.03868923662752476 0.02937317784262074 0
2 2 0 9
43 0.9030612244898069 0.05000000000000596 0
44 0.7500000000000251 0.05000000000000422 0
45 0.6785714285714278 0.04999999999998352 0
46 0.5969387755102071 0.04999999999997885 0
47 0.8214285714286765 0.05000000000004187 0
48 0.9606413994168834 0.06785714285714368 0
49 0.539358600583086 0.06785714285709288 0
50 0.5386892366275955 0.02937317784251271 0
51 0.961310763372403 0.02937317784256623 0
$EndNodes
$Elements
15 108
1 0 15 1
1 1 
2 0 15 1
2 2 
3 0 15 1
3 3 
4 0 15 1
4 4 
5 0 15 1
5 5 
6 0 15 1
6 6 
1 1 1 7
7 1 7 
8 7 8 
9 8 9 
10 9 10 
11 10 11 
12 11 12 
13 12 2 
2 1 1 2
14 2 13 
15 13 3 
3 1 1 7
16 3 14 
17 14 15 
18 15 16 
19 16 17 
20 17 18 
21 18 19 
22 19 4 
4 1 1 2
23 4 20 
24 20 1 
5 1 1 7
25 5 21 
26 21 22 
27 22 23 
28 23 24 
29 24 25 
30 25 26 
31 26 2 
6 1 1 2
32 6 27 
33 27 5 
7 1 1 7
34 3 28 
35 28 29 
36 29 30 
37 30 31 
38 31 32 
39 32 33 
40 33 6 
1 2 2 34
41 12 2 41 
42 19 4 39 
43 3 14 40 
44 1 7 42 
45 36 39 42 
46 40 38 41 
47 7 36 42 
48 36 19 39 
49 38 12 41 
50 14 38 40 
51 16 17 34 
52 9 10 34 
53 16 34 37 
54 7 8 36 
55 8 9 35 
56 8 35 36 
57 34 17 35 
58 17 18 35 
59 9 34 35 
60 18 19 36 
61 35 18 36 
62 15 16 37 
63 34 10 37 
64 10 11 37 
65 15 37 38 
66 37 11 38 
67 14 15 38 
68 11 12 38 
69 13 3 40 
70 20 1 42 
71 4 20 39 
72 2 13 41 
73 39 20 42 
74 13 40 41 
2 2 2 34
75 33 6 48 
76 26 2 50 
77 5 21 51 
78 3 28 49 
79 49 46 50 
80 43 48 51 
81 43 33 48 
82 46 26 50 
83 28 46 49 
84 21 43 51 
85 30 31 44 
86 23 44 47 
87 28 29 46 
88 30 44 45 
89 44 31 47 
90 31 32 47 
91 32 33 43 
92 29 45 46 
93 32 43 47 
94 44 24 45 
95 23 24 44 
96 29 30 45 
97 21 22 43 
98 22 23 47 
99 25 26 46 
100 24 25 45 
101 45 25 46 
102 43 22 47 
103 13 3 49 
104 6 27 48 
105 2 13 50 
106 27 5 51 
107 13 49 50 
108 48 27 51 
$EndElements
$Periodic
7
0 3 2
Affine 1 0 0 0 0 1 0 0.1 0 0 1 0 0 0 0 1
1
3 2
0 4 1
Affine 1 0 0 0 0 1 0 0.1 0 0 1 0 0 0 0 1
1
4 1
0 5 1
Affine 1 0 0 1 0 1 0 0 0 0 1 0 0 0 0 1
1
5 1
0 6 5
Affine 1 0 0 0 0 1 0 0.1 0 0 1 0 0 0 0 1
1
6 5
1 3 1
Affine 1 0 0 0 0 1 0 0.1 0 0 1 0 0 0 0 1
8
3 2
4 1
14 12
15 11
16 10
17 9
18 8
19 7
1 6 4
Affine 1 0 0 1 0 1 0 0 0 0 1 0 0 0 0 1
3
5 1
6 4
27 20
1 7 5
Affine 1 0 0 0 0 1 0 0.1 0 0 1 0 0 0 0 1
8
3 2
6 5
28 26
29 25
30 24
31 23
32 22
33 21
$EndPeriodic
