$MeshFormat
4 0 8
$EndMeshFormat
$PhysicalNames
9
1 3 "LEFT_INFLOW"
1 4 "RIGHT_INFLOW"
1 5 "BOTTOM_INFLOW_1"
1 6 "BOTTOM_INFLOW_2"
1 7 "TOP_INFLOW_1"
1 8 "TOP_INFLOW_2"
1 9 "SHOCK"
2 1 "surface1"
2 2 "surface2"
$EndPhysicalNames
$Entities
6 7 2 0
1 0 0 0 0 0 0 0 
2 0.5 0 0 0.5 0 0 0 
3 0.5 0.1 0 0.5 0.1 0 0 
4 0 0.1 0 0 0.1 0 0 
5 1 0 0 1 0 0 0 
6 1 0.1 0 1 0.1 0 0 
1 0 0 0 0.5 0 0 1 5 2 1 -2 
2 0.5 0 0 0.5 0.1 0 1 9 2 2 -3 
3 0 0.1 0 0.5 0.1 0 1 7 2 3 -4 
4 0 0 0 0 0.1 0 1 3 2 4 -1 
5 0.5 0 0 1 0 0 1 6 2 5 -2 
6 1 0 0 1 0.1 0 1 4 2 6 -5 
7 0.5 0.1 0 1 0.1 0 1 8 2 3 -6 
1 0 0 0 0.5 0.1 0 1 1 4 1 2 3 4 
2 0.5 0 0 1 0.1 0 1 2 4 2 7 6 5 
$EndEntities
$Nodes
15 20
1 0 0 1
1 0 0 0
2 0 0 1
2 0.5 0 0
3 0 0 1
3 0.5 0.1 0
4 0 0 1
4 0 0.1 0
5 0 0 1
5 1 0 0
6 0 0 1
6 1 0.1 0
1 1 0 2
7 0.1666666666662513 0 0
8 0.3333333333328944 0 0
2 1 0 0
3 1 0 2
9 0.3333333333328862 0.1 0
10 0.1666666666663271 0.1 0
4 1 0 0
5 1 0 2
11 0.8333333333333335 0 0
12 0.6666666666666667 0 0
6 1 0 0
7 1 0 2
13 0.6666666666667214 0.1 0
14 0.8333333333332575 0.1 0
1 2 0 3
15 0.4166666666664451 0.05 0
16 0.2499999999995897 0.05 0
17 0.08333333333314459 0.05 0
2 2 0 3
18 0.583333333333347 0.05 0
19 0.9166666666666479 0.05000000000000002 0
20 0.7499999999999948 0.05 0
$EndNodes
$Elements
15 45
1 0 15 1
1 1 
2 0 15 1
2 2 
3 0 15 1
3 3 
4 0 15 1
4 4 
5 0 15 1
5 5 
6 0 15 1
6 6 
1 1 1 3
7 1 7 
8 7 8 
9 8 2 
2 1 1 1
10 2 3 
3 1 1 3
11 3 9 
12 9 10 
13 10 4 
4 1 1 1
14 4 1 
5 1 1 3
15 5 11 
16 11 12 
17 12 2 
6 1 1 1
18 6 5 
7 1 1 3
19 3 13 
20 13 14 
21 14 6 
1 2 2 12
22 9 8 15 
23 2 3 15 
24 10 7 16 
25 8 9 16 
26 4 1 17 
27 7 10 17 
28 1 7 17 
29 8 2 15 
30 3 9 15 
31 10 4 17 
32 7 8 16 
33 9 10 16 
2 2 2 12
34 11 14 19 
35 13 12 18 
36 2 3 18 
37 6 5 19 
38 12 13 20 
39 14 11 20 
40 12 2 18 
41 3 13 18 
42 5 11 19 
43 14 6 19 
44 11 12 20 
45 13 14 20 
$EndElements
$Periodic
7
0 3 2
Affine 1 0 0 0 0 1 0 0.1 0 0 1 0 0 0 0 1
1
3 2
0 4 1
Affine 1 0 0 0 0 1 0 0.1 0 0 1 0 0 0 0 1
1
4 1
0 5 1
Affine 1 0 0 1 0 1 0 0 0 0 1 0 0 0 0 1
1
5 1
0 6 5
Affine 1 0 0 0 0 1 0 0.1 0 0 1 0 0 0 0 1
1
6 5
1 3 1
Affine 1 0 0 0 0 1 0 0.1 0 0 1 0 0 0 0 1
4
3 2
4 1
9 8
10 7
1 6 4
Affine 1 0 0 1 0 1 0 0 0 0 1 0 0 0 0 1
2
5 1
6 4
1 7 5
Affine 1 0 0 0 0 1 0 0.1 0 0 1 0 0 0 0 1
4
3 2
6 5
13 12
14 11
$EndPeriodic
