$MeshFormat
4 0 8
$EndMeshFormat
$PhysicalNames
7
1 3 "LEFT_INFLOW"
1 4 "BOTTOM_INFLOW_1"
1 5 "BOTTOM_INFLOW_2"
1 6 "TOP_INFLOW_1"
1 7 "TOP_INFLOW_2"
2 1 "surface1"
2 2 "surface2"
$EndPhysicalNames
$Entities
6 7 2 0
1 -0.5 0 0 -0.5 0 0 0 
2 -0.12 0 0 -0.12 0 0 0 
3 0.5 0 0 0.5 0 0 0 
4 0.5 0.2 0 0.5 0.2 0 0 
5 0.13 0.2 0 0.13 0.2 0 0 
6 -0.5 0.2 0 -0.5 0.2 0 0 
1 -0.5 0 0 -0.12 0 0 1 4 2 1 -2 
2 -0.12 0 0 0.5 0 0 1 5 2 2 -3 
3 0.5 0 0 0.5 0.2 0 0 2 3 -4 
4 0.13 0.2 0 0.5 0.2 0 1 7 2 4 -5 
5 -0.5 0.2 0 0.13 0.2 0 1 6 2 5 -6 
6 -0.5 0 0 -0.5 0.2 0 1 3 2 6 -1 
7 -0.12 0 0 0.13 0.2 0 0 2 2 -5 
1 -0.5 0 0 0.13 0.2 0 1 1 4 1 7 5 6 
2 -0.12 0 0 0.5 0.2 0 1 2 4 2 3 4 -7 
$EndEntities
$Nodes
15 10
1 0 0 1
1 -0.5 0 0
2 0 0 1
2 -0.12 0 0
3 0 0 1
3 0.5 0 0
4 0 0 1
4 0.5 0.2 0
5 0 0 1
5 0.13 0.2 0
6 0 0 1
6 -0.5 0.2 0
1 1 0 0
2 1 0 1
7 0.1899999999991882 0 0
3 1 0 0
4 1 0 0
5 1 0 1
8 -0.184999999999184 0.2 0
6 1 0 0
7 1 0 0
1 2 0 1
9 -0.326249999999796 0.09999999999999998 0
2 2 0 1
10 0.329999999999797 0.09999999999999998 0
$EndNodes
$Elements
15 25
1 0 15 1
1 1 
2 0 15 1
2 2 
3 0 15 1
3 3 
4 0 15 1
4 4 
5 0 15 1
5 5 
6 0 15 1
6 6 
1 1 1 1
7 1 2 
2 1 1 2
8 2 7 
9 7 3 
3 1 1 1
10 3 4 
4 1 1 1
11 4 5 
5 1 1 2
12 5 8 
13 8 6 
6 1 1 1
14 6 1 
7 1 1 1
15 2 5 
1 2 2 5
16 5 8 2 
17 2 8 9 
18 6 1 9 
19 1 2 9 
20 8 6 9 
2 2 2 5
21 7 5 2 
22 5 7 10 
23 3 4 10 
24 7 3 10 
25 4 5 10 
$EndElements
