$MeshFormat
4 0 8
$EndMeshFormat
$PhysicalNames
9
1 3 "LEFT_INFLOW"
1 4 "RIGHT_INFLOW"
1 5 "BOTTOM_INFLOW_1"
1 6 "BOTTOM_INFLOW_2"
1 7 "TOP_INFLOW_1"
1 8 "TOP_INFLOW_2"
1 9 "SHOCK"
2 1 "surface1"
2 2 "surface2"
$EndPhysicalNames
$Entities
6 7 2 0
1 0 0 0 0 0 0 0 
2 0.25 0 0 0.25 0 0 0 
3 0.25 0.1 0 0.25 0.1 0 0 
4 0 0.1 0 0 0.1 0 0 
5 0.5 0 0 0.5 0 0 0 
6 0.5 0.1 0 0.5 0.1 0 0 
1 0 0 0 0.25 0 0 1 5 2 1 -2 
2 0.25 0 0 0.25 0.1 0 1 9 2 2 -3 
3 0 0.1 0 0.25 0.1 0 1 7 2 3 -4 
4 0 0 0 0 0.1 0 1 3 2 4 -1 
5 0.25 0 0 0.5 0 0 1 6 2 5 -2 
6 0.5 0 0 0.5 0.1 0 1 4 2 6 -5 
7 0.25 0.1 0 0.5 0.1 0 1 8 2 3 -6 
1 0 0 0 0.25 0.1 0 1 1 4 1 2 3 4 
2 0.25 0 0 0.5 0.1 0 1 2 4 2 7 6 5 
$EndEntities
$Nodes
15 29
1 0 0 1
1 0 0 0
2 0 0 1
2 0.25 0 0
3 0 0 1
3 0.25 0.1 0
4 0 0 1
4 0 0.1 0
5 0 0 1
5 0.5 0 0
6 0 0 1
6 0.5 0.1 0
1 1 0 3
7 0.06249999999985281 0 0
8 0.1249999999996732 0 0
9 0.1874999999998352 0 0
2 1 0 1
10 0.25 0.04999999999986848 0
3 1 0 3
11 0.1875 0.1 0
12 0.125 0.1 0
13 0.0625 0.1 0
4 1 0 1
14 0 0.05000000000013689 0
5 1 0 3
15 0.4374999999999999 0 0
16 0.375 0 0
17 0.3125 0 0
6 1 0 1
18 0.5 0.05 0
7 1 0 3
19 0.3125 0.1 0
20 0.375 0.1 0
21 0.4375 0.1 0
1 2 0 4
22 0.09635416666652516 0.0490885416666329 0
23 0.1540798611109854 0.05075954861107783 0
24 0.2031249999998788 0.05546874999983411 0
25 0.04687499999987084 0.04453124999989952 0
2 2 0 4
26 0.4036458333333333 0.04908854166666671 0
27 0.3459201388888876 0.05075954861111032 0
28 0.2968749999999923 0.05546874999999518 0
29 0.4531249999999998 0.04453125000000024 0
$EndNodes
$Elements
15 64
1 0 15 1
1 1 
2 0 15 1
2 2 
3 0 15 1
3 3 
4 0 15 1
4 4 
5 0 15 1
5 5 
6 0 15 1
6 6 
1 1 1 4
7 1 7 
8 7 8 
9 8 9 
10 9 2 
2 1 1 2
11 2 10 
12 10 3 
3 1 1 4
13 3 11 
14 11 12 
15 12 13 
16 13 4 
4 1 1 2
17 4 14 
18 14 1 
5 1 1 4
19 5 15 
20 15 16 
21 16 17 
22 17 2 
6 1 1 2
23 6 18 
24 18 5 
7 1 1 4
25 3 19 
26 19 20 
27 20 21 
28 21 6 
1 2 2 18
29 4 14 25 
30 2 10 24 
31 13 4 25 
32 9 2 24 
33 10 3 24 
34 14 1 25 
35 3 11 24 
36 1 7 25 
37 12 13 22 
38 12 22 23 
39 11 12 23 
40 7 8 22 
41 22 8 23 
42 8 9 23 
43 22 13 25 
44 23 9 24 
45 11 23 24 
46 7 22 25 
2 2 2 18
47 2 10 28 
48 6 18 29 
49 17 2 28 
50 21 6 29 
51 10 3 28 
52 18 5 29 
53 5 15 29 
54 3 19 28 
55 16 17 27 
56 20 21 26 
57 19 20 27 
58 15 16 26 
59 26 16 27 
60 20 26 27 
61 27 17 28 
62 26 21 29 
63 19 27 28 
64 15 26 29 
$EndElements
$Periodic
7
0 3 2
Affine 1 0 0 0 0 1 0 0.1 0 0 1 0 0 0 0 1
1
3 2
0 4 1
Affine 1 0 0 0 0 1 0 0.1 0 0 1 0 0 0 0 1
1
4 1
0 5 1
Affine 1 0 0 0.5 0 1 0 0 0 0 1 0 0 0 0 1
1
5 1
0 6 5
Affine 1 0 0 0 0 1 0 0.1 0 0 1 0 0 0 0 1
1
6 5
1 3 1
Affine 1 0 0 0 0 1 0 0.1 0 0 1 0 0 0 0 1
5
3 2
4 1
11 9
12 8
13 7
1 6 4
Affine 1 0 0 0.5 0 1 0 0 0 0 1 0 0 0 0 1
3
5 1
6 4
18 14
1 7 5
Affine 1 0 0 0 0 1 0 0.1 0 0 1 0 0 0 0 1
5
3 2
6 5
19 17
20 16
21 15
$EndPeriodic
