$MeshFormat
4 0 8
$EndMeshFormat
$PhysicalNames
9
1 3 "LEFT_INFLOW"
1 4 "RIGHT_INFLOW"
1 5 "BOTTOM_INFLOW_1"
1 6 "BOTTOM_INFLOW_2"
1 7 "TOP_INFLOW_1"
1 8 "TOP_INFLOW_2"
1 9 "SHOCK"
2 1 "surface1"
2 2 "surface2"
$EndPhysicalNames
$Entities
6 7 2 0
1 0 0 0 0 0 0 0 
2 0.25 0 0 0.25 0 0 0 
3 0.25 0.025 0 0.25 0.025 0 0 
4 0 0.025 0 0 0.025 0 0 
5 0.5 0 0 0.5 0 0 0 
6 0.5 0.025 0 0.5 0.025 0 0 
1 0 0 0 0.25 0 0 1 5 2 1 -2 
2 0.25 0 0 0.25 0.025 0 1 9 2 2 -3 
3 0 0.025 0 0.25 0.025 0 1 7 2 3 -4 
4 0 0 0 0 0.025 0 1 3 2 4 -1 
5 0.25 0 0 0.5 0 0 1 6 2 5 -2 
6 0.5 0 0 0.5 0.025 0 1 4 2 6 -5 
7 0.25 0.025 0 0.5 0.025 0 1 8 2 3 -6 
1 0 0 0 0.25 0.025 0 1 1 4 1 2 3 4 
2 0.25 0 0 0.5 0.025 0 1 2 4 2 7 6 5 
$EndEntities
$Nodes
15 44
1 0 0 1
1 0 0 0
2 0 0 1
2 0.25 0 0
3 0 0 1
3 0.25 0.025 0
4 0 0 1
4 0 0.025 0
5 0 0 1
5 0.5 0 0
6 0 0 1
6 0.5 0.025 0
1 1 0 6
7 0.03571428571421682 0 0
8 0.07142857142839844 0 0
9 0.1071428571425801 0 0
10 0.1428571428568607 0 0
11 0.1785714285712405 0 0
12 0.2142857142856202 0 0
2 1 0 0
3 1 0 6
13 0.2142857142856284 0.025 0
14 0.1785714285712171 0.025 0
15 0.1428571428568554 0.025 0
16 0.1071428571426126 0.025 0
17 0.07142857142843906 0.025 0
18 0.03571428571426558 0.025 0
4 1 0 0
5 1 0 6
19 0.4642857142857144 0 0
20 0.4285714285714287 0 0
21 0.392857142857143 0 0
22 0.3571428571428573 0 0
23 0.3214285714285715 0 0
24 0.2857142857142857 0 0
6 1 0 0
7 1 0 6
25 0.2857142857142776 0.025 0
26 0.3214285714285949 0.025 0
27 0.3571428571428329 0.025 0
28 0.3928571428571898 0.025 0
29 0.4285714285714872 0.025 0
30 0.4642857142856656 0.025 0
1 2 0 7
31 0.1964285714284265 0.0125 0
32 0.2321428571428122 0.0125 0
33 0.1607142857140434 0.0125 0
34 0.1249999999997272 0.0125 0
35 0.0178571428571206 0.0125 0
36 0.08928571428550752 0.0125 0
37 0.05357142857132997 0.0125 0
2 2 0 7
38 0.3750000000000058 0.0125 0
39 0.3035714285714324 0.0125 0
40 0.4821428571428449 0.0125 0
41 0.2678571428571408 0.0125 0
42 0.3392857142857142 0.0125 0
43 0.4107142857143122 0.0125 0
44 0.446428571428574 0.0125 0
$EndNodes
$Elements
15 93
1 0 15 1
1 1 
2 0 15 1
2 2 
3 0 15 1
3 3 
4 0 15 1
4 4 
5 0 15 1
5 5 
6 0 15 1
6 6 
1 1 1 7
7 1 7 
8 7 8 
9 8 9 
10 9 10 
11 10 11 
12 11 12 
13 12 2 
2 1 1 1
14 2 3 
3 1 1 7
15 3 13 
16 13 14 
17 14 15 
18 15 16 
19 16 17 
20 17 18 
21 18 4 
4 1 1 1
22 4 1 
5 1 1 7
23 5 19 
24 19 20 
25 20 21 
26 21 22 
27 22 23 
28 23 24 
29 24 2 
6 1 1 1
30 6 5 
7 1 1 7
31 3 25 
32 25 26 
33 26 27 
34 27 28 
35 28 29 
36 29 30 
37 30 6 
1 2 2 28
38 12 13 31 
39 14 11 31 
40 15 10 33 
41 13 12 32 
42 2 3 32 
43 11 14 33 
44 16 9 34 
45 7 18 35 
46 10 15 34 
47 18 7 37 
48 4 1 35 
49 9 16 36 
50 17 8 36 
51 8 17 37 
52 1 7 35 
53 12 2 32 
54 3 13 32 
55 18 4 35 
56 7 8 37 
57 8 9 36 
58 9 10 34 
59 10 11 33 
60 11 12 31 
61 13 14 31 
62 14 15 33 
63 15 16 34 
64 16 17 36 
65 17 18 37 
2 2 2 28
66 21 28 43 
67 19 30 40 
68 28 21 38 
69 22 27 38 
70 26 23 39 
71 24 25 39 
72 25 24 41 
73 6 5 40 
74 2 3 41 
75 23 26 42 
76 27 22 42 
77 29 20 43 
78 30 19 44 
79 20 29 44 
80 24 2 41 
81 3 25 41 
82 5 19 40 
83 30 6 40 
84 19 20 44 
85 20 21 43 
86 21 22 38 
87 22 23 42 
88 23 24 39 
89 25 26 39 
90 26 27 42 
91 27 28 38 
92 28 29 43 
93 29 30 44 
$EndElements
$Periodic
7
0 3 2
Affine 1 0 0 0 0 1 0 0.025 0 0 1 0 0 0 0 1
1
3 2
0 4 1
Affine 1 0 0 0 0 1 0 0.025 0 0 1 0 0 0 0 1
1
4 1
0 5 1
Affine 1 0 0 0.5 0 1 0 0 0 0 1 0 0 0 0 1
1
5 1
0 6 5
Affine 1 0 0 0 0 1 0 0.025 0 0 1 0 0 0 0 1
1
6 5
1 3 1
Affine 1 0 0 0 0 1 0 0.025 0 0 1 0 0 0 0 1
8
3 2
4 1
13 12
14 11
15 10
16 9
17 8
18 7
1 6 4
Affine 1 0 0 0.5 0 1 0 0 0 0 1 0 0 0 0 1
2
5 1
6 4
1 7 5
Affine 1 0 0 0 0 1 0 0.025 0 0 1 0 0 0 0 1
8
3 2
6 5
25 24
26 23
27 22
28 21
29 20
30 19
$EndPeriodic
