$MeshFormat
4 0 8
$EndMeshFormat
$PhysicalNames
9
1 3 "LEFT_INFLOW"
1 4 "RIGHT_INFLOW"
1 5 "BOTTOM_INFLOW_1"
1 6 "BOTTOM_INFLOW_2"
1 7 "TOP_INFLOW_1"
1 8 "TOP_INFLOW_2"
1 9 "SHOCK"
2 1 "surface1"
2 2 "surface2"
$EndPhysicalNames
$Entities
6 7 2 0
1 0 0 0 0 0 0 0 
2 0.25 0 0 0.25 0 0 0 
3 0.25 0.025 0 0.25 0.025 0 0 
4 0 0.025 0 0 0.025 0 0 
5 0.5 0 0 0.5 0 0 0 
6 0.5 0.025 0 0.5 0.025 0 0 
1 0 0 0 0.25 0 0 1 5 2 1 -2 
2 0.25 0 0 0.25 0.025 0 1 9 2 2 -3 
3 0 0.025 0 0.25 0.025 0 1 7 2 3 -4 
4 0 0 0 0 0.025 0 1 3 2 4 -1 
5 0.25 0 0 0.5 0 0 1 6 2 5 -2 
6 0.5 0 0 0.5 0.025 0 1 4 2 6 -5 
7 0.25 0.025 0 0.5 0.025 0 1 8 2 3 -6 
1 0 0 0 0.25 0.025 0 1 1 4 1 2 3 4 
2 0.25 0 0 0.5 0.025 0 1 2 4 2 7 6 5 
$EndEntities
$Nodes
15 83
1 0 0 1
1 0 0 0
2 0 0 1
2 0.25 0 0
3 0 0 1
3 0.25 0.025 0
4 0 0 1
4 0 0.025 0
5 0 0 1
5 0.5 0 0
6 0 0 1
6 0.5 0.025 0
1 1 0 12
7 0.0192307692307317 0 0
8 0.03846153846146157 0 0
9 0.05769230769217475 0 0
10 0.07692307692288791 0 0
11 0.09615384615360109 0 0
12 0.1153846153843143 0 0
13 0.1346153846150808 0 0
14 0.1538461538459007 0 0
15 0.1730769230767206 0 0
16 0.1923076923075404 0 0
17 0.2115384615383603 0 0
18 0.2307692307691802 0 0
2 1 0 1
19 0.25 0.01249999999996712 0
3 1 0 12
20 0.2307692307691744 0.025 0
21 0.2115384615383487 0.025 0
22 0.1923076923075089 0.025 0
23 0.17307692307671 0.025 0
24 0.1538461538459182 0.025 0
25 0.1346153846150712 0.025 0
26 0.1153846153843274 0.025 0
27 0.09615384615364048 0.025 0
28 0.07692307692289665 0.025 0
29 0.05769230769220976 0.025 0
30 0.03846153846146594 0.025 0
31 0.01923076923076233 0.025 0
4 1 0 1
32 0 0.01250000000003422 0
5 1 0 12
33 0.4807692307692308 0 0
34 0.4615384615384616 0 0
35 0.4423076923076924 0 0
36 0.4230769230769232 0 0
37 0.403846153846154 0 0
38 0.3846153846153847 0 0
39 0.3653846153846155 0 0
40 0.3461538461538463 0 0
41 0.326923076923077 0 0
42 0.3076923076923078 0 0
43 0.2884615384615385 0 0
44 0.2692307692307693 0 0
6 1 0 1
45 0.5 0.0125 0
7 1 0 12
46 0.269230769230743 0.025 0
47 0.288461538461486 0.025 0
48 0.3076923076923392 0.025 0
49 0.3269230769231463 0.025 0
50 0.3461538461538288 0.025 0
51 0.3653846153846785 0.025 0
52 0.3846153846153396 0.025 0
53 0.4038461538461147 0.025 0
54 0.4230769230769145 0.025 0
55 0.442307692307572 0.025 0
56 0.4615384615384679 0.025 0
57 0.4807692307692001 0.025 0
1 2 0 13
58 0.08653846153826285 0.01250000000000533 0
59 0.04807692307683217 0.01250000000000445 0
60 0.1249999999997012 0.01249999999999665 0
61 0.06730769230754402 0.01250000000000163 0
62 0.1057692307689839 0.01250000000000505 0
63 0.02884615384611414 0.01250000000000168 0
64 0.1442307692304957 0.01250000000000018 0
65 0.1634615384613141 0.01249999999999597 0
66 0.1826923076921204 0.01250000000000135 0
67 0.2019230769229353 0.01250000000000587 0
68 0.2211538461537702 0.0124999999999978 0
69 0.01242281527994784 0.01250000000000639 0
70 0.2375771847200188 0.01249999999999765 0
2 2 0 13
71 0.3557692307692443 0.01249999999999607 0
72 0.4519230769230379 0.01250000000001341 0
73 0.375000000000009 0.01249999999998307 0
74 0.4134615384615126 0.01250000000000356 0
75 0.3365384615384859 0.01249999999999608 0
76 0.4326923076922754 0.01250000000000283 0
77 0.3942307692307451 0.01250000000000349 0
78 0.4711538461538341 0.01249999999999731 0
79 0.2980769230769215 0.01250000000000612 0
80 0.3173076923077274 0.01250000000001324 0
81 0.2788461538461147 0.01250000000001007 0
82 0.4875771847200361 0.01250000000000324 0
83 0.2624228152799507 0.01249999999999517 0
$EndNodes
$Elements
15 172
1 0 15 1
1 1 
2 0 15 1
2 2 
3 0 15 1
3 3 
4 0 15 1
4 4 
5 0 15 1
5 5 
6 0 15 1
6 6 
1 1 1 13
7 1 7 
8 7 8 
9 8 9 
10 9 10 
11 10 11 
12 11 12 
13 12 13 
14 13 14 
15 14 15 
16 15 16 
17 16 17 
18 17 18 
19 18 2 
2 1 1 2
20 2 19 
21 19 3 
3 1 1 13
22 3 20 
23 20 21 
24 21 22 
25 22 23 
26 23 24 
27 24 25 
28 25 26 
29 26 27 
30 27 28 
31 28 29 
32 29 30 
33 30 31 
34 31 4 
4 1 1 2
35 4 32 
36 32 1 
5 1 1 13
37 5 33 
38 33 34 
39 34 35 
40 35 36 
41 36 37 
42 37 38 
43 38 39 
44 39 40 
45 40 41 
46 41 42 
47 42 43 
48 43 44 
49 44 2 
6 1 1 2
50 6 45 
51 45 5 
7 1 1 13
52 3 46 
53 46 47 
54 47 48 
55 48 49 
56 49 50 
57 50 51 
58 51 52 
59 52 53 
60 53 54 
61 54 55 
62 55 56 
63 56 57 
64 57 6 
1 2 2 54
65 4 32 69 
66 2 19 70 
67 32 1 69 
68 19 3 70 
69 31 4 69 
70 18 2 70 
71 1 7 69 
72 3 20 70 
73 27 28 58 
74 24 25 64 
75 29 30 59 
76 25 60 64 
77 25 26 60 
78 58 28 61 
79 12 13 60 
80 27 58 62 
81 58 11 62 
82 60 13 64 
83 10 58 61 
84 8 59 63 
85 29 59 61 
86 59 30 63 
87 59 9 61 
88 10 11 58 
89 7 8 63 
90 60 26 62 
91 8 9 59 
92 11 12 62 
93 9 10 61 
94 13 14 64 
95 24 64 65 
96 28 29 61 
97 26 27 62 
98 30 31 63 
99 12 60 62 
100 64 14 65 
101 67 17 68 
102 21 22 67 
103 21 67 68 
104 22 66 67 
105 66 16 67 
106 15 16 66 
107 23 24 65 
108 16 17 67 
109 14 15 65 
110 22 23 66 
111 20 21 68 
112 23 65 66 
113 17 18 68 
114 65 15 66 
115 7 63 69 
116 63 31 69 
117 68 18 70 
118 20 68 70 
2 2 2 54
119 2 19 83 
120 45 5 82 
121 19 3 83 
122 6 45 82 
123 57 6 82 
124 44 2 83 
125 5 33 82 
126 3 46 83 
127 55 56 72 
128 50 51 71 
129 53 54 74 
130 55 72 76 
131 71 51 73 
132 34 72 78 
133 74 37 77 
134 50 71 75 
135 72 56 78 
136 47 48 79 
137 53 74 77 
138 42 79 80 
139 72 35 76 
140 52 53 77 
141 71 40 75 
142 48 49 80 
143 74 54 76 
144 79 43 81 
145 34 35 72 
146 39 40 71 
147 39 71 73 
148 47 79 81 
149 35 36 76 
150 36 37 74 
151 51 52 73 
152 49 75 80 
153 73 52 77 
154 40 41 75 
155 38 39 73 
156 79 48 80 
157 49 50 75 
158 54 55 76 
159 43 44 81 
160 37 38 77 
161 33 34 78 
162 56 57 78 
163 41 42 80 
164 42 43 79 
165 46 47 81 
166 75 41 80 
167 36 74 76 
168 38 73 77 
169 78 57 82 
170 33 78 82 
171 46 81 83 
172 81 44 83 
$EndElements
$Periodic
7
0 3 2
Affine 1 0 0 0 0 1 0 0.025 0 0 1 0 0 0 0 1
1
3 2
0 4 1
Affine 1 0 0 0 0 1 0 0.025 0 0 1 0 0 0 0 1
1
4 1
0 5 1
Affine 1 0 0 0.5 0 1 0 0 0 0 1 0 0 0 0 1
1
5 1
0 6 5
Affine 1 0 0 0 0 1 0 0.025 0 0 1 0 0 0 0 1
1
6 5
1 3 1
Affine 1 0 0 0 0 1 0 0.025 0 0 1 0 0 0 0 1
14
3 2
4 1
20 18
21 17
22 16
23 15
24 14
25 13
26 12
27 11
28 10
29 9
30 8
31 7
1 6 4
Affine 1 0 0 0.5 0 1 0 0 0 0 1 0 0 0 0 1
3
5 1
6 4
45 32
1 7 5
Affine 1 0 0 0 0 1 0 0.025 0 0 1 0 0 0 0 1
14
3 2
6 5
46 44
47 43
48 42
49 41
50 40
51 39
52 38
53 37
54 36
55 35
56 34
57 33
$EndPeriodic
