$MeshFormat
4 0 8
$EndMeshFormat
$PhysicalNames
9
1 3 "LEFT_INFLOW"
1 4 "RIGHT_INFLOW"
1 5 "BOTTOM_INFLOW_1"
1 6 "BOTTOM_INFLOW_2"
1 7 "TOP_INFLOW_1"
1 8 "TOP_INFLOW_2"
1 9 "SHOCK"
2 1 "surface1"
2 2 "surface2"
$EndPhysicalNames
$Entities
6 7 2 0
1 0 0 0 0 0 0 0 
2 0.25 0 0 0.25 0 0 0 
3 0.25 0.025 0 0.25 0.025 0 0 
4 0 0.025 0 0 0.025 0 0 
5 0.5 0 0 0.5 0 0 0 
6 0.5 0.025 0 0.5 0.025 0 0 
1 0 0 0 0.25 0 0 1 5 2 1 -2 
2 0.25 0 0 0.25 0.025 0 1 9 2 2 -3 
3 0 0.025 0 0.25 0.025 0 1 7 2 3 -4 
4 0 0 0 0 0.025 0 1 3 2 4 -1 
5 0.25 0 0 0.5 0 0 1 6 2 5 -2 
6 0.5 0 0 0.5 0.025 0 1 4 2 6 -5 
7 0.25 0.025 0 0.5 0.025 0 1 8 2 3 -6 
1 0 0 0 0.25 0.025 0 1 1 4 1 2 3 4 
2 0.25 0 0 0.5 0.025 0 1 2 4 2 7 6 5 
$EndEntities
$Nodes
15 212
1 0 0 1
1 0 0 0
2 0 0 1
2 0.25 0 0
3 0 0 1
3 0.25 0.025 0
4 0 0 1
4 0 0.025 0
5 0 0 1
5 0.5 0 0
6 0 0 1
6 0.5 0.025 0
1 1 0 24
7 0.009999999999980465 0 0
8 0.0199999999999613 0 0
9 0.02999999999994579 0 0
10 0.03999999999991862 0 0
11 0.04999999999988947 0 0
12 0.05999999999986032 0 0
13 0.06999999999983118 0 0
14 0.07999999999980204 0 0
15 0.08999999999977287 0 0
16 0.09999999999974372 0 0
17 0.1099999999997146 0 0
18 0.1199999999996854 0 0
19 0.129999999999684 0 0
20 0.1399999999997104 0 0
21 0.1499999999997367 0 0
22 0.159999999999763 0 0
23 0.1699999999997893 0 0
24 0.1799999999998157 0 0
25 0.189999999999842 0 0
26 0.1999999999998683 0 0
27 0.2099999999998947 0 0
28 0.219999999999921 0 0
29 0.2299999999999474 0 0
30 0.2399999999999737 0 0
2 1 0 2
31 0.25 0.008333333333312761 0
32 0.25 0.0166666666666443 0
3 1 0 24
33 0.2399999999999712 0.025 0
34 0.2299999999999424 0.025 0
35 0.2199999999999552 0.025 0
36 0.2099999999998847 0.025 0
37 0.2 0.025 0
38 0.1899999999998256 0.025 0
39 0.1799999999997829 0.025 0
40 0.1699999999997819 0.025 0
41 0.1599999999998085 0.025 0
42 0.15 0.025 0
43 0.1399999999997079 0.025 0
44 0.129999999999679 0.025 0
45 0.1199999999997196 0.025 0
46 0.1099999999997601 0.025 0
47 0.09999999999999998 0.025 0
48 0.08999999999978425 0.025 0
49 0.07999999999982479 0.025 0
50 0.06999999999986531 0.025 0
51 0.05999999999990582 0.025 0
52 0.04999999999999999 0.025 0
53 0.03999999999993001 0.025 0
54 0.02999999999996855 0.025 0
55 0.01999999999999544 0.025 0
56 0.01000000000002599 0.025 0
4 1 0 2
57 0 0.01666666666668971 0
58 0 0.008333333333356594 0
5 1 0 24
59 0.49 0 0
60 0.48 0 0
61 0.47 0 0
62 0.4600000000000001 0 0
63 0.4500000000000001 0 0
64 0.4400000000000001 0 0
65 0.4300000000000002 0 0
66 0.4200000000000002 0 0
67 0.4100000000000002 0 0
68 0.4000000000000002 0 0
69 0.3900000000000002 0 0
70 0.3800000000000002 0 0
71 0.3700000000000001 0 0
72 0.3600000000000001 0 0
73 0.3500000000000001 0 0
74 0.3400000000000001 0 0
75 0.3300000000000001 0 0
76 0.3200000000000001 0 0
77 0.3100000000000001 0 0
78 0.3 0 0
79 0.29 0 0
80 0.28 0 0
81 0.27 0 0
82 0.26 0 0
6 1 0 2
83 0.5 0.01666666666668929 0
84 0.5 0.008333333333361542 0
7 1 0 24
85 0.2600000000000164 0.025 0
86 0.2699999999999773 0.025 0
87 0.2799999999999659 0.025 0
88 0.2899999999999545 0.025 0
89 0.3 0.025 0
90 0.3100000000000165 0.025 0
91 0.3200000000000328 0.025 0
92 0.3300000000000492 0.025 0
93 0.3399999999999546 0.025 0
94 0.35 0.025 0
95 0.3599999999999887 0.025 0
96 0.3700000000000329 0.025 0
97 0.3799999999998828 0.025 0
98 0.3900000000000657 0.025 0
99 0.4 0.025 0
100 0.4099999999999888 0.025 0
101 0.4199999999999774 0.025 0
102 0.4300000000000493 0.025 0
103 0.4399999999998436 0.025 0
104 0.45 0.025 0
105 0.4600000000000165 0.025 0
106 0.4699999999999773 0.025 0
107 0.4799999999999659 0.025 0
108 0.4900000000000655 0.025 0
1 2 0 52
109 0.007187426202353201 0.01260930036143329 0
110 0.2428125737976393 0.01239069963856508 0
111 0.10499999999988 0.01633974596236336 0
112 0.1549999999999043 0.01633974596232144 0
113 0.2049999999999422 0.01633974596225551 0
114 0.0549999999999529 0.01633974596223717 0
115 0.08499999999980455 0.01633974596219073 0
116 0.03499999999994927 0.01633974596218899 0
117 0.1249999999996994 0.01633974596219073 0
118 0.1749999999997824 0.01633974596216669 0
119 0.2232305026309445 0.01672603600034278 0
120 0.1449999999997235 0.008660254037867181 0
121 0.1949999999998552 0.008660254037867181 0
122 0.1149999999997 0.008660254037819143 0
123 0.07499999999981662 0.008660254037819136 0
124 0.0267694973689509 0.008273963999668017 0
125 0.2149999999999077 0.008660254037867193 0
126 0.09499999999975828 0.008660254037819136 0
127 0.04499999999990406 0.008660254037819136 0
128 0.1649999999997762 0.008660254037867181 0
129 0.1333333333330325 0.00833333333334794 0
130 0.1833333333331503 0.008333333333342473 0
131 0.06666666666653856 0.01666666666667948 0
132 0.2343830157860076 0.01669596196416405 0
133 0.01561698421393485 0.008304038035811784 0
134 0.01401899788348668 0.0179617187102562 0
135 0.2359810021164789 0.00703828128973751 0
136 0.1049999999997593 0.006732050807600328 0
137 0.09499999999984542 0.01826794919247464 0
138 0.1149999999997518 0.01826794919247465 0
139 0.1549999999997808 0.006732050807611161 0
140 0.1449999999998058 0.0185190265585417 0
141 0.04499999999994725 0.01826794919244906 0
142 0.0549999999998905 0.00648097344151746 0
143 0.1649999999998107 0.01826794919247106 0
144 0.06361111111098167 0.008024606684708873 0
145 0.2049999999998936 0.006732050807597977 0
146 0.2146461005261268 0.01834520720009309 0
147 0.08499999999979087 0.0067320508075658 0
148 0.07533333333316997 0.01833333333333787 0
149 0.1949999999998855 0.01851902655853024 0
150 0.03535389947373373 0.006654792799935231 0
151 0.02356757991104761 0.01681324445132083 0
152 0.1246666666663603 0.006666666666671562 0
153 0.136388888888608 0.01697539331532459 0
154 0.2264324200888679 0.008186755548685254 0
155 0.1746666666664628 0.006666666666675269 0
156 0.1863888888887137 0.01697539331531776 0
157 0.006309576884628625 0.01926184107179767 0
158 0.006560882083253704 0.005849334346120333 0
159 0.2434391179167237 0.01915066565387469 0
160 0.2436904231153711 0.005738158928203436 0
2 2 0 52
161 0.492812573797644 0.01260930036143793 0
162 0.2571874262023552 0.01239069963856787 0
163 0.4349999999999466 0.01633974596233377 0
164 0.3749999999999582 0.0163397459622856 0
165 0.3366666666666703 0.01666666666668357 0
166 0.3950000000000337 0.01633974596221248 0
167 0.4649999999999972 0.0163397459621895 0
168 0.2767694973689749 0.01672603600033973 0
169 0.3549999999999948 0.01633974596216537 0
170 0.414999999999983 0.01633974596216551 0
171 0.2933333333333173 0.01666666666666287 0
172 0.3150000000000001 0.008660254037844345 0
173 0.4450000000000002 0.008660254037844345 0
174 0.3850000000000003 0.008660254037844393 0
175 0.4732305026310013 0.00827396399967225 0
176 0.4250000000000008 0.008660254037844345 0
177 0.3649999999999997 0.008660254037844393 0
178 0.3450000000000005 0.008660254037844393 0
179 0.4050000000000007 0.008660254037844393 0
180 0.2850146901003218 0.009399652839214586 0
181 0.3049999999999892 0.01633974596213571 0
182 0.4566666666666677 0.008333333333342323 0
183 0.3250000000000409 0.01633974596220507 0
184 0.4843830157860386 0.008304038035826572 0
185 0.2656169842139459 0.01669596196418376 0
186 0.4859810021165121 0.01796171871025812 0
187 0.2640189978834876 0.007038281289743971 0
188 0.4349999999999896 0.006732050807604493 0
189 0.3849999999999882 0.0182679491924685 0
190 0.4449999999999597 0.01851902655853785 0
191 0.3749999999999917 0.006732050807594878 0
192 0.4249999999999914 0.01826794919246872 0
193 0.3649999999999948 0.01826794919245907 0
194 0.3336111111111186 0.00817858897904172 0
195 0.3453333333333241 0.01833333333333867 0
196 0.395000000000007 0.006732050807580253 0
197 0.3247222222222319 0.006635717795818227 0
198 0.4050000000000012 0.01826794919244448 0
199 0.4649794338595333 0.006589408659040813 0
200 0.4536111111111069 0.016975393315319 0
201 0.4764324200889154 0.01681324445132441 0
202 0.2735700282611216 0.008309988682247008 0
203 0.4149999999999969 0.00673205080757085 0
204 0.3549999999999991 0.00673205080757083 0
205 0.2850235041605069 0.01855847110124344 0
206 0.2963913372389382 0.008301822112582093 0
207 0.3150000000000159 0.01826794919243703 0
208 0.3052782674477855 0.006660364422512429 0
209 0.2565608820832635 0.01915066565387919 0
210 0.4934391179167366 0.005849334346125209 0
211 0.4936904231153872 0.01926184107177576 0
212 0.2563095768846247 0.005738158928209786 0
$EndNodes
$Elements
15 431
1 0 15 1
1 1 
2 0 15 1
2 2 
3 0 15 1
3 3 
4 0 15 1
4 4 
5 0 15 1
5 5 
6 0 15 1
6 6 
1 1 1 25
7 1 7 
8 7 8 
9 8 9 
10 9 10 
11 10 11 
12 11 12 
13 12 13 
14 13 14 
15 14 15 
16 15 16 
17 16 17 
18 17 18 
19 18 19 
20 19 20 
21 20 21 
22 21 22 
23 22 23 
24 23 24 
25 24 25 
26 25 26 
27 26 27 
28 27 28 
29 28 29 
30 29 30 
31 30 2 
2 1 1 3
32 2 31 
33 31 32 
34 32 3 
3 1 1 25
35 3 33 
36 33 34 
37 34 35 
38 35 36 
39 36 37 
40 37 38 
41 38 39 
42 39 40 
43 40 41 
44 41 42 
45 42 43 
46 43 44 
47 44 45 
48 45 46 
49 46 47 
50 47 48 
51 48 49 
52 49 50 
53 50 51 
54 51 52 
55 52 53 
56 53 54 
57 54 55 
58 55 56 
59 56 4 
4 1 1 3
60 4 57 
61 57 58 
62 58 1 
5 1 1 25
63 5 59 
64 59 60 
65 60 61 
66 61 62 
67 62 63 
68 63 64 
69 64 65 
70 65 66 
71 66 67 
72 67 68 
73 68 69 
74 69 70 
75 70 71 
76 71 72 
77 72 73 
78 73 74 
79 74 75 
80 75 76 
81 76 77 
82 77 78 
83 78 79 
84 79 80 
85 80 81 
86 81 82 
87 82 2 
6 1 1 3
88 6 83 
89 83 84 
90 84 5 
7 1 1 25
91 3 85 
92 85 86 
93 86 87 
94 87 88 
95 88 89 
96 89 90 
97 90 91 
98 91 92 
99 92 93 
100 93 94 
101 94 95 
102 95 96 
103 96 97 
104 97 98 
105 98 99 
106 99 100 
107 100 101 
108 101 102 
109 102 103 
110 103 104 
111 104 105 
112 105 106 
113 106 107 
114 107 108 
115 108 6 
1 2 2 158
116 120 140 153 
117 121 149 156 
118 129 120 153 
119 130 121 156 
120 131 114 144 
121 114 142 144 
122 134 133 151 
123 135 132 154 
124 133 124 151 
125 132 119 154 
126 111 126 136 
127 126 111 137 
128 120 112 140 
129 112 120 139 
130 127 114 141 
131 122 111 136 
132 114 127 142 
133 113 121 145 
134 121 113 149 
135 111 122 138 
136 122 117 138 
137 115 126 137 
138 117 122 152 
139 128 112 139 
140 125 113 145 
141 113 125 146 
142 115 123 147 
143 112 128 143 
144 123 115 148 
145 116 124 150 
146 116 127 141 
147 124 116 151 
148 123 131 144 
149 126 115 147 
150 125 119 146 
151 131 123 148 
152 129 117 152 
153 127 116 150 
154 128 118 143 
155 117 129 153 
156 119 125 154 
157 130 118 155 
158 118 130 156 
159 118 128 155 
160 20 120 129 
161 22 23 128 
162 17 18 122 
163 19 20 129 
164 25 121 130 
165 20 21 120 
166 27 28 125 
167 25 26 121 
168 15 16 126 
169 24 25 130 
170 8 9 124 
171 50 51 131 
172 10 11 127 
173 13 14 123 
174 39 40 118 
175 53 54 116 
176 48 49 115 
177 51 114 131 
178 34 35 119 
179 44 45 117 
180 51 52 114 
181 36 37 113 
182 46 47 111 
183 41 42 112 
184 33 34 132 
185 7 8 133 
186 48 115 137 
187 111 47 137 
188 112 42 140 
189 17 122 136 
190 126 16 136 
191 22 128 139 
192 120 21 139 
193 53 116 141 
194 113 37 149 
195 114 52 141 
196 27 125 145 
197 122 18 152 
198 121 26 145 
199 117 45 138 
200 19 129 152 
201 119 35 146 
202 46 111 138 
203 127 11 142 
204 36 113 146 
205 118 40 143 
206 128 23 155 
207 15 126 147 
208 13 123 144 
209 125 28 154 
210 124 9 150 
211 10 127 150 
212 123 14 147 
213 44 117 153 
214 116 54 151 
215 115 49 148 
216 24 130 155 
217 41 112 143 
218 50 131 148 
219 39 118 156 
220 34 119 132 
221 8 124 133 
222 57 58 109 
223 31 32 110 
224 56 4 157 
225 30 2 160 
226 3 33 159 
227 1 7 158 
228 29 135 154 
229 55 134 151 
230 55 56 134 
231 29 30 135 
232 109 133 134 
233 110 132 135 
234 33 132 159 
235 7 133 158 
236 47 48 137 
237 42 43 140 
238 37 38 149 
239 45 46 138 
240 52 53 141 
241 140 43 153 
242 16 17 136 
243 35 36 146 
244 40 41 143 
245 21 22 139 
246 142 12 144 
247 11 12 142 
248 149 38 156 
249 12 13 144 
250 26 27 145 
251 18 19 152 
252 49 50 148 
253 54 55 151 
254 14 15 147 
255 9 10 150 
256 43 44 153 
257 38 39 156 
258 28 29 154 
259 23 24 155 
260 132 110 159 
261 133 109 158 
262 58 1 158 
263 4 57 157 
264 32 3 159 
265 2 31 160 
266 109 134 157 
267 110 135 160 
268 134 56 157 
269 135 30 160 
270 57 109 157 
271 109 58 158 
272 110 32 159 
273 31 110 160 
2 2 2 158
274 173 190 200 
275 182 173 200 
276 183 165 194 
277 183 194 197 
278 206 181 208 
279 171 181 206 
280 186 184 201 
281 187 185 202 
282 184 175 201 
283 185 168 202 
284 163 173 188 
285 173 163 190 
286 174 164 189 
287 164 174 191 
288 176 163 188 
289 163 176 192 
290 166 174 189 
291 177 164 191 
292 164 177 193 
293 174 166 196 
294 165 178 194 
295 178 165 195 
296 176 170 192 
297 172 183 197 
298 183 172 207 
299 182 167 199 
300 177 169 193 
301 167 182 200 
302 166 179 196 
303 167 175 199 
304 168 180 202 
305 175 167 201 
306 180 168 205 
307 179 166 198 
308 170 176 203 
309 169 178 195 
310 169 177 204 
311 178 169 204 
312 170 179 198 
313 179 170 203 
314 172 181 207 
315 181 172 208 
316 171 180 205 
317 180 171 206 
318 63 173 182 
319 88 89 171 
320 63 64 173 
321 91 92 183 
322 69 70 174 
323 62 63 182 
324 65 66 176 
325 89 90 181 
326 71 72 177 
327 73 74 178 
328 60 61 175 
329 67 68 179 
330 86 87 168 
331 171 89 181 
332 92 165 183 
333 79 80 180 
334 100 101 170 
335 94 95 169 
336 76 77 172 
337 105 106 167 
338 98 99 166 
339 92 93 165 
340 96 97 164 
341 102 103 163 
342 85 86 185 
343 59 60 184 
344 98 166 189 
345 164 97 189 
346 173 64 188 
347 163 103 190 
348 65 176 188 
349 170 101 192 
350 174 70 191 
351 71 177 191 
352 102 163 192 
353 169 95 193 
354 94 169 195 
355 178 74 194 
356 69 174 196 
357 96 164 193 
358 165 93 195 
359 62 182 199 
360 179 68 196 
361 181 90 207 
362 88 171 205 
363 176 66 203 
364 175 61 199 
365 105 167 200 
366 177 72 204 
367 76 172 197 
368 73 178 204 
369 100 170 198 
370 67 179 203 
371 180 80 202 
372 166 99 198 
373 167 106 201 
374 79 180 206 
375 168 87 205 
376 172 77 208 
377 91 183 207 
378 60 175 184 
379 86 168 185 
380 83 84 161 
381 31 32 162 
382 3 85 209 
383 82 2 212 
384 5 59 210 
385 108 6 211 
386 107 186 201 
387 81 187 202 
388 107 108 186 
389 81 82 187 
390 161 184 186 
391 162 185 187 
392 85 185 209 
393 59 184 210 
394 97 98 189 
395 103 104 190 
396 101 102 192 
397 95 96 193 
398 190 104 200 
399 93 94 195 
400 64 65 188 
401 70 71 191 
402 74 75 194 
403 194 75 197 
404 99 100 198 
405 104 105 200 
406 68 69 196 
407 75 76 197 
408 106 107 201 
409 61 62 199 
410 80 81 202 
411 66 67 203 
412 72 73 204 
413 87 88 205 
414 78 79 206 
415 78 206 208 
416 90 91 207 
417 77 78 208 
418 184 161 210 
419 185 162 209 
420 32 3 209 
421 84 5 210 
422 6 83 211 
423 2 31 212 
424 161 186 211 
425 162 187 212 
426 186 108 211 
427 187 82 212 
428 162 32 209 
429 161 84 210 
430 83 161 211 
431 31 162 212 
$EndElements
$Periodic
7
0 3 2
Affine 1 0 0 0 0 1 0 0.025 0 0 1 0 0 0 0 1
1
3 2
0 4 1
Affine 1 0 0 0 0 1 0 0.025 0 0 1 0 0 0 0 1
1
4 1
0 5 1
Affine 1 0 0 0.5 0 1 0 0 0 0 1 0 0 0 0 1
1
5 1
0 6 5
Affine 1 0 0 0 0 1 0 0.025 0 0 1 0 0 0 0 1
1
6 5
1 3 1
Affine 1 0 0 0 0 1 0 0.025 0 0 1 0 0 0 0 1
26
3 2
4 1
33 30
34 29
35 28
36 27
37 26
38 25
39 24
40 23
41 22
42 21
43 20
44 19
45 18
46 17
47 16
48 15
49 14
50 13
51 12
52 11
53 10
54 9
55 8
56 7
1 6 4
Affine 1 0 0 0.5 0 1 0 0 0 0 1 0 0 0 0 1
4
5 1
6 4
83 57
84 58
1 7 5
Affine 1 0 0 0 0 1 0 0.025 0 0 1 0 0 0 0 1
26
3 2
6 5
85 82
86 81
87 80
88 79
89 78
90 77
91 76
92 75
93 74
94 73
95 72
96 71
97 70
98 69
99 68
100 67
101 66
102 65
103 64
104 63
105 62
106 61
107 60
108 59
$EndPeriodic
