$MeshFormat
4 0 8
$EndMeshFormat
$PhysicalNames
9
1 3 "LEFT_INFLOW"
1 4 "RIGHT_INFLOW"
1 5 "BOTTOM_INFLOW_1"
1 6 "BOTTOM_INFLOW_2"
1 7 "TOP_INFLOW_1"
1 8 "TOP_INFLOW_2"
1 9 "SHOCK"
2 1 "surface1"
2 2 "surface2"
$EndPhysicalNames
$Entities
6 7 2 0
1 0 0 0 0 0 0 0 
2 0.25 0 0 0.25 0 0 0 
3 0.25 0.025 0 0.25 0.025 0 0 
4 0 0.025 0 0 0.025 0 0 
5 0.5 0 0 0.5 0 0 0 
6 0.5 0.025 0 0.5 0.025 0 0 
1 0 0 0 0.25 0 0 1 5 2 1 -2 
2 0.25 0 0 0.25 0.025 0 1 9 2 2 -3 
3 0 0.025 0 0.25 0.025 0 1 7 2 3 -4 
4 0 0 0 0 0.025 0 1 3 2 4 -1 
5 0.25 0 0 0.5 0 0 1 6 2 5 -2 
6 0.5 0 0 0.5 0.025 0 1 4 2 6 -5 
7 0.25 0.025 0 0.5 0.025 0 1 8 2 3 -6 
1 0 0 0 0.25 0.025 0 1 1 4 1 2 3 4 
2 0.25 0 0 0.5 0.025 0 1 2 4 2 7 6 5 
$EndEntities
$Nodes
15 19
1 0 0 1
1 0 0 0
2 0 0 1
2 0.25 0 0
3 0 0 1
3 0.25 0.025 0
4 0 0 1
4 0 0.025 0
5 0 0 1
5 0.5 0 0
6 0 0 1
6 0.5 0.025 0
1 1 0 3
7 0.06249999999985303 0 0
8 0.1249999999996736 0 0
9 0.1874999999998354 0 0
2 1 0 0
3 1 0 3
10 0.1875 0.025 0
11 0.125 0.025 0
12 0.0625 0.025 0
4 1 0 0
5 1 0 3
13 0.4375000000000001 0 0
14 0.3750000000000001 0 0
15 0.3125000000000001 0 0
6 1 0 0
7 1 0 3
16 0.3125 0.025 0
17 0.375 0.025 0
18 0.4375 0.025 0
1 2 0 1
19 0.03124999999996326 0.0125 0
2 2 0 0
$EndNodes
$Elements
15 43
1 0 15 1
1 1 
2 0 15 1
2 2 
3 0 15 1
3 3 
4 0 15 1
4 4 
5 0 15 1
5 5 
6 0 15 1
6 6 
1 1 1 4
7 1 7 
8 7 8 
9 8 9 
10 9 2 
2 1 1 1
11 2 3 
3 1 1 4
12 3 10 
13 10 11 
14 11 12 
15 12 4 
4 1 1 1
16 4 1 
5 1 1 4
17 5 13 
18 13 14 
19 14 15 
20 15 2 
6 1 1 1
21 6 5 
7 1 1 4
22 3 16 
23 16 17 
24 17 18 
25 18 6 
1 2 2 10
26 7 12 19 
27 4 1 19 
28 1 7 19 
29 12 4 19 
30 3 10 2 
31 2 10 9 
32 12 7 8 
33 11 8 9 
34 11 12 8 
35 10 11 9 
2 2 2 8
36 2 3 16 
37 15 2 16 
38 13 6 5 
39 13 18 6 
40 14 18 13 
41 14 15 17 
42 18 14 17 
43 17 15 16 
$EndElements
$Periodic
7
0 3 2
Affine 1 0 0 0 0 1 0 0.025 0 0 1 0 0 0 0 1
1
3 2
0 4 1
Affine 1 0 0 0 0 1 0 0.025 0 0 1 0 0 0 0 1
1
4 1
0 5 1
Affine 1 0 0 0.5 0 1 0 0 0 0 1 0 0 0 0 1
1
5 1
0 6 5
Affine 1 0 0 0 0 1 0 0.025 0 0 1 0 0 0 0 1
1
6 5
1 3 1
Affine 1 0 0 0 0 1 0 0.025 0 0 1 0 0 0 0 1
5
3 2
4 1
10 9
11 8
12 7
1 6 4
Affine 1 0 0 0.5 0 1 0 0 0 0 1 0 0 0 0 1
2
5 1
6 4
1 7 5
Affine 1 0 0 0 0 1 0 0.025 0 0 1 0 0 0 0 1
5
3 2
6 5
16 15
17 14
18 13
$EndPeriodic
