$MeshFormat
4 0 8
$EndMeshFormat
$PhysicalNames
9
1 3 "LEFT_INFLOW"
1 4 "RIGHT_INFLOW"
1 5 "BOTTOM_INFLOW_1"
1 6 "BOTTOM_INFLOW_2"
1 7 "TOP_INFLOW_1"
1 8 "TOP_INFLOW_2"
1 9 "SHOCK"
2 1 "surface1"
2 2 "surface2"
$EndPhysicalNames
$Entities
6 7 2 0
1 0 0 0 0 0 0 0 
2 0.25 0 0 0.25 0 0 0 
3 0.25 0.025 0 0.25 0.025 0 0 
4 0 0.025 0 0 0.025 0 0 
5 0.5 0 0 0.5 0 0 0 
6 0.5 0.025 0 0.5 0.025 0 0 
1 0 0 0 0.25 0 0 1 5 2 1 -2 
2 0.25 0 0 0.25 0.025 0 1 9 2 2 -3 
3 0 0.025 0 0.25 0.025 0 1 7 2 3 -4 
4 0 0 0 0 0.025 0 1 3 2 4 -1 
5 0.25 0 0 0.5 0 0 1 6 2 5 -2 
6 0.5 0 0 0.5 0.025 0 1 4 2 6 -5 
7 0.25 0.025 0 0.5 0.025 0 1 8 2 3 -6 
1 0 0 0 0.25 0.025 0 1 1 4 1 2 3 4 
2 0.25 0 0 0.5 0.025 0 1 2 4 2 7 6 5 
$EndEntities
$Nodes
15 10
1 0 0 1
1 0 0 0
2 0 0 1
2 0.25 0 0
3 0 0 1
3 0.25 0.025 0
4 0 0 1
4 0 0.025 0
5 0 0 1
5 0.5 0 0
6 0 0 1
6 0.5 0.025 0
1 1 0 1
7 0.1249999999996732 0 0
2 1 0 0
3 1 0 1
8 0.125 0.025 0
4 1 0 0
5 1 0 1
9 0.375 0 0
6 1 0 0
7 1 0 1
10 0.375 0.025 0
1 2 0 0
2 2 0 0
$EndNodes
$Elements
15 25
1 0 15 1
1 1 
2 0 15 1
2 2 
3 0 15 1
3 3 
4 0 15 1
4 4 
5 0 15 1
5 5 
6 0 15 1
6 6 
1 1 1 2
7 1 7 
8 7 2 
2 1 1 1
9 2 3 
3 1 1 2
10 3 8 
11 8 4 
4 1 1 1
12 4 1 
5 1 1 2
13 5 9 
14 9 2 
6 1 1 1
15 6 5 
7 1 1 2
16 3 10 
17 10 6 
1 2 2 4
18 1 7 4 
19 8 2 3 
20 2 8 7 
21 7 8 4 
2 2 2 4
22 3 9 2 
23 9 3 10 
24 9 6 5 
25 6 9 10 
$EndElements
$Periodic
7
0 3 2
Affine 1 0 0 0 0 1 0 0.025 0 0 1 0 0 0 0 1
1
3 2
0 4 1
Affine 1 0 0 0 0 1 0 0.025 0 0 1 0 0 0 0 1
1
4 1
0 5 1
Affine 1 0 0 0.5 0 1 0 0 0 0 1 0 0 0 0 1
1
5 1
0 6 5
Affine 1 0 0 0 0 1 0 0.025 0 0 1 0 0 0 0 1
1
6 5
1 3 1
Affine 1 0 0 0 0 1 0 0.025 0 0 1 0 0 0 0 1
3
3 2
4 1
8 7
1 6 4
Affine 1 0 0 0.5 0 1 0 0 0 0 1 0 0 0 0 1
2
5 1
6 4
1 7 5
Affine 1 0 0 0 0 1 0 0.025 0 0 1 0 0 0 0 1
3
3 2
6 5
10 9
$EndPeriodic
