$MeshFormat
4 0 8
$EndMeshFormat
$PhysicalNames
9
1 3 "LEFT_INFLOW"
1 4 "RIGHT_INFLOW"
1 5 "BOTTOM_INFLOW_1"
1 6 "BOTTOM_INFLOW_2"
1 7 "TOP_INFLOW_1"
1 8 "TOP_INFLOW_2"
1 9 "SHOCK"
2 1 "surface1"
2 2 "surface2"
$EndPhysicalNames
$Entities
6 7 2 0
1 0 0 0 0 0 0 0 
2 0.25 0 0 0.25 0 0 0 
3 0.25 0.025 0 0.25 0.025 0 0 
4 0 0.025 0 0 0.025 0 0 
5 0.5 0 0 0.5 0 0 0 
6 0.5 0.025 0 0.5 0.025 0 0 
1 0 0 0 0.25 0 0 1 5 2 1 -2 
2 0.25 0 0 0.25 0.025 0 1 9 2 2 -3 
3 0 0.025 0 0.25 0.025 0 1 7 2 3 -4 
4 0 0 0 0 0.025 0 1 3 2 4 -1 
5 0.25 0 0 0.5 0 0 1 6 2 5 -2 
6 0.5 0 0 0.5 0.025 0 1 4 2 6 -5 
7 0.25 0.025 0 0.5 0.025 0 1 8 2 3 -6 
1 0 0 0 0.25 0.025 0 1 1 4 1 2 3 4 
2 0.25 0 0 0.5 0.025 0 1 2 4 2 7 6 5 
$EndEntities
$Nodes
15 14
1 0 0 1
1 0 0 0
2 0 0 1
2 0.25 0 0
3 0 0 1
3 0.25 0.025 0
4 0 0 1
4 0 0.025 0
5 0 0 1
5 0.5 0 0
6 0 0 1
6 0.5 0.025 0
1 1 0 2
7 0.08333333333312549 0 0
8 0.1666666666664472 0 0
2 1 0 0
3 1 0 2
9 0.166666666666443 0.025 0
10 0.08333333333316342 0.025 0
4 1 0 0
5 1 0 2
11 0.4166666666666667 0 0
12 0.3333333333333334 0 0
6 1 0 0
7 1 0 2
13 0.3333333333333607 0.025 0
14 0.4166666666666288 0.025 0
1 2 0 0
2 2 0 0
$EndNodes
$Elements
15 33
1 0 15 1
1 1 
2 0 15 1
2 2 
3 0 15 1
3 3 
4 0 15 1
4 4 
5 0 15 1
5 5 
6 0 15 1
6 6 
1 1 1 3
7 1 7 
8 7 8 
9 8 2 
2 1 1 1
10 2 3 
3 1 1 3
11 3 9 
12 9 10 
13 10 4 
4 1 1 1
14 4 1 
5 1 1 3
15 5 11 
16 11 12 
17 12 2 
6 1 1 1
18 6 5 
7 1 1 3
19 3 13 
20 13 14 
21 14 6 
1 2 2 6
22 7 4 1 
23 8 2 3 
24 9 8 3 
25 10 4 7 
26 10 7 8 
27 9 10 8 
2 2 2 6
28 12 2 3 
29 13 12 3 
30 5 11 6 
31 6 11 14 
32 11 12 14 
33 12 13 14 
$EndElements
$Periodic
7
0 3 2
Affine 1 0 0 0 0 1 0 0.025 0 0 1 0 0 0 0 1
1
3 2
0 4 1
Affine 1 0 0 0 0 1 0 0.025 0 0 1 0 0 0 0 1
1
4 1
0 5 1
Affine 1 0 0 0.5 0 1 0 0 0 0 1 0 0 0 0 1
1
5 1
0 6 5
Affine 1 0 0 0 0 1 0 0.025 0 0 1 0 0 0 0 1
1
6 5
1 3 1
Affine 1 0 0 0 0 1 0 0.025 0 0 1 0 0 0 0 1
4
3 2
4 1
9 8
10 7
1 6 4
Affine 1 0 0 0.5 0 1 0 0 0 0 1 0 0 0 0 1
2
5 1
6 4
1 7 5
Affine 1 0 0 0 0 1 0 0.025 0 0 1 0 0 0 0 1
4
3 2
6 5
13 12
14 11
$EndPeriodic
