$MeshFormat
4 0 8
$EndMeshFormat
$PhysicalNames
9
1 3 "LEFT_INFLOW"
1 4 "RIGHT_INFLOW"
1 5 "BOTTOM_INFLOW_1"
1 6 "BOTTOM_INFLOW_2"
1 7 "TOP_INFLOW_1"
1 8 "TOP_INFLOW_2"
1 9 "SHOCK"
2 1 "surface1"
2 2 "surface2"
$EndPhysicalNames
$Entities
6 7 2 0
1 0 0 0 0 0 0 0 
2 0.125 0 0 0.125 0 0 0 
3 0.875 0.5 0 0.875 0.5 0 0 
4 0 0.5 0 0 0.5 0 0 
5 1 0 0 1 0 0 0 
6 1 0.5 0 1 0.5 0 0 
1 0 0 0 0.125 0 0 1 5 2 1 -2 
2 0.125 0 0 0.875 0.5 0 1 9 2 2 -3 
3 0 0.5 0 0.875 0.5 0 1 7 2 3 -4 
4 0 0 0 0 0.5 0 1 3 2 4 -1 
5 0.125 0 0 1 0 0 1 6 2 5 -2 
6 1 0 0 1 0.5 0 1 4 2 6 -5 
7 0.875 0.5 0 1 0.5 0 1 8 2 3 -6 
1 0 0 0 0.875 0.5 0 1 1 4 1 2 3 4 
2 0.125 0 0 1 0.5 0 1 2 4 2 7 6 5 
$EndEntities
$Nodes
15 316
1 0 0 1
1 0 0 0
2 0 0 1
2 0.125 0 0
3 0 0 1
3 0.875 0.5 0
4 0 0 1
4 0 0.5 0
5 0 0 1
5 1 0 0
6 0 0 1
6 1 0.5 0
1 1 0 2
7 0.04166666666656282 0 0
8 0.08333333333322361 0 0
2 1 0 18
9 0.1644736842104006 0.02631578947360041 0
10 0.2039473684208056 0.05263157894720374 0
11 0.2434210526312017 0.07894736842080113 0
12 0.2828947368415914 0.1052631578943943 0
13 0.3223684210519812 0.1315789473679875 0
14 0.361842105262371 0.1578947368415807 0
15 0.4013157894727608 0.1842105263151738 0
16 0.4407894736831505 0.210526315788767 0
17 0.4802631578935401 0.2368421052623601 0
18 0.5197368421040647 0.2631578947360431 0
19 0.559210526314724 0.289473684209816 0
20 0.5986842105253835 0.315789473683589 0
21 0.6381578947360428 0.3421052631573618 0
22 0.6776315789467021 0.3684210526311347 0
23 0.7171052631573616 0.3947368421049077 0
24 0.7565789473680209 0.4210526315786806 0
25 0.7960526315786803 0.4473684210524536 0
26 0.8355263157893402 0.4736842105262268 0
3 1 0 17
27 0.8263888888889117 0.5 0
28 0.7777777777778234 0.5 0
29 0.7291666666667351 0.5 0
30 0.680555555555647 0.5 0
31 0.6319444444445588 0.5 0
32 0.5833333333334705 0.5 0
33 0.5347222222223822 0.5 0
34 0.4861111111112941 0.5 0
35 0.437500000000195 0.5 0
36 0.3888888888888093 0.5 0
37 0.3402777777776176 0.5 0
38 0.2916666666665293 0.5 0
39 0.2430555555554411 0.5 0
40 0.1944444444443529 0.5 0
41 0.1458333333332648 0.5 0
42 0.09722222222217636 0.5 0
43 0.04861111111108818 0.5 0
4 1 0 9
44 0 0.4499999999997918 0
45 0 0.3999999999999999 0
46 0 0.3500000000003467 0
47 0 0.3000000000006934 0
48 0 0.2500000000010293 0
49 0 0.2000000000008322 0
50 0 0.1500000000006241 0
51 0 0.1000000000004161 0
52 0 0.05000000000020799 0
5 1 0 17
53 0.9513888888889347 0 0
54 0.9027777777778693 0 0
55 0.854166666666804 0 0
56 0.8055555555557385 0 0
57 0.7569444444446733 0 0
58 0.7083333333336079 0 0
59 0.6597222222225427 0 0
60 0.6111111111114773 0 0
61 0.5625000000003904 0 0
62 0.5138888888887297 0 0
63 0.4652777777774572 0 0
64 0.4166666666663918 0 0
65 0.3680555555553267 0 0
66 0.3194444444442612 0 0
67 0.2708333333331959 0 0
68 0.2222222222221306 0 0
69 0.1736111111110653 0 0
6 1 0 9
70 1 0.4499999999997918 0
71 1 0.3999999999999999 0
72 1 0.3500000000003467 0
73 1 0.3000000000006934 0
74 1 0.2500000000010293 0
75 1 0.2000000000008322 0
76 1 0.1500000000006241 0
77 1 0.1000000000004161 0
78 1 0.05000000000020799 0
7 1 0 2
79 0.9166666666666666 0.5 0
80 0.9583333333333334 0.5 0
1 2 0 118
81 0.2034618344105688 0.2967114881502113 0
82 0.3543116842616578 0.3436129678565245 0
83 0.1369317218406776 0.1745387061312401 0
84 0.470030579855884 0.3762842880546003 0
85 0.1232570296161448 0.3856390913528038 0
86 0.3008295095558853 0.2480424226802958 0
87 0.257014819334269 0.3917811936377295 0
88 0.1018482161460511 0.2728448235588816 0
89 0.1009674521788834 0.08743932792845134 0
90 0.5629286884939383 0.4053693794244366 0
91 0.2418936168540988 0.180549942224013 0
92 0.4303973440854615 0.3096870481726917 0
93 0.398318258985791 0.4174951914583852 0
94 0.1874314472687706 0.4266551681580665 0
95 0.2824806257364645 0.3209965042233328 0
96 0.3737088108856247 0.2540108751698502 0
97 0.3256871589486537 0.4223336462038061 0
98 0.6340969924229494 0.4270927920289823 0
99 0.186086179196636 0.1221865206780538 0
100 0.07210020566598282 0.2068149852060429 0
101 0.06896163633696546 0.4315843659070486 0
102 0.172392411787958 0.2358402488617583 0
103 0.06921739920349879 0.3400485978982606 0
104 0.5044020262005156 0.4355701681159675 0
105 0.5318468436940366 0.3488922757405096 0
106 0.1851472011803615 0.3604998575585516 0
107 0.06251440826643391 0.141570225018065 0
108 0.2930891666898465 0.1863874580159292 0
109 0.2405608620501926 0.2488307814959169 0
110 0.06386232489032974 0.04810444074896884 0
111 0.1294563780846532 0.3146594195060184 0
112 0.1294475529436886 0.4323235233267201 0
113 0.4857135169447406 0.3104405514017561 0
114 0.422769356694396 0.3592123347341493 0
115 0.4432905702158219 0.4432838102366214 0
116 0.6864097854701235 0.4432137573488296 0
117 0.2658033118280368 0.4568363855366934 0
118 0.1580117998594294 0.07844530035440701 0
119 0.3445764143848498 0.2091224332442545 0
120 0.3356227688086047 0.2901592244624357 0
121 0.3094416982365549 0.3749737518279641 0
122 0.2295541210231328 0.3409214908038565 0
123 0.231947231590476 0.1278548694563039 0
124 0.05176592049916186 0.284588709131679 0
125 0.1215271195945064 0.2228414134597839 0
126 0.1159414324120444 0.0400508097509046 0
127 0.1557989983006011 0.2767300935575664 0
128 0.6093511181595965 0.3833015451728217 0
129 0.04325725832873815 0.3816001488126144 0
130 0.5890004995536698 0.4497810796797811 0
131 0.3618845170743546 0.4513471371512818 0
132 0.1338111025488922 0.1268965744550032 0
133 0.05404828995015482 0.09922323709926595 0
134 0.4234753769596932 0.255934427819543 0
135 0.3558205097125784 0.3911140109796866 0
136 0.3825644684446649 0.3013292944592187 0
137 0.1890743277438681 0.1677787437014805 0
138 0.2156428762231071 0.4614732645849988 0
139 0.5089645785544336 0.3889584104845167 0
140 0.2479016992226237 0.2894531555715139 0
141 0.577852753431777 0.3537934730210997 0
142 0.5469465168266021 0.459226862467765 0
143 0.7304207441315549 0.4562026828429623 0
144 0.4623632660956812 0.2761555668148062 0
145 0.2134191433220143 0.3886769774198172 0
146 0.1745599308426368 0.4640903912139571 0
147 0.4059764470329943 0.4624252277692577 0
148 0.4343192796195061 0.3996368133690952 0
149 0.2802041232283581 0.1486522378464216 0
150 0.04263895950889642 0.1758742554808789 0
151 0.4577078602488273 0.3394985526418413 0
152 0.09520434828638522 0.1680532669554699 0
153 0.6516306037930717 0.4654221010936972 0
154 0.03973567900859534 0.2301943334268264 0
155 0.2652434409067301 0.222289598019391 0
156 0.6713699499148118 0.4045568911903368 0
157 0.3131661601712669 0.460364545433754 0
158 0.03963566879872479 0.4600957232357617 0
159 0.3967731730772157 0.2227609156675177 0
160 0.1607828098697215 0.3928012579153195 0
161 0.5262265442505144 0.3102938824741599 0
162 0.1740343103312451 0.3232754158349083 0
163 0.03191119127115995 0.328187495494499 0
164 0.2071875786269486 0.09053442153258499 0
165 0.09374066281957072 0.4613934888134245 0
166 0.2959950594238088 0.2868637957042103 0
167 0.3201259038984153 0.3264468041160709 0
168 0.2377090962977786 0.423471776483346 0
169 0.0941380429068738 0.1266704616172958 0
170 0.2848037074694266 0.4216268831872154 0
171 0.3260741679372134 0.1687834849347283 0
172 0.2744704021910574 0.3580879006153851 0
173 0.08700949100973368 0.3931305896954997 0
174 0.3386843759087411 0.250333738889209 0
175 0.03037091269288568 0.4246560475910433 0
176 0.4734695518117863 0.4142080606939155 0
177 0.2130305944839639 0.2173434904883753 0
178 0.2036713440611694 0.2590942691367095 0
179 0.0300127491578437 0.0335322056136985 0
180 0.07688981837766733 0.2438813623406156 0
181 0.4785610144394971 0.46264535464516 0
182 0.1087548519879555 0.3502119425355168 0
183 0.4950568398762801 0.3474493851260818 0
184 0.0960562619142461 0.3109317322458092 0
185 0.0312561555600727 0.1317367326190902 0
186 0.7625554617440468 0.4656927166963242 0
187 0.6455367170377879 0.3838004778209009 0
188 0.03228140443630006 0.06740091003615746 0
189 0.3913155509578957 0.3379951206873615 0
190 0.164104176173525 0.2000418914096904 0
191 0.1469054301783469 0.3545144974505197 0
192 0.5580684111073329 0.3242015166537447 0
193 0.5994019083704952 0.4165722114756294 0
194 0.5110438419055013 0.4716948143892309 0
195 0.2697035768764408 0.2607547348860185 0
196 0.391796349088296 0.3769113609795411 0
197 0.6181462700551029 0.4683284083022378 0
198 0.1614320483984464 0.1472250080600878 0
2 2 0 118
199 0.7965381655893869 0.2032885118498026 0
200 0.645688315738139 0.1563870321434445 0
201 0.8630682781594584 0.325461293868725 0
202 0.5299694201431278 0.1237157119427172 0
203 0.8767429703838823 0.1143609086472218 0
204 0.6991704904440617 0.2519575773196898 0
205 0.7429851806657244 0.1082188063622589 0
206 0.8981517838542162 0.2271551764408717 0
207 0.8990325478210429 0.4125606720714863 0
208 0.4370713115046886 0.09463062057505695 0
209 0.7581063831458358 0.3194500577758417 0
210 0.5696026559129824 0.1903129518261075 0
211 0.6016817410144251 0.08250480854159679 0
212 0.8125685527312727 0.07334483184195556 0
213 0.7175193742635161 0.1790034957766564 0
214 0.6262911891136431 0.2459891248285817 0
215 0.6743128410515178 0.0776663537961049 0
216 0.3659030075759803 0.07290720797066985 0
217 0.8139138208027743 0.3778134793214317 0
218 0.927899794334139 0.2931850147938149 0
219 0.9310383636630351 0.06841563409294175 0
220 0.8276075882121632 0.2641597511381492 0
221 0.9307826007965021 0.1599514021021892 0
222 0.4955979737967517 0.06442983188251201 0
223 0.4681531563057134 0.1511077242587045 0
224 0.8148527988196601 0.1395001424414738 0
225 0.93748559173341 0.3584297749819164 0
226 0.7069108333102618 0.3136125419839975 0
227 0.7594391379497728 0.2511692185040514 0
228 0.9361376751095786 0.4518955592510262 0
229 0.8705436219153881 0.1853405804939057 0
230 0.8705524470563373 0.06767647667328497 0
231 0.5142864830538374 0.1895594485977242 0
232 0.5772306433040686 0.1407876652645747 0
233 0.5567094297835907 0.05671618976339367 0
234 0.3135902145290438 0.05678624265083074 0
235 0.7341966881720794 0.04316361446327954 0
236 0.8419882001402831 0.4215546996453606 0
237 0.6554235856148267 0.2908775667544848 0
238 0.6643772311916671 0.209840775537227 0
239 0.6905583017634352 0.1250262481719614 0
240 0.7704458789768532 0.1590785091961534 0
241 0.7680527684090578 0.3721451305432636 0
242 0.9482340795009707 0.2154112908690206 0
243 0.8784728804057024 0.2771585865400434 0
244 0.8840585675878185 0.4599491902490166 0
245 0.8442010016993942 0.2232699064423631 0
246 0.3906488818392106 0.1166984548266632 0
247 0.9567427416712352 0.1183998511876785 0
248 0.4109995004450971 0.05021892031993574 0
249 0.6381154829257407 0.04865286284874694 0
250 0.866188897451163 0.3731034255448716 0
251 0.945951710049743 0.4007767629007755 0
252 0.5765246230390275 0.2440655721788621 0
253 0.6441794902877244 0.1088859890202714 0
254 0.6174355315545065 0.198670705540881 0
255 0.8109256722561137 0.3322212562982338 0
256 0.7843571237769738 0.03852673541500336 0
257 0.491035421444582 0.1110415895137665 0
258 0.7520983007773621 0.210546844428483 0
259 0.4221472465675082 0.1462065269780845 0
260 0.4530534831719975 0.04077313753171195 0
261 0.2695792558677609 0.04379731715682789 0
262 0.5376367339035854 0.2238444331843918 0
263 0.7865808566779983 0.111323022580221 0
264 0.8254400691574253 0.03590960878604878 0
265 0.5940235529671248 0.03757477223074748 0
266 0.5656807203804505 0.1003631866299257 0
267 0.7197958767711676 0.3513477621531395 0
268 0.9573610404910931 0.3241257445195808 0
269 0.5422921397494775 0.160501447356416 0
270 0.9047956517136737 0.331946733044546 0
271 0.3483693962061236 0.03457789890598657 0
272 0.9602643209916263 0.269805666574083 0
273 0.7347565590932383 0.2777104019805253 0
274 0.3286300500841488 0.09544310880912488 0
275 0.6868338398288711 0.03963545456620299 0
276 0.9603643312012793 0.03990427676423859 0
277 0.603226826921521 0.2772390843310668 0
278 0.83921719013033 0.107198742084712 0
279 0.4737734557479787 0.1897061175252955 0
280 0.8259656896687598 0.1767245841650964 0
281 0.9680888087287868 0.1718125045065143 0
282 0.7928124213724064 0.4094655784669833 0
283 0.9062593371803961 0.03860651118658785 0
284 0.7040049405764577 0.2131362042958155 0
285 0.6798740961016783 0.173553195883531 0
286 0.7622909037022831 0.07652822351664379 0
287 0.905861957093147 0.3733295383827862 0
288 0.7151962925306519 0.07837311681274192 0
289 0.6739258320616209 0.3312165150638751 0
290 0.7255295978088957 0.1419120993845907 0
291 0.9129905089902466 0.1068694103045038 0
292 0.6613156240910496 0.2496662611099958 0
293 0.9696290873071098 0.07534395240909658 0
294 0.5265304481891023 0.08579193930157225 0
295 0.7869694055160875 0.2826565095115309 0
296 0.7963286559388163 0.240905730863332 0
297 0.9699872508421017 0.4664677943862895 0
298 0.92311018162264 0.2561186376594358 0
299 0.5214389855596805 0.03735464535471748 0
300 0.89124514801206 0.1497880574645137 0
301 0.5049431601240888 0.15255061487265 0
302 0.9039437380857909 0.1890682677540785 0
303 0.9687438444397647 0.368263267381177 0
304 0.2374445382554572 0.0343072833035853 0
305 0.354463282961015 0.1161995221785659 0
306 0.9677185955635892 0.4325990899638661 0
307 0.6086844490408756 0.1620048793121554 0
308 0.8358958238267757 0.2999581085901167 0
309 0.8530945698216799 0.1454855025494872 0
310 0.441931588891762 0.1757984833452435 0
311 0.4005980916282972 0.08342778852396385 0
312 0.4889561580934566 0.02830518561066882 0
313 0.7302964231235437 0.2392452651139567 0
314 0.6082036509113968 0.1230886390202513 0
315 0.3818537299437674 0.03167159169787669 0
316 0.8385679516014727 0.3527749919397096 0
$EndNodes
$Elements
15 655
1 0 15 1
1 1 
2 0 15 1
2 2 
3 0 15 1
3 3 
4 0 15 1
4 4 
5 0 15 1
5 5 
6 0 15 1
6 6 
1 1 1 3
7 1 7 
8 7 8 
9 8 2 
2 1 1 19
10 2 9 
11 9 10 
12 10 11 
13 11 12 
14 12 13 
15 13 14 
16 14 15 
17 15 16 
18 16 17 
19 17 18 
20 18 19 
21 19 20 
22 20 21 
23 21 22 
24 22 23 
25 23 24 
26 24 25 
27 25 26 
28 26 3 
3 1 1 18
29 3 27 
30 27 28 
31 28 29 
32 29 30 
33 30 31 
34 31 32 
35 32 33 
36 33 34 
37 34 35 
38 35 36 
39 36 37 
40 37 38 
41 38 39 
42 39 40 
43 40 41 
44 41 42 
45 42 43 
46 43 4 
4 1 1 10
47 4 44 
48 44 45 
49 45 46 
50 46 47 
51 47 48 
52 48 49 
53 49 50 
54 50 51 
55 51 52 
56 52 1 
5 1 1 18
57 5 53 
58 53 54 
59 54 55 
60 55 56 
61 56 57 
62 57 58 
63 58 59 
64 59 60 
65 60 61 
66 61 62 
67 62 63 
68 63 64 
69 64 65 
70 65 66 
71 66 67 
72 67 68 
73 68 69 
74 69 2 
6 1 1 10
75 6 70 
76 70 71 
77 71 72 
78 72 73 
79 73 74 
80 74 75 
81 75 76 
82 76 77 
83 77 78 
84 78 5 
7 1 1 3
85 3 79 
86 79 80 
87 80 6 
1 2 2 284
88 86 108 119 
89 9 118 126 
90 104 90 142 
91 90 104 139 
92 30 116 143 
93 7 8 110 
94 14 15 119 
95 99 123 137 
96 90 105 141 
97 123 91 137 
98 119 15 159 
99 29 30 143 
100 105 90 139 
101 110 8 126 
102 81 122 162 
103 122 106 162 
104 108 91 149 
105 112 41 165 
106 116 23 143 
107 2 9 126 
108 93 131 135 
109 131 97 135 
110 96 134 136 
111 41 42 165 
112 21 128 141 
113 134 92 136 
114 118 89 126 
115 20 21 141 
116 103 124 184 
117 94 112 160 
118 18 113 144 
119 23 24 143 
120 85 112 173 
121 125 100 152 
122 112 101 173 
123 9 10 118 
124 108 86 155 
125 91 108 155 
126 111 88 127 
127 112 85 160 
128 88 125 127 
129 83 125 152 
130 38 39 117 
131 125 102 127 
132 124 103 163 
133 8 2 126 
134 16 17 134 
135 89 110 126 
136 129 46 163 
137 173 103 182 
138 96 119 159 
139 129 103 173 
140 112 94 146 
141 118 10 164 
142 91 123 149 
143 110 89 133 
144 132 152 169 
145 118 99 132 
146 89 118 132 
147 88 111 184 
148 132 83 152 
149 134 17 144 
150 45 46 129 
151 122 81 140 
152 7 110 179 
153 17 18 144 
154 43 158 165 
155 130 32 142 
156 124 88 184 
157 101 112 165 
158 103 129 163 
159 11 12 123 
160 95 122 140 
161 41 112 146 
162 157 117 170 
163 99 118 164 
164 32 33 142 
165 35 115 181 
166 120 96 136 
167 97 157 170 
168 121 82 135 
169 113 18 161 
170 117 39 138 
171 91 155 177 
172 97 121 135 
173 92 114 189 
174 113 92 144 
175 42 43 165 
176 114 84 148 
177 38 117 157 
178 47 48 124 
179 82 120 136 
180 92 113 151 
181 114 92 151 
182 84 114 151 
183 23 116 156 
184 115 35 147 
185 86 119 174 
186 100 125 180 
187 93 115 147 
188 90 130 142 
189 133 89 169 
190 137 177 190 
191 128 90 141 
192 36 37 131 
193 115 93 148 
194 116 30 153 
195 155 109 177 
196 116 98 156 
197 11 123 164 
198 150 107 152 
199 107 133 169 
200 98 116 153 
201 25 28 186 
202 43 4 158 
203 122 87 145 
204 106 122 145 
205 4 44 158 
206 167 121 172 
207 100 150 152 
208 137 91 177 
209 49 150 154 
210 123 99 164 
211 82 121 167 
212 34 35 181 
213 125 88 180 
214 96 120 174 
215 39 40 138 
216 14 119 171 
217 120 86 174 
218 87 121 170 
219 121 97 170 
220 47 124 163 
221 95 167 172 
222 119 108 171 
223 149 13 171 
224 131 37 157 
225 119 96 174 
226 81 127 178 
227 127 102 178 
228 86 120 166 
229 109 140 178 
230 120 82 167 
231 138 40 146 
232 97 131 157 
233 140 81 178 
234 121 87 172 
235 123 12 149 
236 52 1 179 
237 94 138 146 
238 117 168 170 
239 131 93 147 
240 108 149 171 
241 122 95 172 
242 87 122 172 
243 136 92 189 
244 150 100 154 
245 135 82 196 
246 168 87 170 
247 48 49 154 
248 177 102 190 
249 22 23 156 
250 1 7 179 
251 12 13 149 
252 35 36 147 
253 106 145 160 
254 145 94 160 
255 127 81 162 
256 114 148 196 
257 132 99 198 
258 158 101 165 
259 111 127 162 
260 124 48 154 
261 82 189 196 
262 150 50 185 
263 102 125 190 
264 49 50 150 
265 125 83 190 
266 36 131 147 
267 92 134 144 
268 18 19 161 
269 88 124 180 
270 148 93 196 
271 107 150 185 
272 28 29 186 
273 98 128 187 
274 133 51 188 
275 30 31 153 
276 32 130 197 
277 40 41 146 
278 95 140 166 
279 129 101 175 
280 105 139 183 
281 16 134 159 
282 130 98 197 
283 139 84 183 
284 51 52 188 
285 128 21 187 
286 45 129 175 
287 24 25 186 
288 84 139 176 
289 139 104 176 
290 51 133 185 
291 101 129 173 
292 138 94 168 
293 89 132 169 
294 29 143 186 
295 31 32 197 
296 15 16 159 
297 98 130 193 
298 130 90 193 
299 134 96 159 
300 90 128 193 
301 128 98 193 
302 37 38 157 
303 85 173 182 
304 117 138 168 
305 110 133 188 
306 115 176 181 
307 113 161 183 
308 161 105 183 
309 176 104 181 
310 44 45 175 
311 83 132 198 
312 21 22 187 
313 19 20 192 
314 50 51 185 
315 143 24 186 
316 46 47 163 
317 10 11 164 
318 94 145 168 
319 133 107 185 
320 13 14 171 
321 166 140 195 
322 33 34 194 
323 82 136 189 
324 93 135 196 
325 137 83 198 
326 166 120 167 
327 99 137 198 
328 95 166 167 
329 156 98 187 
330 83 137 190 
331 152 107 169 
332 20 141 192 
333 151 113 183 
334 84 151 183 
335 98 153 197 
336 162 106 191 
337 111 162 191 
338 145 87 168 
339 115 148 176 
340 104 142 194 
341 140 109 195 
342 141 105 192 
343 148 84 176 
344 155 86 195 
345 109 155 195 
346 124 154 180 
347 177 109 178 
348 189 114 196 
349 158 44 175 
350 142 33 194 
351 102 177 178 
352 154 100 180 
353 101 158 175 
354 85 182 191 
355 182 111 191 
356 106 160 191 
357 22 156 187 
358 111 182 184 
359 160 85 191 
360 182 103 184 
361 153 31 197 
362 105 161 192 
363 34 181 194 
364 161 19 192 
365 181 104 194 
366 86 166 195 
367 179 110 188 
368 52 179 188 
369 26 3 27 
370 25 26 27 
371 25 27 28 
2 2 2 284
372 226 204 237 
373 236 26 244 
374 208 222 260 
375 222 208 257 
376 234 66 261 
377 79 80 228 
378 20 21 237 
379 241 217 255 
380 223 208 259 
381 209 241 255 
382 20 237 277 
383 66 67 261 
384 208 223 257 
385 79 228 244 
386 240 199 280 
387 224 240 280 
388 209 226 267 
389 55 230 283 
390 12 234 261 
391 26 3 244 
392 249 211 253 
393 215 249 253 
394 252 214 254 
395 54 55 283 
396 246 14 259 
397 210 252 254 
398 207 236 244 
399 14 15 259 
400 242 221 302 
401 230 212 278 
402 231 17 262 
403 11 12 261 
404 230 203 291 
405 218 243 270 
406 219 230 291 
407 25 26 236 
408 204 226 273 
409 226 209 273 
410 206 229 245 
411 203 230 278 
412 243 206 245 
413 243 201 270 
414 57 58 235 
415 220 243 245 
416 221 242 281 
417 3 79 244 
418 18 19 252 
419 228 207 244 
420 76 247 281 
421 221 291 300 
422 237 214 277 
423 221 247 291 
424 212 230 264 
425 25 236 282 
426 241 209 267 
427 207 228 251 
428 270 250 287 
429 217 236 250 
430 236 207 250 
431 229 206 302 
432 201 250 270 
433 18 252 262 
434 76 77 247 
435 199 240 258 
436 228 80 297 
437 17 18 262 
438 276 53 283 
439 64 248 260 
440 206 242 302 
441 230 219 283 
442 247 221 281 
443 23 24 241 
444 240 213 258 
445 230 55 264 
446 235 275 288 
447 236 217 282 
448 63 64 260 
449 233 61 299 
450 214 238 254 
451 275 215 288 
452 200 239 253 
453 17 231 279 
454 57 235 256 
455 273 209 295 
456 239 215 253 
457 232 210 307 
458 210 231 262 
459 53 54 283 
460 202 232 266 
461 235 58 275 
462 74 75 242 
463 238 200 254 
464 231 210 269 
465 210 232 269 
466 232 202 269 
467 234 12 274 
468 61 233 265 
469 237 204 292 
470 243 218 298 
471 233 211 265 
472 248 208 260 
473 207 251 287 
474 295 255 308 
475 208 246 259 
476 59 60 249 
477 211 233 266 
478 66 234 271 
479 227 273 295 
480 216 234 274 
481 241 24 282 
482 225 268 270 
483 251 225 287 
484 234 216 271 
485 68 10 304 
486 5 53 276 
487 205 240 263 
488 240 224 263 
489 78 5 276 
490 239 285 290 
491 268 218 270 
492 209 255 295 
493 268 73 272 
494 217 241 282 
495 239 200 285 
496 61 62 299 
497 206 243 298 
498 238 214 292 
499 56 57 256 
500 237 21 289 
501 204 238 292 
502 239 205 288 
503 215 239 288 
504 242 75 281 
505 285 213 290 
506 226 237 289 
507 22 267 289 
508 59 249 275 
509 214 237 292 
510 245 199 296 
511 220 245 296 
512 238 204 284 
513 258 227 296 
514 200 238 285 
515 56 256 264 
516 249 215 275 
517 199 258 296 
518 205 239 290 
519 23 241 267 
520 6 70 297 
521 256 212 264 
522 286 235 288 
523 211 249 265 
524 267 226 289 
525 213 240 290 
526 240 205 290 
527 210 254 307 
528 218 268 272 
529 200 253 314 
530 205 286 288 
531 73 74 272 
532 220 295 308 
533 12 13 274 
534 80 6 297 
535 22 23 267 
536 60 61 265 
537 263 224 278 
538 212 263 278 
539 199 245 280 
540 266 232 314 
541 217 250 316 
542 219 276 283 
543 245 229 280 
544 74 242 272 
545 307 200 314 
546 72 268 303 
547 243 220 308 
548 72 73 268 
549 201 243 308 
550 249 60 265 
551 252 210 262 
552 16 17 279 
553 242 206 298 
554 211 266 314 
555 268 225 303 
556 67 68 304 
557 246 216 305 
558 71 251 306 
559 65 66 271 
560 248 64 315 
561 55 56 264 
562 258 213 284 
563 219 247 293 
564 257 223 301 
565 252 19 277 
566 216 248 315 
567 202 257 301 
568 70 71 306 
569 14 246 305 
570 247 77 293 
571 10 11 304 
572 257 202 294 
573 222 257 294 
574 251 71 303 
575 247 219 291 
576 212 256 286 
577 250 207 287 
578 261 67 304 
579 64 65 315 
580 19 20 277 
581 248 216 311 
582 208 248 311 
583 214 252 277 
584 246 208 311 
585 216 246 311 
586 58 59 275 
587 291 203 300 
588 256 235 286 
589 251 228 306 
590 294 233 299 
591 279 231 301 
592 223 279 301 
593 222 294 299 
594 77 78 293 
595 250 201 316 
596 13 14 305 
597 15 16 310 
598 71 72 303 
599 11 261 304 
600 75 76 281 
601 24 25 282 
602 263 212 286 
603 225 251 303 
604 21 22 289 
605 258 284 313 
606 62 63 312 
607 254 200 307 
608 253 211 314 
609 201 255 316 
610 238 284 285 
611 255 217 316 
612 284 213 285 
613 216 274 305 
614 255 201 308 
615 225 270 287 
616 259 15 310 
617 231 269 301 
618 269 202 301 
619 271 216 315 
620 224 280 309 
621 280 229 309 
622 205 263 286 
623 266 233 294 
624 260 222 312 
625 227 258 313 
626 223 259 310 
627 202 266 294 
628 204 273 313 
629 273 227 313 
630 272 242 298 
631 227 295 296 
632 232 307 314 
633 78 276 293 
634 63 260 312 
635 295 220 296 
636 218 272 298 
637 276 219 293 
638 300 203 309 
639 229 300 309 
640 278 224 309 
641 274 13 305 
642 300 229 302 
643 203 278 309 
644 221 300 302 
645 65 271 315 
646 279 223 310 
647 299 62 312 
648 16 279 310 
649 222 299 312 
650 284 204 313 
651 228 297 306 
652 297 70 306 
653 9 69 2 
654 10 69 9 
655 68 69 10 
$EndElements
