$MeshFormat
4 0 8
$EndMeshFormat
$PhysicalNames
9
1 3 "LEFT_INFLOW"
1 4 "RIGHT_INFLOW"
1 5 "BOTTOM_INFLOW_1"
1 6 "BOTTOM_INFLOW_2"
1 7 "TOP_INFLOW_1"
1 8 "TOP_INFLOW_2"
1 9 "SHOCK"
2 1 "surface1"
2 2 "surface2"
$EndPhysicalNames
$Entities
6 7 2 0
1 0 0 0 0 0 0 0 
2 0.45 0 0 0.45 0 0 0 
3 0.6000000000000001 0.1 0 0.6000000000000001 0.1 0 0 
4 0 0.1 0 0 0.1 0 0 
5 1 0 0 1 0 0 0 
6 1 0.1 0 1 0.1 0 0 
1 0 0 0 0.45 0 0 1 5 2 1 -2 
2 0.45 0 0 0.6000000000000001 0.1 0 1 9 2 2 -3 
3 0 0.1 0 0.6000000000000001 0.1 0 1 7 2 3 -4 
4 0 0 0 0 0.1 0 1 3 2 4 -1 
5 0.45 0 0 1 0 0 1 6 2 5 -2 
6 1 0 0 1 0.1 0 1 4 2 6 -5 
7 0.6000000000000001 0.1 0 1 0.1 0 1 8 2 3 -6 
1 0 0 0 0.6000000000000001 0.1 0 1 1 4 1 2 3 4 
2 0.45 0 0 1 0.1 0 1 2 4 2 7 6 5 
$EndEntities
$Nodes
15 176
1 0 0 1
1 0 0 0
2 0 0 1
2 0.45 0 0
3 0 0 1
3 0.6000000000000001 0.1 0
4 0 0 1
4 0 0.1 0
5 0 0 1
5 1 0 0
6 0 0 1
6 1 0.1 0
1 1 0 14
7 0.02999999999994121 0 0
8 0.05999999999989154 0 0
9 0.08999999999980438 0 0
10 0.1199999999997172 0 0
11 0.1499999999996301 0 0
12 0.1799999999995429 0 0
13 0.2099999999994558 0 0
14 0.2399999999994489 0 0
15 0.2699999999995233 0 0
16 0.2999999999996082 0 0
17 0.3299999999996844 0 0
18 0.3599999999997605 0 0
19 0.3899999999998476 0 0
20 0.4199999999999238 0 0
2 1 0 5
21 0.4749999999999348 0.01666666666662314 0
22 0.499999999999862 0.03333333333324132 0
23 0.5249999999998569 0.04999999999990454 0
24 0.5499999999999088 0.06666666666660581 0
25 0.5749999999998825 0.08333333333325496 0
3 1 0 19
26 0.5700000000000206 0.1 0
27 0.5400000000000629 0.1 0
28 0.510000000000105 0.1 0
29 0.4800000000001907 0.1 0
30 0.4500000000002763 0.1 0
31 0.4200000000003619 0.1 0
32 0.390000000000467 0.1 0
33 0.3600000000005569 0.1 0
34 0.3300000000006836 0.1 0
35 0.3000000000007584 0.1 0
36 0.2700000000006836 0.1 0
37 0.2400000000006087 0.1 0
38 0.2100000000005339 0.1 0
39 0.180000000000459 0.1 0
40 0.1500000000003734 0.1 0
41 0.1200000000002877 0.1 0
42 0.09000000000022823 0.1 0
43 0.0600000000001667 0.1 0
44 0.03000000000007452 0.1 0
4 1 0 3
45 0 0.07500000000006909 0
46 0 0.05000000000013682 0
47 0 0.02500000000006909 0
5 1 0 18
48 0.971052631578977 0 0
49 0.9421052631580088 0 0
50 0.9131578947370566 0 0
51 0.8842105263161248 0 0
52 0.8552631578952319 0 0
53 0.8263157894742431 0 0
54 0.7973684210532509 0 0
55 0.7684210526322519 0 0
56 0.7394736842112484 0 0
57 0.7105263157902094 0 0
58 0.6815789473690461 0 0
59 0.6526315789478829 0 0
60 0.6236842105267413 0 0
61 0.5947368421055781 0 0
62 0.5657894736844593 0 0
63 0.5368421052633772 0 0
64 0.5078947368422835 0 0
65 0.4789473684211416 0 0
6 1 0 3
66 1 0.07500000000006909 0
67 1 0.05000000000013682 0
68 1 0.02500000000006909 0
7 1 0 13
69 0.6285714285713389 0.1 0
70 0.6571428571427642 0.1 0
71 0.685714285714103 0.1 0
72 0.7142857142854416 0.1 0
73 0.7428571428567804 0.1 0
74 0.771428571428119 0.1 0
75 0.7999999999995012 0.1 0
76 0.8285714285709949 0.1 0
77 0.8571428571424884 0.1 0
78 0.8857142857139945 0.1 0
79 0.9142857142855068 0.1 0
80 0.9428571428570127 0.1 0
81 0.9714285714285034 0.1 0
1 2 0 47
82 0.04722006950524768 0.04825088014122886 0
83 0.4015537909772249 0.05003581535511781 0
84 0.1059722222220799 0.04999999999996431 0
85 0.34500000000062 0.05000000000011938 0
86 0.1649999999995865 0.04999999999988852 0
87 0.224999999999752 0.04999999999989255 0
88 0.2850000000004246 0.05000000000012189 0
89 0.4501388888892054 0.05462500000009405 0
90 0.4827033450061284 0.06447155672955804 0
91 0.2549999999999851 0.06824999999943426 0
92 0.2550000000001884 0.03175000000058214 0
93 0.373790590828304 0.0692717692475696 0
94 0.3150000000007211 0.06825000000009303 0
95 0.1949999999994995 0.03174999999992014 0
96 0.1349999999996737 0.03174999999992009 0
97 0.1349999999996882 0.06824999999984052 0
98 0.3741718116932558 0.0307357277983814 0
99 0.1949999999995347 0.06824999999971314 0
100 0.3150000000006544 0.03175000000031394 0
101 0.07630324897938962 0.06896186788745078 0
102 0.07791666666651796 0.03087499999993802 0
103 0.02541666666669634 0.06250000000010295 0
104 0.4298350717770035 0.03020052153290633 0
105 0.02736902092212407 0.02583511180016172 0
106 0.4281055370843133 0.07037665313374855 0
107 0.04304963383682887 0.07699722776425941 0
108 0.2250000000005713 0.07724999999992309 0
109 0.3449999999997225 0.02275000000005363 0
110 0.2849999999995659 0.02275000000008125 0
111 0.1650000000004163 0.07724999999995213 0
112 0.1049999999997608 0.02274999999997841 0
113 0.34500000000062 0.07725000000004602 0
114 0.105000000000258 0.07724999999997428 0
115 0.1649999999995865 0.02274999999995233 0
116 0.2249999999994523 0.02274999999991286 0
117 0.2850000000007211 0.07725000000010522 0
118 0.510050440067583 0.07276513202027429 0
119 0.4038583000473109 0.02309250998580937 0
120 0.3999803448181393 0.07586656937753594 0
121 0.05375200374188555 0.02426168586267576 0
122 0.4723188782654192 0.04008456881884991 0
123 0.4617383959769542 0.07734821763560139 0
124 0.4554585677863126 0.02831535140369468 0
125 0.01935781786939837 0.08227061855677381 0
126 0.5298542287540799 0.07877138038523104 0
127 0.01499999999997061 0.01250000000003455 0
128 0.01869996022330724 0.04430024286218951 0
2 2 0 48
129 0.9507476376533467 0.04971276035040247 0
130 0.9083496710699858 0.04979671474076461 0
131 0.8540360109948761 0.05006360841103107 0
132 0.7905681421392738 0.05038538658739625 0
133 0.7285714285711105 0.05042611227304442 0
134 0.6714285714284333 0.05050525750458024 0
135 0.614572989778437 0.05056470972557157 0
136 0.5851456247749949 0.03969086500108933 0
137 0.8117046746662085 0.0758654646416629 0
138 0.7578323731379033 0.06961899924374139 0
139 0.699999999999773 0.06906767993664566 0
140 0.8100839811577463 0.02450914757055148 0
141 0.6428571428570518 0.06925516578982381 0
142 0.7571156126851185 0.03202458138971215 0
143 0.6980478352809856 0.03100891850277875 0
144 0.8691859582480538 0.07558703068024246 0
145 0.8682718297820193 0.02433492492577136 0
146 0.641151510754806 0.031431864509108 0
147 0.9234109034627006 0.07357306609752827 0
148 0.9277337613533164 0.02804902358302739 0
149 0.9727861029745037 0.07387495511332856 0
150 0.9747667239404632 0.03750000000010296 0
151 0.5543906949264006 0.03148283004153465 0
152 0.6065923893059293 0.02299939437795521 0
153 0.7842067476319612 0.02189718312163839 0
154 0.8394146363368409 0.02488550728717218 0
155 0.7256787171487192 0.02340909655405456 0
156 0.8405263297232584 0.07532024442476927 0
157 0.7861374761140896 0.07861726439883154 0
158 0.728641787346157 0.07755261021191434 0
159 0.6714285714284333 0.07731427835750525 0
160 0.6685508666596068 0.02365428325112633 0
161 0.9578683075886902 0.022204987977627 0
162 0.8969349901843737 0.02467088966369196 0
163 0.6085132641395365 0.07740267509960236 0
164 0.8963799113243869 0.07480410215013616 0
165 0.5903663836757501 0.06158386284021614 0
166 0.4959418069348361 0.01372627625732556 0
167 0.5200115573277693 0.02142373993866768 0
168 0.9484320739858851 0.07450094689514777 0
169 0.9808038278480302 0.01796814393222916 0
170 0.5808079778258626 0.01759754481367331 0
171 0.9857142857142517 0.08750000000003451 0
172 0.9817807816192197 0.05505971653151558 0
173 0.5709805406753875 0.05655151157654018 0
174 0.8808044542859866 0.04987380879632304 0
175 0.9293620855392437 0.04984489980962737 0
176 0.8243889625030338 0.05017155982043051 0
$EndNodes
$Elements
15 362
1 0 15 1
1 1 
2 0 15 1
2 2 
3 0 15 1
3 3 
4 0 15 1
4 4 
5 0 15 1
5 5 
6 0 15 1
6 6 
1 1 1 15
7 1 7 
8 7 8 
9 8 9 
10 9 10 
11 10 11 
12 11 12 
13 12 13 
14 13 14 
15 14 15 
16 15 16 
17 16 17 
18 17 18 
19 18 19 
20 19 20 
21 20 2 
2 1 1 6
22 2 21 
23 21 22 
24 22 23 
25 23 24 
26 24 25 
27 25 3 
3 1 1 20
28 3 26 
29 26 27 
30 27 28 
31 28 29 
32 29 30 
33 30 31 
34 31 32 
35 32 33 
36 33 34 
37 34 35 
38 35 36 
39 36 37 
40 37 38 
41 38 39 
42 39 40 
43 40 41 
44 41 42 
45 42 43 
46 43 44 
47 44 4 
4 1 1 4
48 4 45 
49 45 46 
50 46 47 
51 47 1 
5 1 1 19
52 5 48 
53 48 49 
54 49 50 
55 50 51 
56 51 52 
57 52 53 
58 53 54 
59 54 55 
60 55 56 
61 56 57 
62 57 58 
63 58 59 
64 59 60 
65 60 61 
66 61 62 
67 62 63 
68 63 64 
69 64 65 
70 65 2 
6 1 1 4
71 6 66 
72 66 67 
73 67 68 
74 68 5 
7 1 1 14
75 3 69 
76 69 70 
77 70 71 
78 71 72 
79 72 73 
80 73 74 
81 74 75 
82 75 76 
83 76 77 
84 77 78 
85 78 79 
86 79 80 
87 80 81 
88 81 6 
1 2 2 137
89 90 22 118 
90 83 104 106 
91 104 89 106 
92 101 82 102 
93 29 90 118 
94 83 93 98 
95 84 96 97 
96 93 85 98 
97 96 86 97 
98 86 95 99 
99 85 94 100 
100 95 87 99 
101 94 88 100 
102 91 87 92 
103 88 91 92 
104 84 101 102 
105 22 23 118 
106 28 29 118 
107 30 106 123 
108 14 15 92 
109 36 37 91 
110 16 17 100 
111 38 39 99 
112 18 19 98 
113 40 41 97 
114 32 33 93 
115 34 35 94 
116 10 11 96 
117 12 13 95 
118 30 31 106 
119 8 9 102 
120 42 43 101 
121 20 2 104 
122 101 43 107 
123 106 89 123 
124 45 46 103 
125 14 92 116 
126 16 100 110 
127 38 99 108 
128 36 91 117 
129 18 98 109 
130 40 97 111 
131 92 87 116 
132 91 88 117 
133 99 87 108 
134 100 88 110 
135 98 85 109 
136 97 86 111 
137 93 33 113 
138 34 94 113 
139 10 96 112 
140 96 11 115 
141 12 95 115 
142 95 13 116 
143 87 91 108 
144 96 84 112 
145 94 35 117 
146 85 93 113 
147 91 37 108 
148 94 85 113 
149 86 96 115 
150 92 15 110 
151 95 86 115 
152 88 92 110 
153 88 94 117 
154 87 95 116 
155 84 97 114 
156 97 41 114 
157 85 100 109 
158 86 99 111 
159 99 39 111 
160 100 17 109 
161 104 2 124 
162 83 98 119 
163 98 19 119 
164 8 102 121 
165 105 7 121 
166 82 101 107 
167 90 29 123 
168 22 90 122 
169 82 103 128 
170 105 82 128 
171 24 27 126 
172 7 8 121 
173 89 90 123 
174 90 89 122 
175 93 83 120 
176 32 93 120 
177 101 84 114 
178 42 101 114 
179 102 9 112 
180 84 102 112 
181 102 82 121 
182 47 105 128 
183 31 32 120 
184 106 31 120 
185 20 104 119 
186 43 44 107 
187 104 83 119 
188 44 4 125 
189 1 7 127 
190 105 47 127 
191 103 82 107 
192 46 47 128 
193 19 20 119 
194 29 30 123 
195 89 104 124 
196 107 44 125 
197 21 22 122 
198 82 105 121 
199 15 16 110 
200 37 38 108 
201 17 18 109 
202 9 10 112 
203 33 34 113 
204 39 40 111 
205 41 42 114 
206 11 12 115 
207 13 14 116 
208 35 36 117 
209 103 46 128 
210 4 45 125 
211 103 107 125 
212 23 24 126 
213 27 28 126 
214 45 103 125 
215 2 21 124 
216 83 106 120 
217 118 23 126 
218 7 105 127 
219 28 118 126 
220 122 89 124 
221 47 1 127 
222 21 122 124 
223 26 25 3 
224 25 27 24 
225 26 27 25 
2 2 2 137
226 138 132 142 
227 133 138 142 
228 139 133 143 
229 134 139 143 
230 141 134 146 
231 135 141 146 
232 136 135 152 
233 25 3 163 
234 146 60 152 
235 59 60 146 
236 135 136 165 
237 57 58 143 
238 25 163 165 
239 55 56 142 
240 53 54 140 
241 79 80 147 
242 143 58 160 
243 75 76 137 
244 73 74 138 
245 142 56 155 
246 71 72 139 
247 77 78 144 
248 49 50 148 
249 69 70 141 
250 23 24 151 
251 140 54 153 
252 151 24 173 
253 132 137 176 
254 51 52 145 
255 140 132 176 
256 135 146 152 
257 147 80 168 
258 132 140 153 
259 49 148 161 
260 133 142 155 
261 134 143 160 
262 21 22 166 
263 62 63 151 
264 62 151 170 
265 81 149 168 
266 64 65 166 
267 131 144 174 
268 145 131 174 
269 137 76 156 
270 75 137 157 
271 138 74 157 
272 73 138 158 
273 145 52 154 
274 139 72 158 
275 71 139 159 
276 132 138 157 
277 137 132 157 
278 133 139 158 
279 138 133 158 
280 139 134 159 
281 134 141 159 
282 131 145 154 
283 141 70 159 
284 144 78 164 
285 69 141 163 
286 67 68 150 
287 80 81 168 
288 141 135 163 
289 136 151 173 
290 77 144 156 
291 144 131 156 
292 53 140 154 
293 136 152 170 
294 51 145 162 
295 142 132 153 
296 151 136 170 
297 57 143 155 
298 150 129 172 
299 59 146 160 
300 129 149 172 
301 55 142 153 
302 143 133 155 
303 148 129 161 
304 146 134 160 
305 79 147 164 
306 162 145 174 
307 137 156 176 
308 129 148 175 
309 130 162 174 
310 144 164 174 
311 130 147 175 
312 148 130 175 
313 164 130 174 
314 148 50 162 
315 156 131 176 
316 130 148 162 
317 147 130 164 
318 48 49 161 
319 149 66 172 
320 154 140 176 
321 131 154 176 
322 78 79 164 
323 48 161 169 
324 58 59 160 
325 64 166 167 
326 166 22 167 
327 66 149 171 
328 168 129 175 
329 56 57 155 
330 129 150 161 
331 60 61 152 
332 149 129 168 
333 54 55 153 
334 147 168 175 
335 23 151 167 
336 52 53 154 
337 50 51 162 
338 76 77 156 
339 74 75 157 
340 72 73 158 
341 70 71 159 
342 5 48 169 
343 3 69 163 
344 66 67 172 
345 151 63 167 
346 161 150 169 
347 163 135 165 
348 22 23 167 
349 67 150 172 
350 68 5 169 
351 65 21 166 
352 81 6 171 
353 63 64 167 
354 150 68 169 
355 152 61 170 
356 149 81 171 
357 24 25 173 
358 61 62 170 
359 6 66 171 
360 25 165 173 
361 165 136 173 
362 65 2 21 
$EndElements
