$MeshFormat
4 0 8
$EndMeshFormat
$PhysicalNames
9
1 3 "LEFT_INFLOW"
1 4 "RIGHT_INFLOW"
1 5 "BOTTOM_INFLOW_1"
1 6 "BOTTOM_INFLOW_2"
1 7 "TOP_INFLOW_1"
1 8 "TOP_INFLOW_2"
1 9 "SHOCK"
2 1 "surface1"
2 2 "surface2"
$EndPhysicalNames
$Entities
6 7 2 0
1 0 0 0 0 0 0 0 
2 0.25 0 0 0.25 0 0 0 
3 0.25 0.025 0 0.25 0.025 0 0 
4 0 0.025 0 0 0.025 0 0 
5 0.5 0 0 0.5 0 0 0 
6 0.5 0.025 0 0.5 0.025 0 0 
1 0 0 0 0.25 0 0 1 5 2 1 -2 
2 0.25 0 0 0.25 0.025 0 1 9 2 2 -3 
3 0 0.025 0 0.25 0.025 0 1 7 2 3 -4 
4 0 0 0 0 0.025 0 1 3 2 4 -1 
5 0.25 0 0 0.5 0 0 1 6 2 5 -2 
6 0.5 0 0 0.5 0.025 0 1 4 2 6 -5 
7 0.25 0.025 0 0.5 0.025 0 1 8 2 3 -6 
1 0 0 0 0.25 0.025 0 1 1 4 1 2 3 4 
2 0.25 0 0 0.5 0.025 0 1 2 4 2 7 6 5 
$EndEntities
$Nodes
15 56
1 0 0 1
1 0 0 0
2 0 0 1
2 0.25 0 0
3 0 0 1
3 0.25 0.025 0
4 0 0 1
4 0 0.025 0
5 0 0 1
5 0.5 0 0
6 0 0 1
6 0.5 0.025 0
1 1 0 8
7 0.02777777777772715 0 0
8 0.05555555555542874 0 0
9 0.08333333333312549 0 0
10 0.1111111111108223 0 0
11 0.1388888888885962 0 0
12 0.1666666666664472 0 0
13 0.1944444444442981 0 0
14 0.2222222222221492 0 0
2 1 0 0
3 1 0 8
15 0.2222222222221934 0.025 0
16 0.1944444444442527 0.025 0
17 0.166666666666443 0.025 0
18 0.1388888888885947 0.025 0
19 0.1111111111108728 0.025 0
20 0.08333333333316342 0.025 0
21 0.05555555555545402 0.025 0
22 0.02777777777773979 0.025 0
4 1 0 0
5 1 0 8
23 0.4722222222222222 0 0
24 0.4444444444444444 0 0
25 0.4166666666666667 0 0
26 0.388888888888889 0 0
27 0.3611111111111112 0 0
28 0.3333333333333334 0 0
29 0.3055555555555557 0 0
30 0.2777777777777779 0 0
6 1 0 0
7 1 0 8
31 0.2777777777777337 0.025 0
32 0.3055555555556012 0.025 0
33 0.3333333333333607 0.025 0
34 0.3611111111111048 0.025 0
35 0.3888888888889618 0.025 0
36 0.4166666666666288 0.025 0
37 0.4444444444443575 0.025 0
38 0.4722222222222096 0.025 0
1 2 0 9
39 0.2083333333332233 0.0125 0
40 0.1527777777775203 0.0125 0
41 0.2361111111110856 0.0125 0
42 0.1805555555553602 0.0125 0
43 0.01388888888886674 0.0125 0
44 0.1249999999997215 0.0125 0
45 0.04166666666658742 0.0125 0
46 0.06944444444429292 0.0125 0
47 0.097222222221996 0.0125 0
2 2 0 9
48 0.2916666666666671 0.0125 0
49 0.3750000000000167 0.0125 0
50 0.486111111111108 0.0125 0
51 0.4583333333333084 0.0125 0
52 0.3472222222222275 0.0125 0
53 0.2638888888888778 0.0125 0
54 0.3194444444444627 0.0125 0
55 0.4027777777777866 0.0125 0
56 0.4305555555555244 0.0125 0
$EndNodes
$Elements
15 117
1 0 15 1
1 1 
2 0 15 1
2 2 
3 0 15 1
3 3 
4 0 15 1
4 4 
5 0 15 1
5 5 
6 0 15 1
6 6 
1 1 1 9
7 1 7 
8 7 8 
9 8 9 
10 9 10 
11 10 11 
12 11 12 
13 12 13 
14 13 14 
15 14 2 
2 1 1 1
16 2 3 
3 1 1 9
17 3 15 
18 15 16 
19 16 17 
20 17 18 
21 18 19 
22 19 20 
23 20 21 
24 21 22 
25 22 4 
4 1 1 1
26 4 1 
5 1 1 9
27 5 23 
28 23 24 
29 24 25 
30 25 26 
31 26 27 
32 27 28 
33 28 29 
34 29 30 
35 30 2 
6 1 1 1
36 6 5 
7 1 1 9
37 3 31 
38 31 32 
39 32 33 
40 33 34 
41 34 35 
42 35 36 
43 36 37 
44 37 38 
45 38 6 
1 2 2 36
46 15 16 39 
47 12 13 42 
48 11 12 40 
49 14 2 41 
50 17 18 40 
51 13 14 39 
52 3 15 41 
53 16 17 42 
54 10 11 44 
55 22 4 43 
56 1 7 43 
57 18 19 44 
58 19 20 47 
59 20 21 46 
60 21 22 45 
61 7 8 45 
62 8 9 46 
63 9 10 47 
64 14 15 39 
65 16 13 39 
66 17 12 42 
67 18 11 40 
68 15 14 41 
69 12 17 40 
70 2 3 41 
71 13 16 42 
72 19 10 44 
73 20 9 47 
74 7 22 43 
75 21 8 46 
76 4 1 43 
77 8 21 45 
78 11 18 44 
79 22 7 45 
80 9 20 46 
81 10 19 47 
2 2 2 36
82 31 32 48 
83 37 38 51 
84 34 35 49 
85 38 6 50 
86 28 29 54 
87 25 26 55 
88 27 28 52 
89 30 2 53 
90 5 23 50 
91 26 27 49 
92 24 25 56 
93 29 30 48 
94 23 24 51 
95 32 33 54 
96 33 34 52 
97 3 31 53 
98 36 37 56 
99 35 36 55 
100 38 23 51 
101 35 26 49 
102 32 29 48 
103 30 31 48 
104 37 24 56 
105 33 28 54 
106 23 38 50 
107 27 34 49 
108 31 30 53 
109 6 5 50 
110 28 33 52 
111 24 37 51 
112 34 27 52 
113 26 35 55 
114 2 3 53 
115 29 32 54 
116 36 25 55 
117 25 36 56 
$EndElements
$Periodic
7
0 3 2
Affine 1 0 0 0 0 1 0 0.025 0 0 1 0 0 0 0 1
1
3 2
0 4 1
Affine 1 0 0 0 0 1 0 0.025 0 0 1 0 0 0 0 1
1
4 1
0 5 1
Affine 1 0 0 0.5 0 1 0 0 0 0 1 0 0 0 0 1
1
5 1
0 6 5
Affine 1 0 0 0 0 1 0 0.025 0 0 1 0 0 0 0 1
1
6 5
1 3 1
Affine 1 0 0 0 0 1 0 0.025 0 0 1 0 0 0 0 1
10
3 2
4 1
15 14
16 13
17 12
18 11
19 10
20 9
21 8
22 7
1 6 4
Affine 1 0 0 0.5 0 1 0 0 0 0 1 0 0 0 0 1
2
5 1
6 4
1 7 5
Affine 1 0 0 0 0 1 0 0.025 0 0 1 0 0 0 0 1
10
3 2
6 5
31 30
32 29
33 28
34 27
35 26
36 25
37 24
38 23
$EndPeriodic
