$MeshFormat
4 0 8
$EndMeshFormat
$PhysicalNames
9
1 3 "LEFT_INFLOW"
1 4 "RIGHT_INFLOW"
1 5 "BOTTOM_INFLOW_1"
1 6 "BOTTOM_INFLOW_2"
1 7 "TOP_INFLOW_1"
1 8 "TOP_INFLOW_2"
1 9 "SHOCK"
2 1 "surface1"
2 2 "surface2"
$EndPhysicalNames
$Entities
6 7 2 0
1 0 0 0 0 0 0 0 
2 0.2 0 0 0.2 0 0 0 
3 0.3 0.1 0 0.3 0.1 0 0 
4 0 0.1 0 0 0.1 0 0 
5 1 0 0 1 0 0 0 
6 1 0.1 0 1 0.1 0 0 
1 0 0 0 0.2 0 0 1 5 2 1 -2 
2 0.2 0 0 0.3 0.1 0 1 9 2 2 -3 
3 0 0.1 0 0.3 0.1 0 1 7 2 3 -4 
4 0 0 0 0 0.1 0 1 3 2 4 -1 
5 0.2 0 0 1 0 0 1 6 2 5 -2 
6 1 0 0 1 0.1 0 1 4 2 6 -5 
7 0.3 0.1 0 1 0.1 0 1 8 2 3 -6 
1 0 0 0 0.3 0.1 0 1 1 4 1 2 3 4 
2 0.2 0 0 1 0.1 0 1 2 4 2 7 6 5 
$EndEntities
$Nodes
15 124
1 0 0 1
1 0 0 0
2 0 0 1
2 0.2 0 0
3 0 0 1
3 0.3 0.1 0
4 0 0 1
4 0 0.1 0
5 0 0 1
5 1 0 0
6 0 0 1
6 1 0.1 0
1 1 0 4
7 0.039999999999912 0 0
8 0.07999999999979171 0 0
9 0.1199999999997885 0 0
10 0.1599999999998948 0 0
2 1 0 3
11 0.2249999999999424 0.02499999999994234 0
12 0.2499999999998666 0.04999999999986651 0
13 0.2749999999999302 0.07499999999993019 0
3 1 0 7
14 0.2625000000000312 0.1 0
15 0.2250000000001382 0.1 0
16 0.1875000000002561 0.1 0
17 0.1500000000003794 0.1 0
18 0.1125000000002858 0.1 0
19 0.07500000000018692 0.1 0
20 0.03750000000009884 0.1 0
4 1 0 2
21 0 0.06666666666675883 0
22 0 0.03333333333342638 0
5 1 0 19
23 0.9600000000001105 0 0
24 0.9200000000002211 0 0
25 0.8800000000003316 0 0
26 0.8400000000004422 0 0
27 0.8000000000005528 0 0
28 0.7600000000006634 0 0
29 0.7200000000007739 0 0
30 0.6800000000008845 0 0
31 0.640000000000995 0 0
32 0.6000000000010839 0 0
33 0.5600000000009908 0 0
34 0.5200000000008802 0 0
35 0.480000000000761 0 0
36 0.440000000000668 0 0
37 0.4000000000005531 0 0
38 0.3600000000004382 0 0
39 0.3200000000003449 0 0
40 0.2800000000002256 0 0
41 0.2400000000001019 0 0
6 1 0 2
42 1 0.06666666666675883 0
43 1 0.03333333333342638 0
7 1 0 17
44 0.3388888888887938 0.1 0
45 0.3777777777775791 0.1 0
46 0.4166666666663561 0.1 0
47 0.4555555555551258 0.1 0
48 0.4944444444439424 0.1 0
49 0.5333333333327048 0.1 0
50 0.5722222222214806 0.1 0
51 0.6111111111102827 0.1 0
52 0.649999999999068 0.1 0
53 0.6888888888881135 0.1 0
54 0.7277777777771419 0.1 0
55 0.7666666666661464 0.1 0
56 0.8055555555551196 0.1 0
57 0.8444444444440783 0.1 0
58 0.8833333333330731 0.1 0
59 0.922222222222039 0.1 0
60 0.961111111111017 0.1 0
1 2 0 16
61 0.04777777777791083 0.0500000000000926 0
62 0.1699129106206332 0.04256324565539269 0
63 0.1070360707407867 0.04657513128813906 0
64 0.1417175537880199 0.060897397836704 0
65 0.2114194897949647 0.06282940134371329 0
66 0.2447838979589861 0.07756588026870199 0
67 0.1331028518889513 0.02839413527947076 0
68 0.07178436777989264 0.06767757675445046 0
69 0.06956120563470708 0.03056689937889842 0
70 0.02870360705175338 0.072135525400152 0
71 0.02888888888893737 0.02733333333343759 0
72 0.1711499934578412 0.07427465162434357 0
73 0.1943878353994904 0.02657288565970495 0
74 0.09995057618458487 0.02032903689658881 0
75 0.114606341366161 0.07246892780933621 0
76 0.02020954414332182 0.04992412267629323 0
2 2 0 48
77 0.9522222222220847 0.05000000000009258 0
78 0.3242168477702834 0.05568824779481598 0
79 0.8636138139699435 0.04943739246483499 0
80 0.7861111111106333 0.05092592592579081 0
81 0.7116666666663807 0.05165318765114933 0
82 0.6323773126204382 0.05180299548445866 0
83 0.5527777777770931 0.05162962962949766 0
84 0.4749999999995342 0.05176543209869704 0
85 0.3972222222219678 0.05185185185181851 0
86 0.9072611600835038 0.06383035513442055 0
87 0.8244617270488122 0.06803653018461302 0
88 0.747077606552309 0.06557187751573371 0
89 0.6710535344860695 0.06421196789843008 0
90 0.5923042763839347 0.06419089653279304 0
91 0.5138888888883234 0.06412497353598254 0
92 0.4361111111107407 0.06414707977214069 0
93 0.3662943913439534 0.06348939123088561 0
94 0.2860028409303881 0.04300945921944224 0
95 0.5801717082407966 0.02932671688060818 0
96 0.6589643303526662 0.03007072539549295 0
97 0.7435507691903139 0.03034726103567706 0
98 0.5005686605916009 0.02896937934044436 0
99 0.8220266645901971 0.03025640243562373 0
100 0.4206603291594373 0.02860147936553498 0
101 0.3434401881266884 0.02835705264046582 0
102 0.258061514380746 0.02281729175704681 0
103 0.8935426677559537 0.02724217941840399 0
104 0.379945626345955 0.02496793463240823 0
105 0.9729098349781431 0.0740330044183042 0
106 0.4600000000007147 0.02419239885366086 0
107 0.9711111111110629 0.02733333333344468 0
108 0.5400000000009355 0.02352225144751023 0
109 0.9303810324813374 0.02869271733921276 0
110 0.6200000000010396 0.02291744660379131 0
111 0.3048217155178791 0.07473954140283766 0
112 0.9424277675506987 0.07753135984288134 0
113 0.7000000000008291 0.02237747925489396 0
114 0.7800000000006082 0.02190235690217161 0
115 0.8598366292633737 0.02138719486377253 0
116 0.8638888888885762 0.07912250819031569 0
117 0.7861111111106335 0.07931516422076255 0
118 0.7083333333326275 0.07947955871688411 0
119 0.6305555555546754 0.07961556064060285 0
120 0.5527777777770931 0.07972305881675761 0
121 0.4749999999995342 0.07980196355380743 0
122 0.3972222222219678 0.07985220797716581 0
123 0.9804482787183235 0.0501394222196399 0
124 0.3101842632991552 0.02599674218468506 0
$EndNodes
$Elements
15 256
1 0 15 1
1 1 
2 0 15 1
2 2 
3 0 15 1
3 3 
4 0 15 1
4 4 
5 0 15 1
5 5 
6 0 15 1
6 6 
1 1 1 5
7 1 7 
8 7 8 
9 8 9 
10 9 10 
11 10 2 
2 1 1 4
12 2 11 
13 11 12 
14 12 13 
15 13 3 
3 1 1 8
16 3 14 
17 14 15 
18 15 16 
19 16 17 
20 17 18 
21 18 19 
22 19 20 
23 20 4 
4 1 1 3
24 4 21 
25 21 22 
26 22 1 
5 1 1 20
27 5 23 
28 23 24 
29 24 25 
30 25 26 
31 26 27 
32 27 28 
33 28 29 
34 29 30 
35 30 31 
36 31 32 
37 32 33 
38 33 34 
39 34 35 
40 35 36 
41 36 37 
42 37 38 
43 38 39 
44 39 40 
45 40 41 
46 41 2 
6 1 1 3
47 6 42 
48 42 43 
49 43 5 
7 1 1 18
50 3 44 
51 44 45 
52 45 46 
53 46 47 
54 47 48 
55 48 49 
56 49 50 
57 50 51 
58 51 52 
59 52 53 
60 53 54 
61 54 55 
62 55 56 
63 56 57 
64 57 58 
65 58 59 
66 59 60 
67 60 6 
1 2 2 50
68 62 10 73 
69 10 62 67 
70 68 20 70 
71 65 16 72 
72 14 13 3 
73 19 20 68 
74 18 19 75 
75 19 68 75 
76 15 16 65 
77 62 65 72 
78 10 2 73 
79 7 69 71 
80 61 68 70 
81 11 12 65 
82 64 63 67 
83 62 64 67 
84 64 17 75 
85 17 18 75 
86 4 21 70 
87 7 8 69 
88 67 63 74 
89 69 61 71 
90 20 4 70 
91 22 1 71 
92 1 7 71 
93 14 15 66 
94 11 65 73 
95 15 65 66 
96 65 12 66 
97 65 62 73 
98 12 13 66 
99 17 64 72 
100 64 62 72 
101 63 64 75 
102 13 14 66 
103 68 63 75 
104 9 10 67 
105 9 67 74 
106 16 17 72 
107 2 11 73 
108 68 61 69 
109 63 68 69 
110 8 9 74 
111 21 22 76 
112 71 61 76 
113 63 69 74 
114 61 70 76 
115 22 71 76 
116 70 21 76 
117 69 8 74 
2 2 2 139
118 44 78 111 
119 78 44 93 
120 58 59 86 
121 41 2 11 
122 96 89 113 
123 58 86 116 
124 89 81 113 
125 88 80 97 
126 97 80 114 
127 95 90 110 
128 86 79 116 
129 90 82 110 
130 87 79 99 
131 3 44 111 
132 99 79 115 
133 91 83 108 
134 98 91 108 
135 79 86 103 
136 92 84 106 
137 56 57 87 
138 54 55 88 
139 52 53 89 
140 50 51 90 
141 48 49 91 
142 46 47 92 
143 44 45 93 
144 100 92 106 
145 6 42 105 
146 100 37 104 
147 12 13 94 
148 93 85 104 
149 43 5 107 
150 86 59 112 
151 41 11 102 
152 60 6 105 
153 5 23 107 
154 11 12 102 
155 77 86 112 
156 85 100 104 
157 38 39 101 
158 40 41 102 
159 80 87 99 
160 86 77 109 
161 101 93 104 
162 79 103 115 
163 56 87 117 
164 87 57 116 
165 54 88 118 
166 88 55 117 
167 81 88 97 
168 98 35 106 
169 52 89 119 
170 89 53 118 
171 50 90 120 
172 90 51 119 
173 48 91 121 
174 91 49 120 
175 46 92 122 
176 92 47 121 
177 107 23 109 
178 79 87 116 
179 87 80 117 
180 80 88 117 
181 88 81 118 
182 81 89 118 
183 89 82 119 
184 82 90 119 
185 90 83 120 
186 83 91 120 
187 91 84 121 
188 84 92 121 
189 92 85 122 
190 101 39 124 
191 36 37 100 
192 84 98 106 
193 93 45 122 
194 85 93 122 
195 82 89 96 
196 83 90 95 
197 34 35 98 
198 23 24 109 
199 80 99 114 
200 94 13 111 
201 84 91 98 
202 40 94 124 
203 32 33 95 
204 30 31 96 
205 85 92 100 
206 95 33 108 
207 81 97 113 
208 83 95 108 
209 30 96 113 
210 78 93 101 
211 28 29 97 
212 39 40 124 
213 26 27 99 
214 78 94 111 
215 12 94 102 
216 94 40 102 
217 77 107 109 
218 97 29 113 
219 28 97 114 
220 99 27 114 
221 26 99 115 
222 82 96 110 
223 96 31 110 
224 32 95 110 
225 24 25 103 
226 37 38 104 
227 103 25 115 
228 78 101 124 
229 35 36 106 
230 33 34 108 
231 31 32 110 
232 34 98 108 
233 59 60 112 
234 29 30 113 
235 27 28 114 
236 25 26 115 
237 13 3 111 
238 57 58 116 
239 55 56 117 
240 53 54 118 
241 51 52 119 
242 49 50 120 
243 47 48 121 
244 45 46 122 
245 36 100 106 
246 42 43 123 
247 103 86 109 
248 94 78 124 
249 38 101 104 
250 24 103 109 
251 60 105 112 
252 105 77 112 
253 43 107 123 
254 105 42 123 
255 107 77 123 
256 77 105 123 
$EndElements
