$MeshFormat
4 0 8
$EndMeshFormat
$PhysicalNames
9
1 3 "LEFT_INFLOW"
1 4 "RIGHT_INFLOW"
1 5 "BOTTOM_INFLOW_1"
1 6 "BOTTOM_INFLOW_2"
1 7 "TOP_INFLOW_1"
1 8 "TOP_INFLOW_2"
1 9 "SHOCK"
2 1 "surface1"
2 2 "surface2"
$EndPhysicalNames
$Entities
6 7 2 0
1 0 0 0 0 0 0 0 
2 0.45 0 0 0.45 0 0 0 
3 0.6000000000000001 0.1 0 0.6000000000000001 0.1 0 0 
4 0 0.1 0 0 0.1 0 0 
5 1 0 0 1 0 0 0 
6 1 0.1 0 1 0.1 0 0 
1 0 0 0 0.45 0 0 1 5 2 1 -2 
2 0.45 0 0 0.6000000000000001 0.1 0 1 9 2 2 -3 
3 0 0.1 0 0.6000000000000001 0.1 0 1 7 2 3 -4 
4 0 0 0 0 0.1 0 1 3 2 4 -1 
5 0.45 0 0 1 0 0 1 6 2 5 -2 
6 1 0 0 1 0.1 0 1 4 2 6 -5 
7 0.6000000000000001 0.1 0 1 0.1 0 1 8 2 3 -6 
1 0 0 0 0.6000000000000001 0.1 0 1 1 4 1 2 3 4 
2 0.45 0 0 1 0.1 0 1 2 4 2 7 6 5 
$EndEntities
$Nodes
15 247
1 0 0 1
1 0 0 0
2 0 0 1
2 0.45 0 0
3 0 0 1
3 0.6000000000000001 0.1 0
4 0 0 1
4 0 0.1 0
5 0 0 1
5 1 0 0
6 0 0 1
6 1 0.1 0
1 1 0 17
7 0.02499999999995016 0 0
8 0.04999999999991087 0 0
9 0.07499999999984786 0 0
10 0.0999999999997752 0 0
11 0.1249999999997026 0 0
12 0.14999999999963 0 0
13 0.1749999999995575 0 0
14 0.1999999999994849 0 0
15 0.2249999999994123 0 0
16 0.2499999999994715 0 0
17 0.2749999999995374 0 0
18 0.2999999999996081 0 0
19 0.3249999999996679 0 0
20 0.3499999999997386 0 0
21 0.3749999999998021 0 0
22 0.3999999999998691 0 0
23 0.4249999999999401 0 0
2 1 0 7
24 0.4687499999999657 0.01249999999997713 0
25 0.4874999999998943 0.0249999999999295 0
26 0.5062499999998452 0.03749999999989677 0
27 0.5249999999998568 0.0499999999999045 0
28 0.5437499999999147 0.0624999999999431 0
29 0.5624999999998832 0.07499999999992206 0
30 0.5812499999999122 0.08749999999994143 0
3 1 0 23
31 0.5750000000000208 0.1 0
32 0.5500000000000416 0.1 0
33 0.5250000000000623 0.1 0
34 0.5000000000001336 0.1 0
35 0.4750000000002049 0.1 0
36 0.4500000000002762 0.1 0
37 0.4250000000003475 0.1 0
38 0.4000000000004188 0.1 0
39 0.3750000000005119 0.1 0
40 0.350000000000605 0.1 0
41 0.3250000000006981 0.1 0
42 0.3000000000007587 0.1 0
43 0.2750000000006998 0.1 0
44 0.250000000000641 0.1 0
45 0.2250000000005713 0.1 0
46 0.2000000000005017 0.1 0
47 0.175000000000443 0.1 0
48 0.1500000000003736 0.1 0
49 0.1250000000003041 0.1 0
50 0.10000000000026 0.1 0
51 0.07500000000019769 0.1 0
52 0.05000000000013183 0.1 0
53 0.02500000000006597 0.1 0
4 1 0 3
54 0 0.07500000000006912 0
55 0 0.05000000000013695 0
56 0 0.02500000000006915 0
5 1 0 21
57 0.9750000000000119 0 0
58 0.9500000000000809 0 0
59 0.9250000000001637 0 0
60 0.9000000000002919 0 0
61 0.8750000000004062 0 0
62 0.8500000000005048 0 0
63 0.8250000000005601 0 0
64 0.8000000000006153 0 0
65 0.7750000000006706 0 0
66 0.7500000000006826 0 0
67 0.7250000000007812 0 0
68 0.7000000000006885 0 0
69 0.6750000000005958 0 0
70 0.6500000000005131 0 0
71 0.6250000000004322 0 0
72 0.6000000000003396 0 0
73 0.5750000000002882 0 0
74 0.5500000000002409 0 0
75 0.5250000000001913 0 0
76 0.5000000000001499 0 0
77 0.475000000000075 0 0
6 1 0 3
78 1 0.07500000000006912 0
79 1 0.05000000000013695 0
80 1 0.02500000000006915 0
7 1 0 15
81 0.6249999999999215 0.1 0
82 0.6499999999999079 0.1 0
83 0.6749999999998509 0.1 0
84 0.6999999999997724 0.1 0
85 0.7249999999996937 0.1 0
86 0.749999999999615 0.1 0
87 0.7749999999995364 0.1 0
88 0.7999999999995011 0.1 0
89 0.8249999999995525 0.1 0
90 0.8499999999996258 0.1 0
91 0.8749999999996774 0.1 0
92 0.8999999999997506 0.1 0
93 0.9249999999998237 0.1 0
94 0.9499999999998536 0.1 0
95 0.9749999999999486 0.1 0
1 2 0 83
96 0.4272338838508672 0.06187940498251698 0
97 0.06630825036481228 0.04973910678291829 0
98 0.1696541246730847 0.0422449344887225 0
99 0.347131707345795 0.05030549187524395 0
100 0.2963728384215746 0.05109531954004334 0
101 0.2333243752763758 0.05762037169419831 0
102 0.1225279562835728 0.04845930126071825 0
103 0.3917594560195375 0.05215109660724453 0
104 0.4701099353812269 0.06940165611211301 0
105 0.5344741471490158 0.08169025439676317 0
106 0.04098996699934997 0.06906850166759029 0
107 0.4484939601497783 0.03886960586021234 0
108 0.04104171712284264 0.03062693695588995 0
109 0.5186031379215901 0.08709807210068186 0
110 0.5431076489391035 0.091166647912682 0
111 0.5286313212561987 0.09316400913361267 0
112 0.41768445928091 0.07697562193357735 0
113 0.3926295472697848 0.07308112664191189 0
114 0.4104759019474934 0.05600516314728634 0
115 0.406620252065837 0.06957764987954761 0
116 0.5494185680934612 0.07845365339675854 0
117 0.5269241716602566 0.06999007637590204 0
118 0.54033517420352 0.06942906370283551 0
119 0.2116963720553211 0.08044861899126812 0
120 0.2419913026030059 0.07811123196200066 0
121 0.2267992858615497 0.08605289517998441 0
122 0.1894985241498451 0.01948359092334647 0
123 0.1593702872477706 0.02178967814324579 0
124 0.1741038485345404 0.0138940806948001 0
125 0.460358134475069 0.08445044773708263 0
126 0.4876775084581659 0.08335178220765777 0
127 0.4735720937405681 0.08963362943909674 0
128 0.4451724726064438 0.06671803341254282 0
129 0.4360643102016875 0.04902681956110092 0
130 0.4619093244642697 0.05212589656379105 0
131 0.4480611650341196 0.05614090229236375 0
132 0.04445151056549153 0.0817158769050033 0
133 0.05179263889848802 0.06210365517073949 0
134 0.08142470767109364 0.06807151609322001 0
135 0.06354794409432016 0.07860141584867357 0
136 0.496139674204831 0.06020027548613217 0
137 0.5073676297845611 0.07518964093150554 0
138 0.2010578276342365 0.04993799871951655 0
139 0.160487815322575 0.073040572509949 0
140 0.1874963131874358 0.07553511333354872 0
141 0.2682233786139006 0.05257003909683686 0
142 0.2974906855119037 0.07577851188496143 0
143 0.2704008893161721 0.07680200029195043 0
144 0.2420057393701542 0.02668542466664561 0
145 0.2139728104931879 0.02436643719358673 0
146 0.1394180654637047 0.04722472575971771 0
147 0.1140986364867359 0.03225373149158669 0
148 0.1348435042993792 0.02438465159599558 0
149 0.3224732100138749 0.05047936790807617 0
150 0.2975097907007985 0.02575355403895906 0
151 0.3480570831667915 0.02530511961277117 0
152 0.3232646835663749 0.02536071089003322 0
153 0.3479984059350461 0.07516720895258874 0
154 0.3706120212323097 0.05073578026343072 0
155 0.371731300416514 0.07501988663571407 0
156 0.2704043095604016 0.02657053961017342 0
157 0.4369553090861417 0.08229705294071318 0
158 0.1141386523048073 0.06577525119210245 0
159 0.1350385751766702 0.07194156011759545 0
160 0.3232524746616275 0.07534481307008833 0
161 0.3954226946601183 0.03016603983039196 0
162 0.3721863159264862 0.02616067337453001 0
163 0.4288944513144185 0.02467094055766417 0
164 0.4173699638584389 0.03923105299206156 0
165 0.05181891086771401 0.037495942704001 0
166 0.0444878826732179 0.01809849692745177 0
167 0.08143882511109617 0.03137593885939562 0
168 0.06356458321480882 0.02112898229516634 0
169 0.09756698602716993 0.04943301631281167 0
170 0.4664059430130672 0.03143004752694509 0
171 0.4827116248267556 0.04544280683122206 0
172 0.02712061495563402 0.06275954478650675 0
173 0.02361210428092613 0.07983590085328496 0
174 0.02720743962684883 0.0370603334744112 0
175 0.03856111892160656 0.04984897469569884 0
176 0.5620200535518133 0.08924254992494894 0
177 0.4469732799419522 0.01667804648293368 0
178 0.02363946425667667 0.02007228944856245 0
2 2 0 69
179 0.6281738088411485 0.04537191583655639 0
180 0.9337832827856067 0.04987675492681867 0
181 0.7267748892664555 0.05117637800018625 0
182 0.8433291700549174 0.05138711517941683 0
183 0.6758872473636179 0.04935428571031843 0
184 0.8795503770058791 0.05027628001653056 0
185 0.7850903723920194 0.05882692560874844 0
186 0.5862448388793917 0.03355316144418644 0
187 0.5076868306557302 0.01197730787575297 0
188 0.9590257896612835 0.06909721402016497 0
189 0.9589751841397975 0.03065631079398767 0
190 0.504001863079151 0.006285784285569592 0
191 0.5204109557121042 0.0110669792161969 0
192 0.5171891828426418 0.005123833810731717 0
193 0.7959732854245437 0.08138929864194781 0
194 0.7673295290972125 0.07863939887218813 0
195 0.7790248876110241 0.08651013944184351 0
196 0.5686454942967383 0.02265388158103111 0
197 0.5948465548259877 0.01627414100331551 0
198 0.5792377750830272 0.01235481194390572 0
199 0.61551841872298 0.07012922791078514 0
200 0.6062441536743477 0.04060748869908742 0
201 0.574837007101576 0.05329128981555349 0
202 0.5943830801670699 0.06313621776976897 0
203 0.5361725718674141 0.03003132689299332 0
204 0.5558933995789201 0.04123763242994251 0
205 0.639465181886526 0.0222617072632889 0
206 0.6162903838921551 0.01980519912649637 0
207 0.9555591871092876 0.08173538907168426 0
208 0.948243959683814 0.06216645367146022 0
209 0.9187695425640872 0.06830563341650868 0
210 0.9364961012511664 0.07866436626112285 0
211 0.7925820425233912 0.02768735772424946 0
212 0.738755250862402 0.02581886399669387 0
213 0.7538999546770193 0.05301396697621265 0
214 0.7651859594659999 0.02692719674059525 0
215 0.7137399926144254 0.0758271170037291 0
216 0.7009628898586656 0.05019875217526879 0
217 0.6631454179852426 0.07451841091081055 0
218 0.6881878719229712 0.07513497806997466 0
219 0.817865391726718 0.05335789189813817 0
220 0.8454140695071909 0.07584986612593596 0
221 0.8204945094891896 0.07759182083482545 0
222 0.7401466264427964 0.07707884119108586 0
223 0.6881238565189461 0.02456349076143971 0
224 0.7131886182170932 0.02514133195026232 0
225 0.8453460037020016 0.02612146045036919 0
226 0.8651149739230718 0.05058957605363068 0
227 0.887233579460972 0.03342369371316108 0
228 0.8681348546814196 0.02676466275238137 0
229 0.8199448926527515 0.02704004450217618 0
230 0.8872432155913075 0.06692353635755217 0
231 0.8681453439811609 0.07407848482265403 0
232 0.9482215059864482 0.03756073813662302 0
233 0.9555247018012303 0.01811938837277081 0
234 0.9187755163651171 0.0316176652488746 0
235 0.9364840924019971 0.02119394319869556 0
236 0.6515487032446732 0.04796821499325005 0
237 0.6635211491133747 0.02370786176684173 0
238 0.9030857754081273 0.0500507484212367 0
239 0.6386942097340427 0.07336006026205212 0
240 0.9728904836467989 0.06277917333714991 0
241 0.9763927098386098 0.0798444668308558 0
242 0.9728042953652231 0.03708048518003785 0
243 0.9614640484709872 0.04989114665722121 0
244 0.4989241902043776 0.01759912726871789 0
245 0.4864953670454559 0.00919078074716353 0
246 0.5161597324598993 0.02324566970137954 0
247 0.9763657678151779 0.02008117131916599 0
$EndNodes
$Elements
15 304
1 0 15 1
1 1 
2 0 15 1
2 2 
3 0 15 1
3 3 
4 0 15 1
4 4 
5 0 15 1
5 5 
6 0 15 1
6 6 
1 1 1 18
7 1 7 
8 7 8 
9 8 9 
10 9 10 
11 10 11 
12 11 12 
13 12 13 
14 13 14 
15 14 15 
16 15 16 
17 16 17 
18 17 18 
19 18 19 
20 19 20 
21 20 21 
22 21 22 
23 22 23 
24 23 2 
2 1 1 8
25 2 24 
26 24 25 
27 25 26 
28 26 27 
29 27 28 
30 28 29 
31 29 30 
32 30 3 
3 1 1 24
33 3 31 
34 31 32 
35 32 33 
36 33 34 
37 34 35 
38 35 36 
39 36 37 
40 37 38 
41 38 39 
42 39 40 
43 40 41 
44 41 42 
45 42 43 
46 43 44 
47 44 45 
48 45 46 
49 46 47 
50 47 48 
51 48 49 
52 49 50 
53 50 51 
54 51 52 
55 52 53 
56 53 4 
4 1 1 4
57 4 54 
58 54 55 
59 55 56 
60 56 1 
5 1 1 22
61 5 57 
62 57 58 
63 58 59 
64 59 60 
65 60 61 
66 61 62 
67 62 63 
68 63 64 
69 64 65 
70 65 66 
71 66 67 
72 67 68 
73 68 69 
74 69 70 
75 70 71 
76 71 72 
77 72 73 
78 73 74 
79 74 75 
80 75 76 
81 76 77 
82 77 2 
6 1 1 4
83 6 78 
84 78 79 
85 79 80 
86 80 5 
7 1 1 16
87 3 81 
88 81 82 
89 82 83 
90 83 84 
91 84 85 
92 85 86 
93 86 87 
94 87 88 
95 88 89 
96 89 90 
97 90 91 
98 91 92 
99 92 93 
100 93 94 
101 94 95 
102 95 6 
1 2 3 109
103 32 33 111 110 
104 34 109 111 33 
105 105 110 111 109 
106 96 112 115 114 
107 38 113 115 112 
108 103 114 115 113 
109 27 28 118 117 
110 29 116 118 28 
111 105 117 118 116 
112 44 45 121 120 
113 46 119 121 45 
114 101 120 121 119 
115 12 13 124 123 
116 14 122 124 13 
117 98 123 124 122 
118 34 35 127 126 
119 36 125 127 35 
120 104 126 127 125 
121 104 128 131 130 
122 96 129 131 128 
123 107 130 131 129 
124 52 132 135 51 
125 106 133 135 132 
126 97 134 135 133 
127 50 51 135 134 
128 27 117 137 136 
129 105 109 137 117 
130 34 126 137 109 
131 104 136 137 126 
132 98 138 140 139 
133 101 119 140 138 
134 46 47 140 119 
135 48 139 140 47 
136 44 120 143 43 
137 101 141 143 120 
138 100 142 143 141 
139 42 43 143 142 
140 101 138 145 144 
141 98 122 145 138 
142 14 15 145 122 
143 16 144 145 15 
144 12 123 148 11 
145 98 146 148 123 
146 102 147 148 146 
147 10 11 148 147 
148 99 149 152 151 
149 100 150 152 149 
150 18 19 152 150 
151 20 151 152 19 
152 40 153 155 39 
153 99 154 155 153 
154 103 113 155 154 
155 38 39 155 113 
156 16 17 156 144 
157 18 150 156 17 
158 100 141 156 150 
159 101 144 156 141 
160 96 128 157 112 
161 104 125 157 128 
162 36 37 157 125 
163 38 112 157 37 
164 48 49 159 139 
165 50 158 159 49 
166 102 146 159 158 
167 98 139 159 146 
168 99 153 160 149 
169 40 41 160 153 
170 42 142 160 41 
171 100 149 160 142 
172 20 21 162 151 
173 22 161 162 21 
174 103 154 162 161 
175 99 151 162 154 
176 22 163 164 161 
177 107 129 164 163 
178 96 114 164 129 
179 103 161 164 114 
180 97 165 168 167 
181 108 166 168 165 
182 8 9 168 166 
183 10 167 168 9 
184 97 167 169 134 
185 10 147 169 167 
186 102 158 169 147 
187 50 134 169 158 
188 104 130 171 136 
189 107 170 171 130 
190 25 26 171 170 
191 27 136 171 26 
192 106 132 173 172 
193 52 53 173 132 
194 4 54 173 53 
195 55 172 173 54 
196 106 172 175 133 
197 55 174 175 172 
198 108 165 175 174 
199 97 133 175 165 
200 29 30 176 116 
201 3 31 176 30 
202 32 110 176 31 
203 105 116 176 110 
204 2 24 177 23 
205 25 170 177 24 
206 107 163 177 170 
207 22 23 177 163 
208 1 7 178 56 
209 8 166 178 7 
210 108 174 178 166 
211 55 56 178 174 
2 2 3 93
212 74 75 192 191 
213 76 190 192 75 
214 187 191 192 190 
215 86 87 195 194 
216 88 193 195 87 
217 185 194 195 193 
218 72 73 198 197 
219 74 196 198 73 
220 186 197 198 196 
221 3 199 202 30 
222 179 200 202 199 
223 186 201 202 200 
224 29 30 202 201 
225 27 28 204 203 
226 29 201 204 28 
227 186 196 204 201 
228 74 203 204 196 
229 72 197 206 71 
230 186 200 206 197 
231 179 205 206 200 
232 70 71 206 205 
233 94 207 210 93 
234 188 208 210 207 
235 180 209 210 208 
236 92 93 210 209 
237 185 211 214 213 
238 64 65 214 211 
239 66 212 214 65 
240 181 213 214 212 
241 84 215 218 83 
242 181 216 218 215 
243 183 217 218 216 
244 82 83 218 217 
245 182 219 221 220 
246 185 193 221 219 
247 88 89 221 193 
248 90 220 221 89 
249 181 215 222 213 
250 84 85 222 215 
251 86 194 222 85 
252 185 213 222 194 
253 68 223 224 67 
254 183 216 224 223 
255 181 212 224 216 
256 66 67 224 212 
257 62 225 228 61 
258 182 226 228 225 
259 184 227 228 226 
260 60 61 228 227 
261 182 225 229 219 
262 62 63 229 225 
263 64 211 229 63 
264 185 219 229 211 
265 90 91 231 220 
266 92 230 231 91 
267 184 226 231 230 
268 182 220 231 226 
269 180 232 235 234 
270 189 233 235 232 
271 58 59 235 233 
272 60 234 235 59 
273 183 223 237 236 
274 68 69 237 223 
275 70 205 237 69 
276 179 236 237 205 
277 180 234 238 209 
278 60 227 238 234 
279 184 230 238 227 
280 92 209 238 230 
281 179 199 239 236 
282 3 81 239 199 
283 82 217 239 81 
284 183 236 239 217 
285 6 78 241 95 
286 79 240 241 78 
287 188 207 241 240 
288 94 95 241 207 
289 188 240 243 208 
290 79 242 243 240 
291 189 232 243 242 
292 180 208 243 232 
293 76 77 245 190 
294 2 24 245 77 
295 25 244 245 24 
296 187 190 245 244 
297 187 244 246 191 
298 25 26 246 244 
299 27 203 246 26 
300 74 191 246 203 
301 5 57 247 80 
302 58 233 247 57 
303 189 242 247 233 
304 79 80 247 242 
$EndElements
