$MeshFormat
4 0 8
$EndMeshFormat
$PhysicalNames
9
1 3 "LEFT_INFLOW"
1 4 "RIGHT_INFLOW"
1 5 "BOTTOM_INFLOW_1"
1 6 "BOTTOM_INFLOW_2"
1 7 "TOP_INFLOW_1"
1 8 "TOP_INFLOW_2"
1 9 "SHOCK"
2 1 "surface1"
2 2 "surface2"
$EndPhysicalNames
$Entities
6 7 2 0
1 0 0 0 0 0 0 0 
2 0.125 0 0 0.125 0 0 0 
3 0.875 0.5 0 0.875 0.5 0 0 
4 0 0.5 0 0 0.5 0 0 
5 1 0 0 1 0 0 0 
6 1 0.5 0 1 0.5 0 0 
1 0 0 0 0.125 0 0 1 5 2 1 -2 
2 0.125 0 0 0.875 0.5 0 1 9 2 2 -3 
3 0 0.5 0 0.875 0.5 0 1 7 2 3 -4 
4 0 0 0 0 0.5 0 1 3 2 4 -1 
5 0.125 0 0 1 0 0 1 6 2 5 -2 
6 1 0 0 1 0.5 0 1 4 2 6 -5 
7 0.875 0.5 0 1 0.5 0 1 8 2 3 -6 
1 0 0 0 0.875 0.5 0 1 1 4 1 2 3 4 
2 0.125 0 0 1 0.5 0 1 2 4 2 7 6 5 
$EndEntities
$Nodes
15 141
1 0 0 1
1 0 0 0
2 0 0 1
2 0.125 0 0
3 0 0 1
3 0.875 0.5 0
4 0 0 1
4 0 0.5 0
5 0 0 1
5 1 0 0
6 0 0 1
6 1 0.5 0
1 1 0 1
7 0.06249999999983679 0 0
2 1 0 11
8 0.1874999999998029 0.04166666666653523 0
9 0.2499999999995999 0.08333333333306658 0
10 0.3124999999993837 0.1249999999995891 0
11 0.3749999999991676 0.1666666666661117 0
12 0.4374999999989514 0.2083333333326343 0
13 0.4999999999987453 0.2499999999991635 0
14 0.5624999999989462 0.2916666666659641 0
15 0.6249999999991569 0.3333333333327713 0
16 0.6874999999993676 0.3749999999995784 0
17 0.7499999999995784 0.4166666666663856 0
18 0.8124999999997893 0.4583333333331929 0
3 1 0 10
19 0.7954545454545828 0.5 0
20 0.7159090909091657 0.5 0
21 0.6363636363637486 0.5 0
22 0.5568181818183315 0.5 0
23 0.4772727272729144 0.5 0
24 0.3977272727272451 0.5 0
25 0.3181818181816684 0.5 0
26 0.2386363636362512 0.5 0
27 0.1590909090908342 0.5 0
28 0.07954545454541706 0.5 0
4 1 0 6
29 0 0.4285714285712302 0
30 0 0.3571428571431544 0
31 0 0.2857142857150783 0
32 0 0.214285714286606 0
33 0 0.1428571428577374 0
34 0 0.07142857142886866 0
5 1 0 10
35 0.9204545454546204 0 0
36 0.8409090909092407 0 0
37 0.7613636363638611 0 0
38 0.6818181818184815 0 0
39 0.6022727272731019 0 0
40 0.5227272727272174 0 0
41 0.4431818181815185 0 0
42 0.3636363636361389 0 0
43 0.2840909090907592 0 0
44 0.2045454545453795 0 0
6 1 0 6
45 1 0.4285714285712302 0
46 1 0.3571428571431544 0
47 1 0.2857142857150783 0
48 1 0.214285714286606 0
49 1 0.1428571428577374 0
50 1 0.07142857142886866 0
7 1 0 1
51 0.9375000000000001 0.5 0
1 2 0 45
52 0.2075417550378304 0.2969950390356036 0
53 0.3597721980035381 0.3485825565018879 0
54 0.1443278430761191 0.1772507238598761 0
55 0.1184480799413841 0.3847635617446306 0
56 0.4811801269291464 0.3864486583112939 0
57 0.3038724767908232 0.2524158759821359 0
58 0.0937499999999184 0.08966284922746803 0
59 0.10893881253437 0.2711395833433143 0
60 0.2603055105929417 0.3915695298071725 0
61 0.2299829906585047 0.166648526339911 0
62 0.5646890104847994 0.4059402701295097 0
63 0.4221770203997532 0.2905490298889495 0
64 0.4017965403132274 0.4149178530328986 0
65 0.19325746053355 0.4312257269116919 0
66 0.06433093952166397 0.1785714285721717 0
67 0.1626749745588485 0.1075370620647388 0
68 0.2721623363440405 0.3182167084490928 0
69 0.06686208430705434 0.3257201663665933 0
70 0.3278079159148003 0.425016962715636 0
71 0.1722265588097469 0.2394690550261463 0
72 0.3714160110091251 0.2403605477332727 0
73 0.6351864465331212 0.4265587115983522 0
74 0.06864304453075758 0.4321346791574376 0
75 0.761524427924686 0.4630836554443802 0
76 0.49226361955606 0.3192839558300394 0
77 0.1435936243975898 0.3240449937347605 0
78 0.5054260458062322 0.4454795759340094 0
79 0.1953677136190885 0.362057517344973 0
80 0.2993255590924714 0.1899130113543906 0
81 0.0526718624815299 0.2493621567780367 0
82 0.2432338327747445 0.2469580754612422 0
83 0.05205408864322633 0.05391786327720549 0
84 0.4224188684240224 0.3538761279472238 0
85 0.1237969897283886 0.4496247935627521 0
86 0.695618583498242 0.4441362374154671 0
87 0.05147821055330611 0.1128452477651827 0
88 0.1239621122971022 0.05113191965274526 0
89 0.5451265513936218 0.3473345768539156 0
90 0.2676378137718423 0.4495624438869001 0
91 0.1049483218094196 0.2186532717015043 0
92 0.342298614071487 0.2901833090243868 0
93 0.4504386663067147 0.4495838798132127 0
94 0.04662470426321674 0.3833771685909901 0
95 0.09992596734654799 0.1386916880451801 0
96 0.3056913128921687 0.3657696899996108 0
2 2 0 45
97 0.792458244962129 0.2030049609644078 0
98 0.640227801996526 0.1514174434979285 0
99 0.8556721569237991 0.3227492761404827 0
100 0.8815519200587943 0.1152364382554324 0
101 0.5188198730703472 0.1135513416884698 0
102 0.6961275232091846 0.247584124017835 0
103 0.9062500000000003 0.4103371507725682 0
104 0.8910611874656621 0.2288604166571316 0
105 0.7396944894071009 0.1084304701928541 0
106 0.7700170093411105 0.3333514736598611 0
107 0.4353109895150273 0.09405972987054623 0
108 0.577822979598746 0.2094509701095111 0
109 0.5982034596866566 0.08508214696707082 0
110 0.8067425394665539 0.06877427308834835 0
111 0.9356690604783894 0.3214285714291163 0
112 0.8373250254407839 0.392462937935215 0
113 0.7278376636559853 0.1817832915509209 0
114 0.9331379156929258 0.1742798336339446 0
115 0.6721920840852034 0.07498303728441624 0
116 0.8277734411902243 0.2605309449739708 0
117 0.6285839889898862 0.259639452265389 0
118 0.3648135534666248 0.07344128840172212 0
119 0.9313569554692824 0.06786532084252848 0
120 0.2384755720745479 0.03691634455561708 0
121 0.5077363804422587 0.1807160441687929 0
122 0.8564063756024619 0.1759550062652147 0
123 0.4945739541936408 0.05452042406598817 0
124 0.8046322863809527 0.1379424826550394 0
125 0.7006744409075769 0.3100869886453494 0
126 0.947328137518356 0.2506378432232863 0
127 0.7567661672252095 0.2530419245386151 0
128 0.9479459113567311 0.4460821367228054 0
129 0.5775811315759954 0.1461238720515519 0
130 0.8762030102716984 0.05037520643726186 0
131 0.3043814165013189 0.05586376258458283 0
132 0.948521789446594 0.3871547522352666 0
133 0.8760378877026767 0.4488680803472115 0
134 0.4548734486051504 0.152665423145311 0
135 0.7323621862282401 0.05043755611312373 0
136 0.8950516781911946 0.2813467282988393 0
137 0.6577013859291467 0.2098166909753555 0
138 0.5495613336932085 0.05041612018679303 0
139 0.9533752957370132 0.1166228314091009 0
140 0.9000740326530318 0.3613083119552027 0
141 0.6943086871079683 0.1342303100003542 0
$EndNodes
$Elements
15 298
1 0 15 1
1 1 
2 0 15 1
2 2 
3 0 15 1
3 3 
4 0 15 1
4 4 
5 0 15 1
5 5 
6 0 15 1
6 6 
1 1 1 2
7 1 7 
8 7 2 
2 1 1 12
9 2 8 
10 8 9 
11 9 10 
12 10 11 
13 11 12 
14 12 13 
15 13 14 
16 14 15 
17 15 16 
18 16 17 
19 17 18 
20 18 3 
3 1 1 11
21 3 19 
22 19 20 
23 20 21 
24 21 22 
25 22 23 
26 23 24 
27 24 25 
28 25 26 
29 26 27 
30 27 28 
31 28 4 
4 1 1 7
32 4 29 
33 29 30 
34 30 31 
35 31 32 
36 32 33 
37 33 34 
38 34 1 
5 1 1 11
39 5 35 
40 35 36 
41 36 37 
42 37 38 
43 38 39 
44 39 40 
45 40 41 
46 41 42 
47 42 43 
48 43 44 
49 44 2 
6 1 1 7
50 6 45 
51 45 46 
52 46 47 
53 47 48 
54 48 49 
55 49 50 
56 50 5 
7 1 1 2
57 3 51 
58 51 6 
1 2 2 120
59 9 10 61 
60 22 62 73 
61 7 2 88 
62 59 71 77 
63 83 7 88 
64 21 22 73 
65 9 61 67 
66 71 52 77 
67 61 54 67 
68 62 15 73 
69 64 24 70 
70 4 29 74 
71 58 67 95 
72 11 72 80 
73 24 25 70 
74 67 58 88 
75 61 10 80 
76 54 61 71 
77 28 4 74 
78 19 20 75 
79 12 13 63 
80 72 57 80 
81 15 16 73 
82 17 18 75 
83 69 31 81 
84 15 62 89 
85 62 56 89 
86 62 22 78 
87 26 27 65 
88 63 76 84 
89 30 31 69 
90 56 62 78 
91 71 59 91 
92 26 65 90 
93 53 64 70 
94 68 60 79 
95 58 83 88 
96 52 68 79 
97 67 54 95 
98 76 56 84 
99 59 69 81 
100 63 13 76 
101 12 63 72 
102 1 7 83 
103 63 53 92 
104 34 1 83 
105 32 33 66 
106 65 60 90 
107 8 9 67 
108 11 12 72 
109 61 80 82 
110 10 11 80 
111 65 55 79 
112 53 63 84 
113 8 67 88 
114 22 23 78 
115 80 57 82 
116 69 59 77 
117 72 63 92 
118 66 33 87 
119 57 68 82 
120 68 52 82 
121 32 66 81 
122 64 56 93 
123 20 21 86 
124 68 92 96 
125 53 70 96 
126 55 69 77 
127 92 53 96 
128 54 71 91 
129 14 15 89 
130 21 73 86 
131 64 53 84 
132 2 8 88 
133 56 64 84 
134 55 77 79 
135 24 64 93 
136 60 65 79 
137 18 19 75 
138 27 28 85 
139 13 14 76 
140 56 76 89 
141 66 87 95 
142 68 57 92 
143 16 17 86 
144 81 66 91 
145 55 65 85 
146 75 20 86 
147 31 32 81 
148 23 24 93 
149 69 55 94 
150 71 61 82 
151 29 30 94 
152 65 27 85 
153 25 26 90 
154 73 16 86 
155 56 78 93 
156 17 75 86 
157 33 34 87 
158 28 74 85 
159 55 74 94 
160 54 66 95 
161 66 54 91 
162 52 71 82 
163 70 25 90 
164 74 29 94 
165 30 69 94 
166 77 52 79 
167 70 60 96 
168 60 70 90 
169 60 68 96 
170 57 72 92 
171 74 55 85 
172 87 58 95 
173 59 81 91 
174 76 14 89 
175 83 58 87 
176 34 83 87 
177 78 23 93 
178 18 3 19 
2 2 2 120
179 16 17 106 
180 107 41 118 
181 3 51 133 
182 116 104 122 
183 51 128 133 
184 41 42 118 
185 106 17 112 
186 97 116 122 
187 99 106 112 
188 11 107 118 
189 39 109 115 
190 50 5 119 
191 112 103 140 
192 117 15 125 
193 38 39 115 
194 103 112 133 
195 16 106 125 
196 106 99 116 
197 5 35 119 
198 43 44 120 
199 13 14 108 
200 102 117 125 
201 10 11 118 
202 8 9 120 
203 48 114 126 
204 107 11 134 
205 101 107 134 
206 41 107 123 
207 36 37 110 
208 121 108 129 
209 48 49 114 
210 107 101 123 
211 104 116 136 
212 110 37 135 
213 109 98 115 
214 105 113 124 
215 128 103 133 
216 113 97 124 
217 99 112 140 
218 101 121 129 
219 114 104 126 
220 13 108 121 
221 108 14 117 
222 51 6 128 
223 98 108 137 
224 6 45 128 
225 46 47 111 
226 105 110 135 
227 17 18 112 
228 14 15 117 
229 125 106 127 
230 15 16 125 
231 100 110 124 
232 108 98 129 
233 112 18 133 
234 40 41 123 
235 102 125 127 
236 104 114 122 
237 108 117 137 
238 46 111 132 
239 113 102 127 
240 97 113 127 
241 111 47 126 
242 101 109 138 
243 42 43 131 
244 137 113 141 
245 115 98 141 
246 114 100 122 
247 98 137 141 
248 116 99 136 
249 11 12 134 
250 118 42 131 
251 98 109 129 
252 18 3 133 
253 109 101 129 
254 122 100 124 
255 109 39 138 
256 110 105 124 
257 44 8 120 
258 35 36 130 
259 12 13 121 
260 121 101 134 
261 132 111 140 
262 102 113 137 
263 9 10 131 
264 111 126 136 
265 110 100 130 
266 43 120 131 
267 47 48 126 
268 39 40 138 
269 100 114 139 
270 106 116 127 
271 49 50 139 
272 36 110 130 
273 37 38 135 
274 10 118 131 
275 123 101 138 
276 120 9 131 
277 45 46 132 
278 119 35 130 
279 119 100 139 
280 111 99 140 
281 99 111 136 
282 116 97 127 
283 38 115 135 
284 50 119 139 
285 114 49 139 
286 97 122 124 
287 105 115 141 
288 115 105 135 
289 113 105 141 
290 117 102 137 
291 100 119 130 
292 103 132 140 
293 126 104 136 
294 12 121 134 
295 103 128 132 
296 128 45 132 
297 40 123 138 
298 8 44 2 
$EndElements
