$MeshFormat
4 0 8
$EndMeshFormat
$PhysicalNames
9
1 3 "LEFT_INFLOW"
1 4 "RIGHT_INFLOW"
1 5 "BOTTOM_INFLOW_1"
1 6 "BOTTOM_INFLOW_2"
1 7 "TOP_INFLOW_1"
1 8 "TOP_INFLOW_2"
1 9 "SHOCK"
2 1 "surface1"
2 2 "surface2"
$EndPhysicalNames
$Entities
6 7 2 0
1 0 0 0 0 0 0 0 
2 0.125 0 0 0.125 0 0 0 
3 0.875 0.5 0 0.875 0.5 0 0 
4 0 0.5 0 0 0.5 0 0 
5 1 0 0 1 0 0 0 
6 1 0.5 0 1 0.5 0 0 
1 0 0 0 0.125 0 0 1 5 2 1 -2 
2 0.125 0 0 0.875 0.5 0 1 9 2 2 -3 
3 0 0.5 0 0.875 0.5 0 1 7 2 3 -4 
4 0 0 0 0 0.5 0 1 3 2 4 -1 
5 0.125 0 0 1 0 0 1 6 2 5 -2 
6 1 0 0 1 0.5 0 1 4 2 6 -5 
7 0.875 0.5 0 1 0.5 0 1 8 2 3 -6 
1 0 0 0 0.875 0.5 0 1 1 4 1 2 3 4 
2 0.125 0 0 1 0.5 0 1 2 4 2 7 6 5 
$EndEntities
$Nodes
15 47
1 0 0 1
1 0 0 0
2 0 0 1
2 0.125 0 0
3 0 0 1
3 0.875 0.5 0
4 0 0 1
4 0 0.5 0
5 0 0 1
5 1 0 0
6 0 0 1
6 1 0.5 0
1 1 0 0
2 1 0 5
7 0.2499999999996 0.08333333333306667 0
8 0.3749999999991673 0.1666666666661115 0
9 0.4999999999987446 0.2499999999991631 0
10 0.6249999999991557 0.3333333333327704 0
11 0.7499999999995778 0.4166666666663852 0
3 1 0 5
12 0.7291666666667354 0.5 0
13 0.5833333333334707 0.5 0
14 0.4375000000001958 0.5 0
15 0.2916666666665306 0.5 0
16 0.1458333333332653 0.5 0
4 1 0 3
17 0 0.3750000000001739 0
18 0 0.2500000000010308 0
19 0 0.125000000000521 0
5 1 0 5
20 0.8541666666668042 0 0
21 0.7083333333336082 0 0
22 0.5625000000003912 0 0
23 0.4166666666663932 0 0
24 0.2708333333331966 0 0
6 1 0 3
25 1 0.3750000000001739 0
26 1 0.2500000000010308 0
27 1 0.125000000000521 0
7 1 0 0
1 2 0 10
28 0.2017547470994334 0.2999347489183374 0
29 0.350236503376497 0.3379204349864177 0
30 0.1291846160154021 0.1904481028010746 0
31 0.5246425918322145 0.3916375328148571 0
32 0.1208519159876183 0.3815755424588854 0
33 0.2243694904074533 0.4045954945447791 0
34 0.2627661340417196 0.2066229506143337 0
35 0.6517857142852238 0.4285714285707921 0
36 0.09341213152819983 0.0934121315283315 0
37 0.09315875681152046 0.28976672728823 0
2 2 0 10
38 0.7982452529002724 0.2000652510820258 0
39 0.6497634966225713 0.1620795650130682 0
40 0.8708153839842474 0.3095518971994313 0
41 0.4753574081668306 0.1083624671844055 0
42 0.8791480840122958 0.1184244575412654 0
43 0.7756305095923277 0.09540450545531622 0
44 0.7372338659571323 0.2933770493853048 0
45 0.3482142857137162 0.07142857142809034 0
46 0.9065878684722039 0.4065878684722479 0
47 0.9068412431882705 0.2102332727125892 0
$EndNodes
$Elements
15 104
1 0 15 1
1 1 
2 0 15 1
2 2 
3 0 15 1
3 3 
4 0 15 1
4 4 
5 0 15 1
5 5 
6 0 15 1
6 6 
1 1 1 1
7 1 2 
2 1 1 6
8 2 7 
9 7 8 
10 8 9 
11 9 10 
12 10 11 
13 11 3 
3 1 1 6
14 3 12 
15 12 13 
16 13 14 
17 14 15 
18 15 16 
19 16 4 
4 1 1 4
20 4 17 
21 17 18 
22 18 19 
23 19 1 
5 1 1 6
24 5 20 
25 20 21 
26 21 22 
27 22 23 
28 23 24 
29 24 2 
6 1 1 4
30 6 25 
31 25 26 
32 26 27 
33 27 5 
7 1 1 1
34 3 6 
1 2 2 35
35 8 9 29 
36 4 17 32 
37 8 29 34 
38 29 28 34 
39 16 4 32 
40 14 15 29 
41 10 11 35 
42 7 30 36 
43 12 13 35 
44 2 7 36 
45 18 19 30 
46 28 29 33 
47 14 29 31 
48 29 9 31 
49 29 15 33 
50 30 7 34 
51 13 31 35 
52 11 12 35 
53 31 10 35 
54 13 14 31 
55 19 1 36 
56 1 2 36 
57 17 18 37 
58 28 30 34 
59 9 10 31 
60 30 19 36 
61 18 30 37 
62 32 17 37 
63 15 16 33 
64 7 8 34 
65 30 28 37 
66 16 32 33 
67 32 28 33 
68 28 32 37 
69 3 12 11 
2 2 2 35
70 9 10 39 
71 27 5 42 
72 39 10 44 
73 38 39 44 
74 5 20 42 
75 21 22 39 
76 7 8 45 
77 40 11 46 
78 23 24 45 
79 11 3 46 
80 25 26 40 
81 39 38 43 
82 39 22 41 
83 9 39 41 
84 21 39 43 
85 11 40 44 
86 41 23 45 
87 24 7 45 
88 8 41 45 
89 22 23 41 
90 6 25 46 
91 3 6 46 
92 26 27 47 
93 40 38 44 
94 8 9 41 
95 25 40 46 
96 40 26 47 
97 27 42 47 
98 20 21 43 
99 10 11 44 
100 38 40 47 
101 42 20 43 
102 38 42 43 
103 42 38 47 
104 7 24 2 
$EndElements
