$MeshFormat
4 0 8
$EndMeshFormat
$PhysicalNames
9
1 3 "LEFT_INFLOW"
1 4 "RIGHT_INFLOW"
1 5 "BOTTOM_INFLOW_1"
1 6 "BOTTOM_INFLOW_2"
1 7 "TOP_INFLOW_1"
1 8 "TOP_INFLOW_2"
1 9 "SHOCK"
2 1 "surface1"
2 2 "surface2"
$EndPhysicalNames
$Entities
6 7 2 0
1 0 0 0 0 0 0 0 
2 0.125 0 0 0.125 0 0 0 
3 0.875 0.5 0 0.875 0.5 0 0 
4 0 0.5 0 0 0.5 0 0 
5 1 0 0 1 0 0 0 
6 1 0.5 0 1 0.5 0 0 
1 0 0 0 0.125 0 0 1 5 2 1 -2 
2 0.125 0 0 0.875 0.5 0 1 9 2 2 -3 
3 0 0.5 0 0.875 0.5 0 1 7 2 3 -4 
4 0 0 0 0 0.5 0 1 3 2 4 -1 
5 0.125 0 0 1 0 0 1 6 2 5 -2 
6 1 0 0 1 0.5 0 1 4 2 6 -5 
7 0.875 0.5 0 1 0.5 0 1 8 2 3 -6 
1 0 0 0 0.875 0.5 0 1 1 4 1 2 3 4 
2 0.125 0 0 1 0.5 0 1 2 4 2 7 6 5 
$EndEntities
$Nodes
15 77
1 0 0 1
1 0 0 0
2 0 0 1
2 0.125 0 0
3 0 0 1
3 0.875 0.5 0
4 0 0 1
4 0 0.5 0
5 0 0 1
5 1 0 0
6 0 0 1
6 1 0.5 0
1 1 0 1
7 0.06249999999983669 0 0
2 1 0 7
8 0.2187499999997075 0.06249999999980501 0
9 0.3124999999993838 0.1249999999995892 0
10 0.4062499999990594 0.1874999999993729 0
11 0.4999999999987451 0.2499999999991634 0
12 0.5937499999990512 0.3124999999993675 0
13 0.6874999999993675 0.3749999999995783 0
14 0.7812499999996838 0.4374999999997892 0
3 1 0 7
15 0.7656250000000513 0.5 0
16 0.6562500000001024 0.5 0
17 0.5468750000001535 0.5 0
18 0.4375000000001938 0.5 0
19 0.3281249999998441 0.5 0
20 0.2187499999998961 0.5 0
21 0.109374999999948 0.5 0
4 1 0 4
22 0 0.4 0
23 0 0.3000000000006939 0
24 0 0.2000000000008326 0
25 0 0.1000000000004161 0
5 1 0 7
26 0.8906250000001028 0 0
27 0.7812500000002054 0 0
28 0.671875000000308 0 0
29 0.5625000000003888 0 0
30 0.4531249999996897 0 0
31 0.3437499999997931 0 0
32 0.2343749999998966 0 0
6 1 0 4
33 1 0.4 0
34 1 0.3000000000006939 0
35 1 0.2000000000008326 0
36 1 0.1000000000004161 0
7 1 0 1
37 0.9375000000000002 0.5 0
1 2 0 20
38 0.2022398909516428 0.2981512986159959 0
39 0.3585724878655738 0.3415962469662429 0
40 0.1407578278070311 0.1753099638253499 0
41 0.09374999999991836 0.08906249999994345 0
42 0.4787622573953792 0.377465345882994 0
43 0.1215061878787368 0.3570276581854326 0
44 0.3038197145931696 0.2402318363089745 0
45 0.2696223521261451 0.3983824372325518 0
46 0.08285561517203931 0.262670237395162 0
47 0.6117877571846619 0.4185656528850058 0
48 0.2356134866701869 0.1802386197499429 0
49 0.380652962171356 0.4271094649749935 0
50 0.4157219998714868 0.2748545001903914 0
51 0.7075892857139183 0.4464285714280949 0
52 0.06305293117899757 0.1582027411374821 0
53 0.1774664425086379 0.4223475640562168 0
54 0.2813684507654567 0.317504137004057 0
55 0.07389932685741545 0.4259473901517622 0
56 0.04160519054540653 0.0544891776864458 0
57 0.05243246838786711 0.350000000000347 0
2 2 0 20
58 0.7977601090482429 0.2018487013841958 0
59 0.6414275121347983 0.1584037530335025 0
60 0.8592421721927466 0.3246900361746788 0
61 0.9062500000000003 0.4109375000000005 0
62 0.5212377426037647 0.1225346541162564 0
63 0.8784938121212499 0.1429723418148082 0
64 0.6961802854065945 0.2597681636917422 0
65 0.7303776478740563 0.1016175627674145 0
66 0.9171443848278237 0.2373297626054921 0
67 0.3882122428144974 0.08143434711438219 0
68 0.7643865133293271 0.3197613802499968 0
69 0.6193470378289392 0.07289053502490481 0
70 0.5842780001264752 0.2251454998078997 0
71 0.2924107142852939 0.0535714285710747 0
72 0.9369470688204472 0.3417972588626112 0
73 0.822533557491491 0.07765243594371225 0
74 0.7186315492340321 0.1824958629961146 0
75 0.9261006731426349 0.07405260984843307 0
76 0.9583948094543946 0.4455108223136197 0
77 0.9475675316120802 0.1500000000006244 0
$EndNodes
$Elements
15 166
1 0 15 1
1 1 
2 0 15 1
2 2 
3 0 15 1
3 3 
4 0 15 1
4 4 
5 0 15 1
5 5 
6 0 15 1
6 6 
1 1 1 2
7 1 7 
8 7 2 
2 1 1 8
9 2 8 
10 8 9 
11 9 10 
12 10 11 
13 11 12 
14 12 13 
15 13 14 
16 14 3 
3 1 1 8
17 3 15 
18 15 16 
19 16 17 
20 17 18 
21 18 19 
22 19 20 
23 20 21 
24 21 4 
4 1 1 5
25 4 22 
26 22 23 
27 23 24 
28 24 25 
29 25 1 
5 1 1 8
30 5 26 
31 26 27 
32 27 28 
33 28 29 
34 29 30 
35 30 31 
36 31 32 
37 32 2 
6 1 1 5
38 6 33 
39 33 34 
40 34 35 
41 35 36 
42 36 5 
7 1 1 2
43 3 37 
44 37 6 
1 2 2 61
45 7 2 41 
46 8 40 41 
47 17 18 42 
48 38 40 48 
49 40 38 46 
50 46 24 52 
51 11 12 42 
52 40 8 48 
53 23 24 46 
54 17 42 47 
55 13 14 51 
56 7 41 56 
57 43 38 53 
58 25 1 56 
59 19 45 49 
60 19 20 45 
61 15 16 51 
62 42 12 47 
63 42 39 50 
64 38 45 53 
65 38 43 46 
66 11 42 50 
67 42 18 49 
68 44 38 48 
69 39 42 49 
70 45 39 49 
71 40 46 52 
72 9 10 44 
73 16 47 51 
74 14 15 51 
75 39 44 50 
76 43 53 55 
77 8 9 48 
78 44 10 50 
79 53 21 55 
80 47 13 51 
81 16 17 47 
82 1 7 56 
83 9 44 48 
84 12 13 47 
85 41 25 56 
86 20 21 53 
87 21 4 55 
88 38 44 54 
89 46 43 57 
90 25 41 52 
91 44 39 54 
92 23 46 57 
93 24 25 52 
94 18 19 49 
95 45 20 53 
96 4 22 55 
97 45 38 54 
98 39 45 54 
99 10 11 50 
100 41 40 52 
101 22 23 57 
102 55 22 57 
103 43 55 57 
104 2 8 41 
105 3 15 14 
2 2 2 61
106 3 37 61 
107 60 14 61 
108 29 30 62 
109 60 58 68 
110 58 60 66 
111 34 66 72 
112 10 11 62 
113 14 60 68 
114 34 35 66 
115 62 30 67 
116 8 9 71 
117 61 37 76 
118 58 63 73 
119 6 33 76 
120 65 28 69 
121 27 28 65 
122 31 32 71 
123 10 62 67 
124 59 62 70 
125 65 58 73 
126 63 58 66 
127 62 11 70 
128 29 62 69 
129 58 64 68 
130 62 59 69 
131 59 65 69 
132 66 60 72 
133 12 13 64 
134 67 31 71 
135 32 8 71 
136 64 59 70 
137 73 63 75 
138 13 14 68 
139 12 64 70 
140 26 73 75 
141 9 67 71 
142 30 31 67 
143 37 6 76 
144 64 13 68 
145 9 10 67 
146 33 61 76 
147 26 27 73 
148 5 26 75 
149 64 58 74 
150 63 66 77 
151 61 33 72 
152 59 64 74 
153 66 35 77 
154 33 34 72 
155 28 29 69 
156 27 65 73 
157 36 5 75 
158 58 65 74 
159 65 59 74 
160 11 12 70 
161 60 61 72 
162 35 36 77 
163 36 75 77 
164 75 63 77 
165 32 2 8 
166 14 3 61 
$EndElements
