$MeshFormat
4 0 8
$EndMeshFormat
$PhysicalNames
9
1 3 "LEFT_INFLOW"
1 4 "RIGHT_INFLOW"
1 5 "BOTTOM_INFLOW_1"
1 6 "BOTTOM_INFLOW_2"
1 7 "TOP_INFLOW_1"
1 8 "TOP_INFLOW_2"
1 9 "SHOCK"
2 1 "surface1"
2 2 "surface2"
$EndPhysicalNames
$Entities
6 7 2 0
1 0 0 0 0 0 0 0 
2 0.125 0 0 0.125 0 0 0 
3 0.875 0.5 0 0.875 0.5 0 0 
4 0 0.5 0 0 0.5 0 0 
5 1 0 0 1 0 0 0 
6 1 0.5 0 1 0.5 0 0 
1 0 0 0 0.125 0 0 1 5 2 1 -2 
2 0.125 0 0 0.875 0.5 0 1 9 2 2 -3 
3 0 0.5 0 0.875 0.5 0 1 7 2 3 -4 
4 0 0 0 0 0.5 0 1 3 2 4 -1 
5 0.125 0 0 1 0 0 1 6 2 5 -2 
6 1 0 0 1 0.5 0 1 4 2 6 -5 
7 0.875 0.5 0 1 0.5 0 1 8 2 3 -6 
1 0 0 0 0.875 0.5 0 1 1 4 1 2 3 4 
2 0.125 0 0 1 0.5 0 1 2 4 2 7 6 5 
$EndEntities
$Nodes
15 101
1 0 0 1
1 0 0 0
2 0 0 1
2 0.125 0 0
3 0 0 1
3 0.875 0.5 0
4 0 0 1
4 0 0.5 0
5 0 0 1
5 1 0 0
6 0 0 1
6 1 0.5 0
1 1 0 1
7 0.06249999999983678 0 0
2 1 0 9
8 0.199999999999765 0.04999999999984331 0
9 0.2749999999995135 0.09999999999967567 0
10 0.349999999999254 0.1499999999995027 0
11 0.4249999999989946 0.1999999999993297 0
12 0.4999999999987449 0.2499999999991633 0
13 0.5749999999989877 0.2999999999993251 0
14 0.6499999999992405 0.3499999999994937 0
15 0.7249999999994933 0.3999999999996622 0
16 0.7999999999997462 0.4499999999998308 0
3 1 0 8
17 0.7777777777778234 0.5 0
18 0.680555555555647 0.5 0
19 0.5833333333334705 0.5 0
20 0.4861111111112941 0.5 0
21 0.3888888888888093 0.5 0
22 0.2916666666665293 0.5 0
23 0.1944444444443529 0.5 0
24 0.09722222222217636 0.5 0
4 1 0 4
25 0 0.3999999999999999 0
26 0 0.3000000000006934 0
27 0 0.2000000000008322 0
28 0 0.1000000000004161 0
5 1 0 8
29 0.9027777777778693 0 0
30 0.8055555555557385 0 0
31 0.7083333333336079 0 0
32 0.6111111111114773 0 0
33 0.5138888888887297 0 0
34 0.4166666666663918 0 0
35 0.3194444444442612 0 0
36 0.2222222222221306 0 0
6 1 0 4
37 1 0.3999999999999999 0
38 1 0.3000000000006934 0
39 1 0.2000000000008322 0
40 1 0.1000000000004161 0
7 1 0 1
41 0.9375 0.5 0
1 2 0 30
42 0.2051178681960347 0.2839762780776973 0
43 0.3634288629952377 0.3339321111154582 0
44 0.1368264478416423 0.1719735968901801 0
45 0.4739177371079817 0.3703733943355714 0
46 0.09504006010382698 0.09996965818383718 0
47 0.1205356271077203 0.3800733872255295 0
48 0.2425270472029024 0.4216437807551036 0
49 0.2997278186977551 0.2526178445860328 0
50 0.1052621136542086 0.2674518864019476 0
51 0.5647949729043069 0.3939965173137313 0
52 0.2330472401100512 0.1868776857127279 0
53 0.4406116626375259 0.2851459285075102 0
54 0.4168016247840586 0.4238797877979288 0
55 0.7251316990444188 0.4559351065730881 0
56 0.6548025934727627 0.4333219373143292 0
57 0.3304821203584254 0.4168260248623867 0
58 0.06742572431993558 0.1678790282954427 0
59 0.2710748518387434 0.3442114642899251 0
60 0.185174401072186 0.1166755341283264 0
61 0.1511814620431318 0.4316538633567171 0
62 0.0685208875610574 0.4299084814160026 0
63 0.1404921203883574 0.05934903564509966 0
64 0.04785172470897735 0.05017439939144674 0
65 0.3757536688657535 0.2443391768415667 0
66 0.06480827339234912 0.3332018737939751 0
67 0.5044263682955538 0.4341431756178405 0
68 0.1722208088510609 0.2271329734026375 0
69 0.5106237612576725 0.315314358111035 0
70 0.09417678104019972 0.04189861864407671 0
71 0.1851653935821048 0.3562727463428724 0
2 2 0 30
72 0.7948821318031706 0.2160237219211271 0
73 0.6365711370037515 0.1660678888836849 0
74 0.8631735521574926 0.3280264031089409 0
75 0.5260822628905335 0.1296266056617508 0
76 0.9049599398956797 0.4000303418158052 0
77 0.879464372892394 0.1199266127742658 0
78 0.7574729527968189 0.0783562192447677 0
79 0.7002721813011591 0.2473821554130942 0
80 0.894737886345536 0.2325481135978581 0
81 0.4352050270940643 0.1060034826854689 0
82 0.7669527598889638 0.3131223142864041 0
83 0.5593883373607998 0.2148540714907594 0
84 0.5831983752151595 0.07612021220129508 0
85 0.2748683009550552 0.04406489342665956 0
86 0.3451974065264233 0.06667806268521781 0
87 0.669517879641112 0.08317397513726685 0
88 0.9325742756797418 0.3321209717046595 0
89 0.7289251481608108 0.1557885357094911 0
90 0.8148255989272077 0.3833244658711864 0
91 0.8488185379570625 0.06834613664319329 0
92 0.9314791124391628 0.07009151858392117 0
93 0.8595078796113538 0.4406509643545979 0
94 0.9521482752907825 0.4498256006084796 0
95 0.6242463311327877 0.2556608231572715 0
96 0.9351917266083628 0.1667981262055452 0
97 0.4955736317021153 0.0658568243809227 0
98 0.8277791911480277 0.2728670265964409 0
99 0.4893762387405779 0.1846856418866843 0
100 0.9058232189595632 0.4581013813557766 0
101 0.8148346064188531 0.1437272536570059 0
$EndNodes
$Elements
15 216
1 0 15 1
1 1 
2 0 15 1
2 2 
3 0 15 1
3 3 
4 0 15 1
4 4 
5 0 15 1
5 5 
6 0 15 1
6 6 
1 1 1 2
7 1 7 
8 7 2 
2 1 1 10
9 2 8 
10 8 9 
11 9 10 
12 10 11 
13 11 12 
14 12 13 
15 13 14 
16 14 15 
17 15 16 
18 16 3 
3 1 1 9
19 3 17 
20 17 18 
21 18 19 
22 19 20 
23 20 21 
24 21 22 
25 22 23 
26 23 24 
27 24 4 
4 1 1 5
28 4 25 
29 25 26 
30 26 27 
31 27 28 
32 28 1 
5 1 1 9
33 5 29 
34 29 30 
35 30 31 
36 31 32 
37 32 33 
38 33 34 
39 34 35 
40 35 36 
41 36 2 
6 1 1 5
42 6 37 
43 37 38 
44 38 39 
45 39 40 
46 40 5 
7 1 1 2
47 3 41 
48 41 6 
1 2 2 84
49 10 49 52 
50 9 10 52 
51 22 23 48 
52 45 43 53 
53 50 27 58 
54 43 45 54 
55 48 23 61 
56 49 42 52 
57 44 50 58 
58 26 27 50 
59 17 18 55 
60 47 50 71 
61 50 42 71 
62 15 16 55 
63 20 54 67 
64 20 21 54 
65 28 1 64 
66 61 24 62 
67 13 14 51 
68 60 46 63 
69 43 49 65 
70 43 57 59 
71 47 61 62 
72 15 55 56 
73 57 48 59 
74 49 10 65 
75 44 46 60 
76 13 51 69 
77 22 48 57 
78 2 8 63 
79 23 24 61 
80 50 47 66 
81 52 42 68 
82 55 18 56 
83 42 49 59 
84 51 45 69 
85 49 43 59 
86 51 19 67 
87 53 43 65 
88 11 12 53 
89 46 28 64 
90 54 45 67 
91 19 20 67 
92 45 53 69 
93 19 51 56 
94 21 22 57 
95 50 44 68 
96 9 52 60 
97 42 50 68 
98 51 14 56 
99 10 11 65 
100 1 7 64 
101 14 15 56 
102 18 19 56 
103 28 46 58 
104 8 9 60 
105 4 25 62 
106 46 44 58 
107 53 12 69 
108 24 4 62 
109 54 21 57 
110 42 59 71 
111 59 48 71 
112 26 50 66 
113 16 17 55 
114 62 25 66 
115 25 26 66 
116 45 51 67 
117 27 28 58 
118 52 44 60 
119 43 54 57 
120 44 52 68 
121 47 62 66 
122 12 13 69 
123 7 2 70 
124 11 53 65 
125 8 60 63 
126 64 7 70 
127 48 61 71 
128 2 63 70 
129 61 47 71 
130 46 64 70 
131 63 46 70 
132 16 3 17 
2 2 2 84
133 79 14 82 
134 14 15 82 
135 30 31 78 
136 73 75 83 
137 38 80 88 
138 75 73 84 
139 30 78 91 
140 72 79 82 
141 80 74 88 
142 38 39 80 
143 35 36 85 
144 80 77 101 
145 72 80 101 
146 8 9 85 
147 84 33 97 
148 32 33 84 
149 6 37 94 
150 29 91 92 
151 10 11 81 
152 76 90 93 
153 79 73 95 
154 87 73 89 
155 91 77 92 
156 85 9 86 
157 78 87 89 
158 14 79 95 
159 76 74 90 
160 81 11 99 
161 78 31 87 
162 16 3 93 
163 29 30 91 
164 77 80 96 
165 72 82 98 
166 35 85 86 
167 79 72 89 
168 75 81 99 
169 73 79 89 
170 34 81 97 
171 73 83 95 
172 12 13 83 
173 37 76 94 
174 75 84 97 
175 33 34 97 
176 83 75 99 
177 81 34 86 
178 31 32 87 
179 74 80 98 
180 82 15 90 
181 80 72 98 
182 10 81 86 
183 13 14 95 
184 41 6 94 
185 9 10 86 
186 34 35 86 
187 76 37 88 
188 15 16 90 
189 40 5 92 
190 74 76 88 
191 12 83 99 
192 5 29 92 
193 32 84 87 
194 89 72 101 
195 78 89 101 
196 80 39 96 
197 36 8 85 
198 40 92 96 
199 39 40 96 
200 81 75 97 
201 37 38 88 
202 74 82 90 
203 84 73 87 
204 82 74 98 
205 92 77 96 
206 11 12 99 
207 3 41 100 
208 83 13 95 
209 90 16 93 
210 41 94 100 
211 91 78 101 
212 93 3 100 
213 77 91 101 
214 94 76 100 
215 76 93 100 
216 8 36 2 
$EndElements
